<?xml version="1.0" encoding="UTF-8" standalone="no"?>
<!DOCTYPE svg  PUBLIC '-//W3C//DTD SVG 1.1//EN'  'http://www.w3.org/Graphics/SVG/1.1/DTD/svg11.dtd'>
<svg xmlns="http://www.w3.org/2000/svg" version="1.1">
<defs>
<font id="Kazimir-RegularItalic" horiz-adv-x="593">
<font-face underline-position="-150" underline-thickness="50" font-family="Kazimir" ascent="800" font-weight="400" bbox="-165 -306 1215 964" descent="-200" unicode-range="U+0020-FB02" font-style="italic" x-height="501" panose-1="2 7 5 3 7 7 6 11 3 3" units-per-em="1000" slope="-7" cap-height="690"/>
<missing-glyph d="M99 605v-510l170 255zM129 50h340l-170 255zM329 350l170 -255v510zM299 395l170 255h-340zM49 0v700h500v-700h-500z" horiz-adv-x="549"/>
<glyph glyph-name="fi" d="M-44 -259q-48 0 -82.5 23.5t-34.5 69.5q0 34 19 57.5t54 23.5q28 0 43 -15.5t15 -40.5q0 -31 -19 -50t-53 -21q15 -15 51 -15q87 0 109 160l66 536h-86l4 32h87q9 74 32.5 127t57.5 81.5t71.5 41.5t81.5 13q62 0 104.5 -27.5t42.5 -76.5q0 -37 -17.5 -58t-50.5 -21 q-29 0 -46 15.5t-17 40.5q0 31 18.5 49.5t51.5 20.5q-25 25 -77 25q-61 0 -95.5 -38t-46.5 -130l-8 -63h84q164 0 179 11l13 -10l-50 -407q-1 -9 -1 -24q0 -43 28 -43q48 0 64 123h31q-12 -84 -37.5 -123t-88.5 -39q-98 0 -98 99q0 8 2 30l41 351h-171l-57 -457 q-17 -140 -77 -205.5t-137 -65.5z" horiz-adv-x="599" unicode="fi"/>
<glyph glyph-name="fl" d="M-44 -259q-48 0 -82.5 23.5t-34.5 69.5q0 34 19 57.5t54 23.5q28 0 43 -15.5t15 -40.5q0 -31 -19 -50t-53 -21q15 -15 51 -15q87 0 109 160l66 536h-86l4 32h87q9 73 33 126.5t57 82t68 41.5t73 13q39 0 75 -13q76 1 90 10l13 -10l-81 -655q-2 -20 -2 -27q0 -40 29 -40 q48 0 63 125h31q-12 -85 -37 -124.5t-89 -39.5q-98 0 -98 99q0 8 2 30l43 350h-172l-57 -457q-17 -140 -77 -205.5t-137 -65.5zM231 501h173l25 211q-16 20 -60 20q-53 0 -85 -37.5t-44 -122.5z" horiz-adv-x="598" unicode="fl"/>
<glyph glyph-name="f_b" d="M538 751q-48 -335 -57 -384q42 146 170 146q86 0 134.5 -59.5t48.5 -166.5q0 -20 -1 -30q-7 -113 -73 -190.5t-165 -77.5q-58 0 -96.5 26t-55.5 68l-71 -103h-32l59 489h-172l-57 -457q-17 -140 -77 -205.5t-137 -65.5q-48 0 -82.5 23.5t-34.5 69.5q0 34 19 57.5t54 23.5 q28 0 43 -15.5t15 -40.5q0 -31 -19 -50t-53 -21q15 -15 51 -15q87 0 109 160l66 536h-86l4 32h87q9 73 33 126.5t57 82t68 41.5t73 13q39 0 75 -13q76 1 90 10zM591 22q56 0 91 65t42 176q1 12 1 34q0 166 -105 166q-57 0 -92 -58.5t-46 -143.5q0 -5 -1.5 -19.5t-1.5 -19.5 q-1 -11 -1 -32q0 -80 30 -124t83 -44zM231 501h173l25 211q-16 20 -60 20q-53 0 -85 -37.5t-44 -122.5z" horiz-adv-x="868" unicode="fb"/>
<glyph glyph-name="f_h" d="M538 751q-50 -329 -61 -377q23 67 68 103t104 36q116 0 116 -124q0 -11 -2 -35l-31 -258q-2 -20 -2 -27q0 -41 29 -41q48 0 63 125h31q-12 -85 -37.5 -124.5t-89.5 -39.5q-97 0 -97 99q0 8 2 30l30 240q2 22 2 31q0 70 -56 70q-44 0 -82 -50.5t-52 -167.5l-29 -241h-103 l58 469h-172l-57 -457q-17 -140 -77 -205.5t-137 -65.5q-48 0 -82.5 23.5t-34.5 69.5q0 34 19 57.5t54 23.5q28 0 43 -15.5t15 -40.5q0 -31 -19 -50t-53 -21q15 -15 51 -15q87 0 109 160l66 536h-86l4 32h87q9 73 33 126.5t57 82t68 41.5t73 13q39 0 75 -13q76 1 90 10z M231 501h173l25 211q-16 20 -60 20q-53 0 -85 -37.5t-44 -122.5z" horiz-adv-x="870" unicode="fh"/>
<glyph glyph-name="f_k" d="M537 751q-43 -318 -54 -381q52 143 167 143q51 0 84.5 -29t33.5 -81q0 -117 -156 -162l110 -208h59l-4 -33h-152l-116 221l4 27q77 7 114 51.5t37 104.5q0 63 -54 63q-42 0 -81.5 -60.5t-56.5 -186.5l-28 -220h-104l59 469h-172l-57 -457q-17 -140 -77 -205.5t-137 -65.5 q-48 0 -82.5 23.5t-34.5 69.5q0 34 19 57.5t54 23.5q28 0 43 -15.5t15 -40.5q0 -31 -19 -50t-53 -21q15 -15 51 -15q87 0 109 160l66 536h-86l4 32h87q9 73 33 126.5t57 82t68 41.5t73 13q39 0 75 -13q76 1 90 10zM231 501h173l25 211q-16 20 -60 20q-53 0 -85 -37.5 t-44 -122.5z" horiz-adv-x="827" unicode="fk"/>
<glyph glyph-name=".notdef" d="M99 605v-510l170 255zM129 50h340l-170 255zM329 350l170 -255v510zM299 395l170 255h-340zM49 0v700h500v-700h-500z" horiz-adv-x="549"/>
<glyph glyph-name=".null" horiz-adv-x="0"/>
<glyph glyph-name="nonmarkingreturn" horiz-adv-x="333"/>
<glyph glyph-name="space" horiz-adv-x="300" unicode=" "/>
<glyph glyph-name="exclam" d="M100 -11q-34 0 -48 18.5t-14 41.5q0 30 20.5 54t57.5 24q34 0 48.5 -19.5t14.5 -43.5q-1 -29 -22 -52t-57 -23zM111 194q12 95 12 187q0 61 -6 136t-6 90q0 13 1 19q3 27 21.5 51t53.5 24q30 0 43.5 -20t13.5 -45q0 -2 -0.5 -5.5t-0.5 -4.5q-2 -21 -21.5 -81t-43.5 -154 t-37 -197h-30z" horiz-adv-x="277" unicode="!"/>
<glyph glyph-name="quotedbl" d="M267 403l-7 259q0 17 5.5 22.5t25.5 5.5h53q23 0 23 -15q0 -3 -2 -13l-63 -259h-35zM107 403l-7 259q0 17 5.5 22.5t25.5 5.5h53q23 0 23 -15q0 -3 -2 -13l-63 -259h-35z" horiz-adv-x="392" unicode='&quot;'/>
<glyph glyph-name="numbersign" d="M20 0l97 246h-108l6 38h118l67 175h-131l7 38h139l99 252h45l-99 -252h118l99 252h45l-99 -252h111l-1 -38h-125l-67 -175h133l-1 -38h-148l-97 -246h-45l96 246h-118l-95 -246h-46zM178 284h116l69 175h-117z" horiz-adv-x="530" unicode="#"/>
<glyph glyph-name="dollar" d="M152 -119l14 114q-69 8 -108.5 39.5t-39.5 80.5q0 6 2 20q12 74 75 74q53 0 53 -51q0 -10 -1 -15q-10 -54 -66 -66q25 -40 89 -51l34 275q-61 22 -96.5 60t-35.5 108q0 23 4 46q9 63 57.5 114t119.5 67l11 96h29l-11 -92q8 1 24 1t24 -1l11 92h28l-11 -94 q63 -11 100.5 -44t37.5 -82q0 -12 -1 -18q-4 -28 -22 -47t-45 -19q-29 0 -44.5 14.5t-15.5 36.5q0 6 1 9q6 30 21 46t46 23q-28 39 -82 49l-35 -283q65 -26 101 -63.5t36 -107.5q0 -10 -2 -32q-9 -66 -54 -119t-129 -66l-14 -114h-29l14 111q-6 -1 -20 -1q-19 0 -27 1 l-14 -111h-29zM276 28q90 19 104 122q1 7 1 20q0 36 -19.5 58t-57.5 38zM222 22q17 0 24 1l31 253q-30 10 -45 16l-34 -269q8 -1 24 -1zM219 422l29 240q-44 -12 -71.5 -44.5t-33.5 -74.5q-2 -16 -2 -22q0 -64 78 -99zM292 394l33 275q-5 1 -20 1q-9 0 -27 -2l-32 -257 q30 -12 46 -17z" horiz-adv-x="506" unicode="$"/>
<glyph glyph-name="percent" d="M605 22q46 0 77 56t31 130q0 51 -19 80t-54 29q-48 0 -77 -57.5t-29 -130.5q0 -107 71 -107zM579 -12q-57 0 -102.5 45t-45.5 113q0 83 63.5 144t129.5 61q61 0 96 -41t35 -109q0 -90 -50.5 -151.5t-125.5 -61.5zM249 372q46 0 77 56t31 130q0 51 -19 80t-54 29 q-48 0 -77 -57.5t-29 -130.5q0 -107 71 -107zM165 -11l-38 27l441 558q10 12 13 19q-43 -9 -79 -9q-63 0 -111 24q8 -29 8 -60q-2 -89 -52 -149.5t-124 -60.5q-57 0 -102.5 45t-45.5 113q0 83 63.5 144t129.5 61q58 0 92 -37q56 -45 141 -45q50 0 104 15q22 46 34 56 q15 11 36 11q16 0 27 -9.5t11 -23.5q0 -23 -16.5 -40.5t-40 -32.5t-30.5 -23z" horiz-adv-x="817" unicode="%"/>
<glyph glyph-name="ampersand" d="M233 37q77 0 137 65q-27 40 -62.5 93.5t-57.5 87t-38 58.5q-43 -24 -70.5 -69.5t-27.5 -105.5t31.5 -94.5t87.5 -34.5zM294 415q102 57 104 178q0 33 -16.5 54t-47.5 21q-44 0 -71.5 -28.5t-27.5 -80.5q0 -49 59 -144zM187 -11q-80 0 -126 43t-46 111q0 148 180 225 q-49 82 -49 138q0 84 52.5 139t140.5 55q67 0 108 -31t41 -86q0 -106 -177 -195q44 -68 139 -209q78 80 144 204h-83l4 33h190l-4 -33h-66q-73 -125 -167 -232q42 -61 67.5 -84t57.5 -23q28 0 48.5 27.5t28.5 56.5t12 59h30q-24 -198 -166 -198q-50 0 -84.5 19.5t-72.5 66.5 q-54 -51 -99.5 -68.5t-102.5 -17.5z" horiz-adv-x="754" unicode="&amp;"/>
<glyph glyph-name="quotesingle" d="M107 403l-7 259q0 17 5.5 22.5t25.5 5.5h53q23 0 23 -15q0 -3 -2 -13l-63 -259h-35z" horiz-adv-x="215" unicode="&apos;"/>
<glyph glyph-name="parenleft" d="M311 -260q-108 52 -177 168t-69 255v8q3 172 108.5 340t259.5 253l18 -28q-140 -98 -204.5 -239t-68.5 -368v-18q0 -40 3 -74.5t10.5 -62.5t13.5 -50t19 -42t20.5 -32.5t23.5 -27.5t21.5 -20.5t22.5 -18.5t20 -15z" horiz-adv-x="389" unicode="("/>
<glyph glyph-name="parenright" d="M-51 -260l-18 28q141 99 204.5 238t67.5 362v18q0 36 -3 69t-7 58t-13 50t-14.5 40.5t-19 34t-18.5 27t-21 23.5t-19.5 18.5t-20 16t-17.5 13.5l21 28q107 -51 176 -170.5t69 -259.5v-8q-3 -172 -107.5 -336.5t-259.5 -249.5z" horiz-adv-x="392" unicode=")"/>
<glyph glyph-name="asterisk" d="M193 412q-14 2 -23 12.5t-9 24.5q0 3 2 11q7 25 31 56.5t29 46.5l20 -4q-2 -12 -2 -17q0 -9 4 -30.5t4 -34.5q0 -14 -4 -29q-4 -16 -18 -26t-29 -10h-5zM306 470q-19 16 -31 49.5t-23 43.5l14 17q11 -9 46.5 -17.5t53.5 -24.5q12 -9 12 -27q0 -19 -12 -33 q-14 -17 -36 -17q-15 0 -24 9zM120 500q-8 -3 -16 -3q-13 0 -23 7t-13 18q-2 8 -2 11q0 14 9 27t23 18q23 8 45 8q7 0 20.5 -1t19.5 -1q17 0 29 5l5 -19q-15 -6 -43.5 -33.5t-53.5 -36.5zM269 587l-6 21q17 6 45.5 33t51.5 36q8 3 15 3q13 0 24 -7.5t14 -18.5q2 -6 2 -11 q0 -14 -9 -27t-23 -17q-22 -9 -45 -9q-7 0 -20.5 1t-19.5 1q-16 0 -29 -5zM214 597q-11 10 -46 18t-52 23q-13 10 -13 28t12 32q14 16 38 16q15 0 23 -7q18 -17 30.5 -50.5t23.5 -43.5zM258 613l-21 4q3 9 3 18t-4.5 30.5t-4.5 34.5q0 15 4 28q4 15 18.5 26t29.5 11h5 q12 -2 22 -13.5t10 -26.5q0 -6 -1 -9q-7 -25 -31.5 -56t-29.5 -47z" horiz-adv-x="411" unicode="*"/>
<glyph glyph-name="plus" d="M186 119l20 173h-172l6 44h172l20 165h48l-20 -165h172l-6 -44h-172l-20 -173h-48z" horiz-adv-x="462" unicode="+"/>
<glyph glyph-name="comma" d="M40 -196l-23 21q82 68 107 167q-9 -3 -22 -3q-36 0 -50 20t-14 45q1 29 22 53t58 24q32 0 48 -19.5t16 -49.5q0 -66 -41.5 -141t-100.5 -117z" horiz-adv-x="274" unicode=","/>
<glyph glyph-name="hyphen" d="M44 273l4 36h246l-4 -36h-246z" horiz-adv-x="339" unicode="-"/>
<glyph glyph-name="period" d="M102 -11q-36 0 -50 20t-14 45q1 29 22.5 53t58.5 24q34 0 49 -19t15 -43q0 -31 -21.5 -55.5t-59.5 -24.5z" horiz-adv-x="273" unicode="."/>
<glyph glyph-name="slash" d="M-20 -105l-38 21l532 854l38 -22z" horiz-adv-x="447" unicode="/"/>
<glyph glyph-name="zero" d="M254 21q72 0 107 70t58 255q13 100 13 170q0 84 -23 118.5t-75 34.5q-73 0 -112 -70t-62 -253q-11 -94 -11 -152q0 -93 25.5 -133t79.5 -40zM251 -11q-53 0 -95 28t-66.5 74t-37 99t-12.5 107q0 25 3 49q7 57 31.5 118t61 114.5t90 88t112.5 34.5q52 0 92 -26.5t63 -70.5 t34.5 -95t11.5 -105q0 -31 -3 -58q-7 -57 -29.5 -117.5t-57.5 -115t-87 -89.5t-111 -35z" horiz-adv-x="567" unicode="0"/>
<glyph glyph-name="one" d="M-16 0l4 33h130l73 588h-130l3 32q189 0 243 61h18q-20 -37 -31 -126l-68 -555h125l-4 -33h-363z" horiz-adv-x="407" unicode="1"/>
<glyph glyph-name="two" d="M265 383q49 0 86.5 47t37.5 116q0 59 -26 91t-67 32q-52 0 -88 -48t-37 -118v-6q0 -55 26 -84.5t68 -29.5zM8 0l2 36q30 28 104 98t100 95.5t71 70t68 70.5t39 47q-61 -65 -141 -65q-73 0 -130 42.5t-57 113.5q0 79 74 136t169 57q83 0 137 -41t54 -112q0 -40 -19.5 -77 t-69.5 -91q-22 -27 -60.5 -66t-112 -111t-114.5 -113h172q72 0 97 13.5t41 70.5l12 53h33l-54 -227h-415z" horiz-adv-x="533" unicode="2"/>
<glyph glyph-name="three" d="M211 -11q-98 0 -144 42.5t-46 107.5q0 42 20.5 71.5t60.5 29.5q29 0 43.5 -17t14.5 -41q0 -34 -21 -56.5t-64 -22.5h-9q21 -81 128 -81q70 0 113.5 62.5t43.5 153.5q0 69 -30 106.5t-73 37.5q-36 0 -65 -21l-14 16l226 223h-133q-85 0 -107.5 -14.5t-31.5 -83.5l-4 -27 h-32l28 215h388v-29l-247 -245q211 -27 211 -185q0 -103 -65 -172.5t-191 -69.5z" horiz-adv-x="522" unicode="3"/>
<glyph glyph-name="four" d="M60 220h233l41 328zM167 0l4 33h99l19 154h-287l3 18l419 497h36l-59 -482h84l-4 -33h-85l-18 -154h84l-4 -33h-291z" horiz-adv-x="536" unicode="4"/>
<glyph glyph-name="five" d="M190 -11q-88 0 -130.5 37t-42.5 97q0 41 20.5 70t59.5 29q30 0 44.5 -17t14.5 -43q-1 -34 -24.5 -55t-62.5 -22q16 -63 116 -63q74 0 116 68t44 159v9q0 159 -108 159q-45 0 -83 -23t-57 -69h-27l82 365h220q31 0 49.5 10t24.5 22.5t13 38.5l7 30h33l-44 -190h-288 l-44 -204q50 58 141 58q87 0 141.5 -54.5t54.5 -146.5q0 -36 -9.5 -72t-31 -71t-52 -62t-76.5 -43.5t-101 -16.5z" horiz-adv-x="504" unicode="5"/>
<glyph glyph-name="six" d="M237 21q44 0 76.5 36.5t47 87t14.5 104.5q0 135 -93 135q-48 0 -80 -36.5t-44 -84.5t-13 -103v-9q0 -130 92 -130zM234 -11q-84 0 -141.5 61.5t-57.5 184.5v11q1 70 23.5 148t60.5 147t99 114.5t131 45.5q67 0 107 -31t40 -81q0 -37 -20.5 -61.5t-55.5 -24.5 q-30 0 -46 16t-16 40q0 33 20.5 54.5t59.5 22.5q-27 35 -94 35q-71 0 -116.5 -65t-60.5 -188l-12 -93q51 94 150 94q73 0 127 -54t54 -134q0 -93 -78 -167.5t-174 -74.5z" horiz-adv-x="533" unicode="6"/>
<glyph glyph-name="seven" d="M242 280q15 28 42.5 80t38.5 73.5t28 55.5t28.5 59t22.5 52h-173q-85 0 -107.5 -14.5t-31.5 -83.5l-3 -27h-33l27 215h390v-34q-88 -173 -137 -278q-45 -94 -69 -164.5t-34 -115t-15 -58.5q-21 -51 -66 -51q-52 0 -52 46q0 1 0.5 5t0.5 5q3 22 22 51t55.5 80.5 t65.5 103.5z" horiz-adv-x="447" unicode="7"/>
<glyph glyph-name="eight" d="M242 21q60 0 97.5 47t46.5 126q3 24 3 45q0 63 -25.5 100t-77.5 37q-61 0 -97 -49.5t-47 -132.5q-3 -22 -3 -44q0 -61 26 -95t77 -34zM290 408q43 0 74 34t40 100q2 20 2 27q0 50 -22.5 75t-62.5 25q-44 0 -74 -32.5t-37 -94.5q-2 -22 -2 -31q0 -51 22.5 -77t59.5 -26z M239 -11q-100 0 -157.5 55t-57.5 130q0 13 1 20q9 68 60.5 123t142.5 76q-132 32 -132 132q0 11 1 17q7 67 74 113t155 46q82 0 137 -41.5t55 -103.5q0 -9 -1 -14q-6 -52 -48 -91.5t-121 -57.5q78 -18 117 -66.5t39 -109.5q0 -15 -1 -23q-10 -80 -83.5 -142.5t-180.5 -62.5z " horiz-adv-x="552" unicode="8"/>
<glyph glyph-name="nine" d="M197 -11q-67 0 -107 31t-40 81q0 37 20 61.5t55 24.5q30 0 46.5 -16t16.5 -40q0 -33 -21 -54.5t-59 -22.5q27 -35 94 -35q70 0 115.5 65t61.5 188l12 93q-51 -94 -150 -94q-73 0 -127 54t-54 134q0 93 78 167.5t174 74.5q84 0 141.5 -62.5t57.5 -186.5v-8 q-1 -70 -23.5 -148t-60.5 -147t-99 -114.5t-131 -45.5zM263 306q48 0 80.5 36.5t44.5 84.5t13 103v5q0 134 -92 134q-65 0 -101.5 -70.5t-36.5 -157.5q0 -135 92 -135z" horiz-adv-x="533" unicode="9"/>
<glyph glyph-name="colon" d="M88 -11q-36 0 -50 20t-14 45q1 29 22.5 53t58.5 24q34 0 49 -19t15 -43q0 -31 -21.5 -55.5t-59.5 -24.5zM135 311q-36 0 -50 20t-14 45q1 29 22.5 53t58.5 24q34 0 49 -19t15 -43q0 -31 -21.5 -55.5t-59.5 -24.5z" horiz-adv-x="257" unicode=":"/>
<glyph glyph-name="semicolon" d="M27 -196l-23 21q82 68 107 167q-9 -3 -22 -3q-36 0 -50 20t-14 45q1 29 22 53t58 24q32 0 48 -19.5t16 -49.5q0 -66 -41.5 -141t-100.5 -117zM134 311q-36 0 -50 20t-14 45q1 29 22.5 53t58.5 24q34 0 49 -19t15 -43q0 -31 -21.5 -55.5t-59.5 -24.5z" horiz-adv-x="256" unicode=";"/>
<glyph glyph-name="less" d="M315 84l-280 209l4 33l331 209l-7 -60l-264 -167l224 -164z" horiz-adv-x="406" unicode="&lt;"/>
<glyph glyph-name="equal" d="M25 212l7 44h346l-7 -44h-346zM44 372l6 44h346l-6 -44h-346z" horiz-adv-x="418" unicode="="/>
<glyph glyph-name="greater" d="M90 535l280 -209l-4 -33l-331 -209l8 64l263 163l-224 167z" horiz-adv-x="406" unicode="&gt;"/>
<glyph glyph-name="question" d="M155 -11q-35 0 -49 19.5t-14 43.5q1 28 22 51.5t57 23.5q34 0 48.5 -19.5t14.5 -43.5q-1 -29 -22 -52t-57 -23zM193 176q-48 0 -76 28t-28 72q0 36 16 67t40.5 51.5t53 42.5t53 41t40.5 46.5t16 58.5q0 86 -89 86q-60 0 -92 -37q54 -14 54 -59q0 -31 -18.5 -53t-56.5 -22 q-57 0 -57 66q1 51 53.5 94t133.5 43q72 0 116 -36t44 -99q0 -48 -24 -86t-58 -63t-67.5 -48t-57.5 -52.5t-24 -65.5q0 -19 11.5 -30t29.5 -11q25 0 43 16.5t18 42.5t-16 49l20 15q29 -22 29 -61q0 -38 -28.5 -67t-78.5 -29z" horiz-adv-x="412" unicode="?"/>
<glyph glyph-name="at" d="M391 27q98 0 128 188q5 35 5 57q0 62 -24 97t-65 35q-47 0 -77.5 -53t-40.5 -135q-4 -28 -4 -59q0 -130 78 -130zM439 -193q-69 0 -128 11.5t-113 38.5t-91.5 69.5t-60 107.5t-22.5 149v9q3 183 134.5 299.5t312.5 116.5q192 0 287 -97.5t95 -259.5v-11 q-1 -95 -54.5 -173t-147.5 -78q-65 0 -97.5 27.5t-32.5 78.5v9q-44 -115 -147 -115q-70 0 -115 51t-45 137q0 26 2 40q12 93 72.5 154.5t145.5 61.5q47 0 78.5 -24.5t42.5 -62.5l77 87h10l-42 -297q-4 -38 -4 -52q0 -32 14 -48t53 -16q62 0 99.5 66.5t38.5 152.5v13 q0 151 -78.5 237t-251.5 86q-163 0 -277.5 -106t-117.5 -277v-9q0 -91 29 -159t80.5 -107.5t115 -58.5t139.5 -19q165 0 242 61l14 -18q-37 -34 -106.5 -54.5t-150.5 -20.5z" horiz-adv-x="898" unicode="@"/>
<glyph glyph-name="A" d="M-57 0l4 33h64l311 667h36l146 -667h68l-4 -33h-300l4 33h118l-46 215h-195l-100 -215h118l-5 -33h-219zM164 280h173l-55 254z" horiz-adv-x="583" unicode="A"/>
<glyph glyph-name="B" d="M200 33h67q87 0 129 39.5t51 120.5q1 8 1 23q0 121 -143 121h-68zM241 367h62q67 0 106.5 40.5t47.5 112.5q1 9 1 24q0 58 -36 85.5t-115 27.5h-31zM6 0l4 33h82l76 624h-81l4 33h212q269 0 269 -151q0 -12 -1 -19q-8 -65 -56.5 -110t-121.5 -55q76 -12 123.5 -47.5 t47.5 -97.5q0 -13 -1 -19q-10 -93 -83.5 -142t-206.5 -49h-267z" horiz-adv-x="611" unicode="B"/>
<glyph glyph-name="C" d="M296 -11q-65 0 -115.5 27t-80.5 72t-45 98.5t-15 111.5q0 24 3 48q11 84 54 163.5t119.5 135.5t166.5 56q82 0 129 -37l45 36h17l-28 -230h-32q3 24 3 46q0 151 -133 151q-87 0 -144 -73t-79 -248q-7 -55 -7 -104q0 -219 151 -219q83 0 127.5 55.5t56.5 145.5h32 l-29 -234h-17l-36 38q-68 -39 -143 -39z" horiz-adv-x="588" unicode="C"/>
<glyph glyph-name="D" d="M200 33h49q50 0 93.5 15t83.5 48.5t68 97t39 152.5q5 47 5 76q0 67 -17.5 114.5t-48.5 73t-67 36.5t-80 11h-49zM6 0l4 33h82l76 624h-81l4 33h260q95 0 166.5 -45.5t104.5 -113t33 -144.5q0 -21 -3 -41q-8 -61 -38.5 -121.5t-79 -111t-119 -82t-149.5 -31.5h-260z" horiz-adv-x="683" unicode="D"/>
<glyph glyph-name="E" d="M6 0l4 33h82l76 624h-81l4 33h468l-27 -220h-32l4 42q3 22 3 40q0 59 -33 82t-107 23h-91l-35 -290h135l10 77h38l-24 -195h-38l10 86h-136l-36 -302h128q42 0 70.5 9.5t45.5 30.5t25.5 47.5t13.5 67.5l5 36h32l-28 -224h-486z" horiz-adv-x="578" unicode="E"/>
<glyph glyph-name="F" d="M6 0l4 33h82l76 624h-81l4 33h455l-27 -220h-33l5 42q3 21 3 39q0 60 -33.5 83t-108.5 23h-76l-35 -290h118l10 77h37l-25 -199h-37l11 90h-119l-36 -302h117l-4 -33h-307z" horiz-adv-x="526" unicode="F"/>
<glyph glyph-name="G" d="M296 -11q-65 0 -115.5 27t-80.5 72t-45 98.5t-15 111.5q0 24 3 48q8 62 36.5 124t71.5 114t106 84.5t132 32.5q87 0 133 -38l45 37h17l-28 -230h-32q3 24 3 45q0 152 -137 152q-89 0 -148 -73t-81 -248q-7 -55 -7 -104q0 -219 151 -219q61 0 103 31l29 248h-94l4 33h275 l-4 -33h-75l-38 -312h-20l-43 37q-66 -38 -146 -38z" horiz-adv-x="637" unicode="G"/>
<glyph glyph-name="H" d="M6 0l4 33h82l76 624h-81l4 33h269l-5 -33h-79l-35 -289h262l35 289h-79l4 33h269l-4 -33h-82l-76 -624h82l-5 -33h-269l5 33h79l37 303h-263l-36 -303h79l-4 -33h-269z" horiz-adv-x="725" unicode="H"/>
<glyph glyph-name="I" d="M6 0l4 33h86l77 624h-86l4 33h280l-4 -33h-86l-77 -624h86l-4 -33h-280z" horiz-adv-x="364" unicode="I"/>
<glyph glyph-name="J" d="M121 -11q-69 0 -103 31.5t-34 86.5q0 8 2 26q4 34 25.5 56t54.5 22q28 0 43 -16t15 -40q0 -7 -1 -11q-7 -66 -88 -69q3 -20 23 -35.5t53 -15.5q61 0 87.5 42.5t40.5 151.5l54 439h-109l4 33h299l-5 -33h-81l-49 -397q-10 -81 -31.5 -136.5t-53.5 -83.5t-66.5 -39.5 t-79.5 -11.5z" horiz-adv-x="448" unicode="J"/>
<glyph glyph-name="K" d="M6 0l4 33h82l76 624h-81l4 33h277l-4 -33h-88l-42 -342l294 342h-90l4 33h228l-4 -33h-91l-203 -238l200 -386h51l-4 -33h-245l4 33h67l-156 299l-61 -73l-28 -226h75l-5 -33h-264z" horiz-adv-x="656" unicode="K"/>
<glyph glyph-name="L" d="M6 0l4 33h82l76 624h-81l4 33h298l-4 -33h-109l-76 -624h118q42 0 70.5 9.5t45.5 30.5t25.5 47.5t13.5 67.5l5 36h32l-28 -224h-476z" horiz-adv-x="541" unicode="L"/>
<glyph glyph-name="M" d="M6 0l4 33h82l76 624h-81l4 33h218l98 -426l209 426h216l-4 -33h-82l-77 -624h82l-4 -33h-289l4 33h100l75 617l-276 -558h-22l-129 557l-75 -616h105l-5 -33h-229z" horiz-adv-x="825" unicode="M"/>
<glyph glyph-name="N" d="M6 0l4 33h82l76 624h-81l4 33h179l266 -495l57 462h-88l5 33h211l-4 -33h-82l-81 -666h-37l-316 590l-66 -548h87l-4 -33h-212z" horiz-adv-x="706" unicode="N"/>
<glyph glyph-name="O" d="M293 22q83 0 136 74t74 250q8 60 8 118q0 110 -35.5 157t-103.5 47q-41 0 -72.5 -15.5t-59.5 -51.5t-48 -99.5t-31 -155.5q-8 -69 -8 -114q0 -112 36 -161t104 -49zM289 -11q-52 0 -94.5 17.5t-70.5 47t-47.5 69.5t-28 82.5t-8.5 88.5q0 26 3 52q8 63 33.5 124 t65.5 113.5t101.5 85t133.5 32.5q64 0 113.5 -25.5t78 -69t42.5 -95t14 -108.5q0 -19 -4 -57q-8 -63 -32.5 -124t-65 -114.5t-101.5 -86t-133 -32.5z" horiz-adv-x="652" unicode="O"/>
<glyph glyph-name="P" d="M235 320h36q94 0 136.5 45t52.5 127q3 19 3 39q0 61 -34.5 93.5t-117.5 32.5h-35zM6 0l4 33h82l76 624h-81l4 33h220q134 0 200.5 -45.5t66.5 -125.5q0 -8 -2 -26q-11 -91 -90 -148.5t-222 -57.5h-34l-30 -254h117l-4 -33h-307z" horiz-adv-x="571" unicode="P"/>
<glyph glyph-name="Q" d="M293 22q33 0 59 10q0 3 -0.5 7.5t-0.5 5.5q-5 42 -20 59.5t-47 17.5q-26 0 -45 -21t-29 -52q31 -27 83 -27zM161 346q-8 -69 -8 -114q0 -109 36 -161q37 86 125 86q86 0 116 -59q53 78 73 248q8 60 8 118q0 110 -35.5 157t-103.5 47q-41 0 -72.5 -15.5t-59.5 -51.5 t-48 -99.5t-31 -155.5zM463 -141q-86 0 -102 99q-1 4 -1.5 10t-1.5 14.5t-2 14.5q-34 -8 -67 -8q-52 0 -94.5 17.5t-70.5 47t-47.5 69.5t-28 82.5t-8.5 88.5q0 26 3 52q8 63 33.5 124t65.5 113.5t101.5 85t133.5 32.5q64 0 113.5 -25.5t78 -69t42.5 -95t14 -108.5 q0 -19 -4 -57q-11 -90 -56 -175.5t-117 -133.5l7 -56q2 -25 5.5 -39.5t12.5 -25.5t24 -11q35 0 51 84h30q-11 -64 -37.5 -97t-77.5 -33z" horiz-adv-x="652" unicode="Q"/>
<glyph glyph-name="R" d="M239 351h28q176 0 195 157q2 20 2 28q0 121 -162 121h-26zM503 -11q-31 0 -51 11.5t-30.5 35t-16 48.5t-10.5 62v3t-0.5 3t-0.5 4q-13 90 -38 126t-87 37h-34l-35 -286h111l-4 -33h-301l4 33h82l76 624h-81l4 33h212q133 0 204.5 -41.5t71.5 -118.5q0 -14 -1 -21 q-8 -68 -72 -117t-153 -59q51 -18 82 -36t46 -41.5t20 -41.5t9 -53q12 -100 19 -113q6 -11 18 -11q39 0 53 115h30q-10 -81 -38 -122t-89 -41z" horiz-adv-x="653" unicode="R"/>
<glyph glyph-name="S" d="M247 -11q-100 0 -162 52l-46 -51h-17l29 233h32q-2 -20 -2 -30q0 -73 43.5 -121.5t123.5 -48.5q134 0 151 125q1 7 1 19q0 16 -4 29t-9 22.5t-16.5 18.5t-19 14t-25.5 11t-26.5 9t-30.5 9t-30 8q-35 10 -58.5 20.5t-48.5 30t-37.5 51.5t-12.5 75q0 19 3 40 q11 87 66.5 141.5t148.5 54.5q44 0 84 -13t58 -38l42 50h17l-28 -230h-32q2 18 2 27q0 72 -40 120.5t-101 48.5q-65 0 -102.5 -33t-44.5 -90q-1 -7 -1 -19q0 -36 23.5 -60.5t43.5 -32.5t73 -24l18 -6q37 -11 60.5 -21.5t49 -30t38 -49t12.5 -70.5q0 -23 -2 -36 q-11 -88 -66 -146.5t-157 -58.5z" horiz-adv-x="520" unicode="S"/>
<glyph glyph-name="T" d="M81 0l4 33h113l76 624h-38q-79 0 -113 -30.5t-44 -114.5l-5 -42h-33l27 220h528l-27 -220h-33l5 42q3 27 3 47q0 56 -28.5 77t-96.5 21h-37l-77 -624h113l-4 -33h-333z" horiz-adv-x="566" unicode="T"/>
<glyph glyph-name="U" d="M303 -11q-110 0 -160 46.5t-50 140.5q0 17 4 57l53 424h-82l4 33h283l-4 -33h-94l-53 -432q-4 -29 -4 -62q0 -68 28 -104t95 -36q83 0 121.5 52.5t50.5 153.5l52 428h-93l5 33h217l-4 -33h-82l-53 -425q-15 -124 -68.5 -183.5t-165.5 -59.5z" horiz-adv-x="650" unicode="U"/>
<glyph glyph-name="V" d="M253 -10l-143 667h-78l5 33h312l-4 -33h-121l104 -494l229 494h-112l4 33h230l-4 -33h-77l-309 -667h-36z" horiz-adv-x="600" unicode="V"/>
<glyph glyph-name="W" d="M220 -10l-119 667h-69l5 33h225l-4 -33h-47l88 -497l133 266l-44 231h-68l4 33h352l-5 -33h-75l-75 -152l67 -343l213 495h-68l4 33h175l-4 -33h-69l-286 -667h-36l-74 378l-187 -378h-36zM509 551l53 106h-73z" horiz-adv-x="833" unicode="W"/>
<glyph glyph-name="X" d="M-30 0l5 33h64l215 307l-134 317h-70l5 33h274l-5 -33h-89l100 -235l163 235h-74l4 33h189l-5 -33h-71l-189 -272l150 -352h61l-4 -33h-284l5 33h104l-113 268l-186 -268h95l-5 -33h-205z" horiz-adv-x="599" unicode="X"/>
<glyph glyph-name="Y" d="M123 0l4 33h88l34 281l-139 343h-70l4 33h286l-4 -33h-101l117 -289l179 289h-87l5 33h199l-4 -33h-69l-207 -334l-36 -290h88l-4 -33h-283z" horiz-adv-x="573" unicode="Y"/>
<glyph glyph-name="Z" d="M2 0l2 23l426 634h-161q-82 0 -116.5 -30t-45.5 -115l-5 -42h-32l27 220h450l-3 -23l-427 -634h192q80 0 111 36.5t42 118.5l5 36h32l-28 -224h-469z" horiz-adv-x="536" unicode="Z"/>
<glyph glyph-name="bracketleft" d="M14 -250l123 1000h230l-4 -33h-131l-115 -934h131l-4 -33h-230z" horiz-adv-x="338" unicode="["/>
<glyph glyph-name="backslash" d="M368 -99l-322 853l39 16l323 -854z" horiz-adv-x="448" unicode="\"/>
<glyph glyph-name="bracketright" d="M-40 -250l4 33h131l115 934h-131l4 33h230l-123 -1000h-230z" horiz-adv-x="338" unicode="]"/>
<glyph glyph-name="asciicircum" d="M55 385l171 301h34l94 -301h-49l-72 240l-131 -240h-47z" horiz-adv-x="386" unicode="^"/>
<glyph glyph-name="underscore" d="M-49 -96l5 36h456l-5 -36h-456z" horiz-adv-x="456" unicode="_"/>
<glyph glyph-name="grave" d="M303 588l-174 125q-14 9 -14 20q0 16 28 16h87q34 0 44 -29l61 -132h-32z" horiz-adv-x="379" unicode="`"/>
<glyph glyph-name="a" d="M224 40q61 0 98.5 59.5t49.5 153.5q1 5 3 19t2 18q2 30 2 43q0 145 -96 146q-59 0 -94 -60.5t-46 -160.5q-4 -33 -4 -69q0 -149 85 -149zM196 -11q-77 0 -121 57t-44 155q0 25 3 54q12 108 78 183t170 75q94 0 131 -98l69 98h24l-52 -417q-1 -8 -1 -22q0 -46 31 -46 q23 0 37.5 28t23.5 96h31q-12 -88 -36 -125.5t-82 -37.5q-86 0 -86 93q0 8 2 28l6 51q-23 -78 -70 -125t-114 -47z" horiz-adv-x="595" unicode="a"/>
<glyph glyph-name="b" d="M143 83l-70 -103h-24l79 737h-84l4 32q152 0 171 11l13 -10l-51 -383q42 146 170 146q86 0 134.5 -59t48.5 -165q0 -21 -1 -32q-7 -113 -73 -190.5t-164 -77.5q-58 0 -97 26t-56 68zM291 22q56 0 91.5 65.5t41.5 175.5q1 12 1 34q0 166 -105 166q-56 0 -91.5 -59 t-45.5 -143q0 -3 -1.5 -11.5t-2 -16t-0.5 -11.5q-1 -11 -1 -32q0 -80 30 -124t83 -44z" horiz-adv-x="569" unicode="b"/>
<glyph glyph-name="c" d="M232 -11q-94 0 -147.5 61t-53.5 157q0 27 2 41q14 124 84.5 194.5t169.5 70.5q61 0 104 -31t43 -86q0 -31 -19 -52.5t-53 -21.5q-30 0 -45.5 16t-15.5 42q0 30 17 49.5t42 23.5q-25 28 -71 28q-62 0 -99.5 -60t-49.5 -168q-3 -28 -3 -54q0 -77 27.5 -124.5t85.5 -47.5 q53 0 87.5 36t48.5 91l33 -7q-44 -158 -187 -158z" horiz-adv-x="467" unicode="c"/>
<glyph glyph-name="d" d="M247 40q52 0 88 61t48 152q2 10 5 42q1 8 1 25q0 75 -28.5 117t-76.5 42q-51 0 -86.5 -63t-44.5 -163q-3 -30 -3 -55q0 -158 97 -158zM469 -11q-85 0 -85 94q0 16 1 25q0 1 3 26t3 26q-48 -171 -185 -171q-75 0 -119.5 59t-44.5 164q0 13 2 43q10 110 76 184t165 74 q82 0 121 -74l27 278h-83l4 32q155 0 172 11l14 -10l-74 -654q-1 -9 -1 -23q0 -45 30 -45q23 0 38 28.5t23 95.5h31q-12 -88 -35.5 -125.5t-82.5 -37.5z" horiz-adv-x="607" unicode="d"/>
<glyph glyph-name="e" d="M140 256q190 4 197 140v6q0 35 -16.5 56.5t-48.5 21.5q-51 0 -86 -60t-46 -164zM220 -11q-89 0 -139 60.5t-50 157.5q0 27 2 41q13 123 83 194t165 71q70 0 113 -34t43 -88v-5q-3 -78 -81.5 -120t-217.5 -43q-2 -30 -2 -45q0 -151 106 -151q58 0 89.5 31.5t51.5 95.5 l31 -7q-21 -78 -66 -118t-128 -40z" horiz-adv-x="473" unicode="e"/>
<glyph glyph-name="f" d="M-44 -259q-48 0 -82.5 23.5t-34.5 69.5q0 34 19 57.5t54 23.5q28 0 43 -15.5t15 -40.5q0 -31 -19 -50t-53 -21q15 -15 51 -15q87 0 109 160l66 536h-86l4 32h87q9 73 33 126.5t57 82t68 41.5t73 13q48 0 82.5 -23.5t34.5 -69.5q0 -34 -19 -57.5t-55 -23.5q-27 0 -42 15.5 t-15 40.5q0 31 19 50t53 20q-15 16 -51 16q-53 0 -84.5 -38t-42.5 -122l-9 -71h118l-3 -32h-119l-57 -457q-17 -140 -77 -205.5t-137 -65.5z" horiz-adv-x="343" unicode="f"/>
<glyph glyph-name="g" d="M206 -224q79 0 123.5 39t44.5 96q0 28 -10 45.5t-34.5 27t-48.5 13t-69 6.5q-19 0 -35 2q-57 -9 -89.5 -39t-32.5 -81q0 -109 151 -109zM201 -259q-97 0 -165 37.5t-68 101.5q0 52 42 90.5t119 44.5q-87 19 -87 88q0 36 29 64t85 39q-44 19 -70.5 54.5t-26.5 79.5 q0 11 1 17q9 73 68.5 114.5t146.5 41.5q31 0 72 -13h154l-1 -31l-99 3q56 -44 56 -110q0 -11 -1 -17q-9 -72 -68.5 -113.5t-145.5 -41.5q-48 0 -89 -13.5t-42 -42.5q0 -14 7.5 -22.5t26.5 -13t33.5 -6t45.5 -3.5q46 -2 82 -8.5t73 -21t57 -43t20 -70.5q0 -90 -73 -147.5 t-182 -57.5zM245 219q39 0 68.5 31t39.5 101q2 20 2 29q0 50 -24.5 76.5t-59.5 26.5q-88 0 -108 -132q-2 -20 -2 -29q0 -49 25 -76t59 -27z" horiz-adv-x="506" unicode="g"/>
<glyph glyph-name="h" d="M432 -11q-97 0 -97 99q0 8 2 30l29 240q2 22 2 31q0 70 -55 70q-44 0 -82 -50.5t-52 -167.5l-29 -241h-103l89 717h-83l4 32q155 0 174 11l13 -10q-60 -369 -62 -376q24 68 69 103.5t103 35.5q117 0 117 -124q0 -11 -2 -35l-32 -258q-1 -9 -1 -25q0 -43 28 -43 q48 0 64 125h31q-13 -85 -38 -124.5t-89 -39.5z" horiz-adv-x="576" unicode="h"/>
<glyph glyph-name="i" d="M179 -11q-99 0 -99 100q0 9 2 29l42 351h-83l5 32q154 0 173 11l13 -10l-49 -407q-2 -20 -2 -27q0 -40 29 -40q48 0 63 123h31q-12 -84 -37 -123t-88 -39zM185 603q-36 0 -52.5 21.5t-16.5 45.5q0 25 17.5 47t55.5 22q36 0 52.5 -21.5t16.5 -45.5t-18 -46.5t-55 -22.5z " horiz-adv-x="324" unicode="i"/>
<glyph glyph-name="j" d="M-35 -260q-48 0 -79.5 26.5t-31.5 72.5q0 33 18.5 55.5t51.5 22.5q62 0 62 -58q-2 -66 -70 -69q21 -18 48 -18q47 0 69.5 42.5t35.5 144.5l61 510h-87l5 32q157 0 176 11l14 -10l-57 -469q-20 -161 -75.5 -227t-140.5 -66zM190 603q-36 0 -52.5 21.5t-16.5 45.5 q0 25 17.5 47t55.5 22q36 0 52.5 -21.5t16.5 -45.5t-18 -46.5t-55 -22.5z" horiz-adv-x="311" unicode="j"/>
<glyph glyph-name="k" d="M178 220l-28 -220h-103l89 717h-83l4 32q154 0 173 11l14 -10q-53 -371 -54 -380q50 143 166 143q51 0 84.5 -29t33.5 -81q0 -118 -156 -162l111 -208h58l-3 -33h-153l-115 221l3 27q78 7 115 51t37 105q0 63 -55 63q-42 0 -81 -60.5t-57 -186.5z" horiz-adv-x="534" unicode="k"/>
<glyph glyph-name="l" d="M165 -11q-98 0 -98 99q0 8 2 30l74 599h-83l5 32q155 0 172 11l14 -10l-81 -655q-2 -20 -2 -27q0 -40 29 -40q47 0 63 125h31q-12 -85 -37.5 -124.5t-88.5 -39.5z" horiz-adv-x="310" unicode="l"/>
<glyph glyph-name="m" d="M678 -11q-97 0 -97 99q0 8 2 30l30 236q2 24 2 33q0 72 -51 72q-77 0 -105 -161l-38 -298h-104l46 354q3 21 3 39q0 66 -50 66q-43 0 -72 -47t-43 -161l-30 -251h-103l57 469h-82l4 32q139 0 155 11l14 -10l-16 -129q43 140 158 140q46 0 73.5 -26t33.5 -72q44 98 140 98 q111 0 111 -125q0 -24 -2 -37l-30 -255q-2 -22 -2 -28q0 -40 28 -40q48 0 64 123h31q-12 -84 -37.5 -123t-89.5 -39z" horiz-adv-x="822" unicode="m"/>
<glyph glyph-name="n" d="M456 -11q-97 0 -97 99q0 8 2 30l30 237q2 22 2 31q0 73 -59 73q-43 0 -81.5 -53.5t-52.5 -164.5l-29 -241h-103l57 469h-82l4 32q139 0 155 11l14 -10l-18 -141q24 71 70.5 111.5t109.5 40.5q116 0 116 -125q0 -24 -2 -37l-30 -255q-2 -22 -2 -28q0 -40 28 -40 q48 0 64 125h31q-12 -85 -37.5 -124.5t-89.5 -39.5z" horiz-adv-x="600" unicode="n"/>
<glyph glyph-name="o" d="M246 22q69 0 100.5 54t44.5 170q4 36 4 75q0 78 -25 118t-82 40q-69 0 -100.5 -52t-45.5 -168q-4 -36 -4 -76q0 -161 108 -161zM243 -11q-89 0 -149.5 66.5t-60.5 167.5q0 12 2 36q13 116 85.5 185t170.5 69q89 0 149 -65.5t60 -165.5q0 -12 -2 -36 q-12 -116 -84.5 -186.5t-170.5 -70.5z" horiz-adv-x="534" unicode="o"/>
<glyph glyph-name="p" d="M-47 -250l4 33h84l85 686h-83l4 32q139 0 156 11l14 -10l-18 -135q18 65 64 105.5t110 40.5q84 0 132.5 -59.5t48.5 -162.5q0 -11 -2 -37q-11 -115 -74.5 -190t-151.5 -75h-2q-107 1 -146 78l-34 -284h113l-4 -33h-300zM310 25q57 0 90.5 63t42.5 165q2 20 2 55 q0 159 -100 160h-1q-55 0 -93 -57.5t-49 -147.5q0 -3 -1 -13.5t-2 -13.5q-2 -19 -2 -52q0 -84 29 -121t84 -38z" horiz-adv-x="587" unicode="p"/>
<glyph glyph-name="q" d="M241 40q115 0 143 213q0 2 1.5 13.5t2.5 15.5q2 30 2 43q0 73 -26.5 113.5t-73.5 40.5q-55 0 -89 -60.5t-45 -160.5q-4 -44 -4 -62q0 -74 23 -115t66 -41zM509 -250h-300l4 33h114q51 333 53 340q-54 -134 -172 -134q-74 0 -119 59t-45 158q0 24 3 49q13 112 77 185 t168 73q98 0 133 -97l63 97h31l-90 -730h84z" horiz-adv-x="558" unicode="q"/>
<glyph glyph-name="r" d="M68 0l57 469h-82l4 32q139 0 155 11l14 -10l-17 -141q21 72 60 112t88 40q47 0 74.5 -26.5t27.5 -69.5q0 -33 -20 -56t-54 -23q-29 0 -45.5 16t-16.5 43q0 29 16 48t45 21q-13 8 -33 8q-55 0 -92 -68t-50 -175l-28 -231h-103z" horiz-adv-x="455" unicode="r"/>
<glyph glyph-name="s" d="M19 -11l23 180h34q-1 -8 -1 -22q0 -59 33.5 -91.5t81.5 -32.5q51 0 81 22t30 63q0 18 -7.5 32.5t-14.5 23t-28.5 19.5t-28.5 14t-37 15q-54 23 -85 56t-32 90q1 70 48 112.5t122 42.5q69 0 113 -31l23 31h16l-23 -178h-33q2 24 2 33q0 58 -27.5 84.5t-71.5 26.5 q-41 0 -67 -21.5t-26 -58.5q0 -28 16 -49t33 -30.5t53 -25.5q28 -12 46.5 -22.5t38.5 -28t30.5 -42t10.5 -56.5q0 -69 -45 -112.5t-131 -43.5h-4q-77 0 -129 37l-28 -37h-16z" horiz-adv-x="433" unicode="s"/>
<glyph glyph-name="t" d="M176 -11q-107 0 -107 109q0 9 2 31l41 340h-75l4 31q133 0 172 180h28l-22 -179h139l-4 -32h-139l-44 -359q-2 -20 -2 -28q0 -56 38 -56q33 0 52 31.5t31 109.5h32q-14 -97 -45 -137.5t-101 -40.5z" horiz-adv-x="367" unicode="t"/>
<glyph glyph-name="u" d="M201 -11q-60 0 -92 36.5t-32 98.5q0 10 2 32l39 312h-83l4 33q156 0 172 10l14 -10l-43 -349q-2 -22 -2 -31q0 -79 61 -79q50 0 83 57t45 161l25 208h-64l5 33q136 0 152 10l14 -10l-49 -405q-2 -18 -2 -24q0 -44 31 -44q23 0 38 28.5t23 95.5h31q-12 -88 -35.5 -125.5 t-82.5 -37.5q-84 0 -84 93q0 14 1 22q1 4 1.5 11t2 21t2.5 24l1 9q-40 -180 -178 -180z" unicode="u"/>
<glyph glyph-name="v" d="M184 -6l-112 475h-67l4 32h242l-4 -32h-73l73 -329l157 329h-76l4 32h170l-4 -32h-53l-226 -475h-35z" horiz-adv-x="486" unicode="v"/>
<glyph glyph-name="w" d="M180 -6l-108 475h-68l5 32h223l-4 -32h-57l68 -332l107 250l-17 82h-49l4 32h215l-5 -32h-70l63 -327l142 327h-74l5 32h165l-4 -32h-53l-206 -475h-36l-68 334l-143 -334h-35z" horiz-adv-x="697" unicode="w"/>
<glyph glyph-name="x" d="M114 -11q-44 0 -69.5 24.5t-25.5 67.5q0 31 18.5 55.5t54.5 24.5q56 0 56 -56q0 -27 -19.5 -46.5t-51.5 -20.5q13 -18 36 -18q53 0 86 91t35 219v7q0 136 -59 136q-73 0 -97 -126l-33 7q16 76 48 117.5t93 41.5q52 0 79.5 -40.5t30.5 -109.5q25 71 65.5 110.5t91.5 39.5 q44 0 69 -24t25 -68q0 -31 -18 -55.5t-54 -24.5q-57 0 -57 56q0 27 19.5 47t51.5 21q-12 17 -36 17q-52 0 -85 -91t-35 -218v-13q0 -131 58 -131q72 0 98 126l32 -7q-16 -76 -48 -117.5t-93 -41.5q-51 0 -78.5 40.5t-31.5 109.5q-53 -150 -156 -150z" horiz-adv-x="568" unicode="x"/>
<glyph glyph-name="y" d="M200 -259q-61 0 -103 31.5t-42 85.5q0 31 19 52t53 21q29 0 44 -15.5t15 -40.5q0 -29 -17 -49t-42 -24q24 -30 71 -30q72 0 106 50.5t46 147.5q0 3 10 77.5t10 75.5q-47 -123 -171 -123q-58 0 -89.5 32t-31.5 93q0 11 2 33l38 310h-83l4 33q156 0 172 10l14 -10l-42 -346 q-2 -22 -2 -31q0 -71 56 -71q115 0 139 210l25 205h-64l5 33q136 0 152 10l14 -10l-57 -465q-20 -159 -80.5 -227t-170.5 -68z" horiz-adv-x="564" unicode="y"/>
<glyph glyph-name="z" d="M1 0l3 23l323 446h-112q-62 0 -89 -30.5t-35 -92.5l-3 -25h-32l22 180h366l-2 -22l-323 -446h128q62 0 89 31t34 93l3 24h32l-22 -181h-382z" horiz-adv-x="460" unicode="z"/>
<glyph glyph-name="braceleft" d="M247 -260q-105 0 -147.5 37.5t-42.5 103.5q0 49 28.5 152.5t28.5 139.5q0 78 -87 78l3 24q66 0 88.5 36.5t22.5 106.5q0 18 -1.5 58.5t-1.5 60.5q0 39 4.5 68.5t18.5 61t39 51.5t69 33t104 13l-4 -24q-49 0 -75.5 -24.5t-34 -64.5t-9 -88.5t-4.5 -98.5t-15 -92.5 t-48 -72.5t-96 -36q121 -15 121 -140q0 -46 -20.5 -142.5t-20.5 -132.5q0 -87 83 -87z" horiz-adv-x="342" unicode="{"/>
<glyph glyph-name="bar" d="M14 -250l140 1140h47l-140 -1140h-47z" horiz-adv-x="211" unicode="|"/>
<glyph glyph-name="braceright" d="M-45 -260l3 24q47 0 72.5 25.5t33 67t8.5 92t5.5 102.5t17.5 96.5t50 76.5t98 39q-116 13 -116 129q0 43 19.5 134t19.5 126q0 88 -88 88l3 24q107 0 150 -36t43 -100q0 -47 -28 -145.5t-28 -133.5q0 -36 19.5 -55t66.5 -19l-3 -24q-36 0 -59.5 -12t-34.5 -35.5t-15 -49 t-4 -63.5q0 -16 1 -51t1 -53q0 -43 -4 -74.5t-18 -66t-39 -56t-69 -36t-105 -14.5z" horiz-adv-x="340" unicode="}"/>
<glyph glyph-name="asciitilde" d="M338 220q-36 0 -67 18.5t-48.5 40.5t-40.5 40.5t-46 18.5q-70 0 -80 -111h-36q11 79 43 120.5t97 41.5q38 0 69.5 -18.5t49 -40.5t41.5 -40.5t48 -18.5q63 0 73 110h36q-12 -83 -39.5 -122t-99.5 -39z" horiz-adv-x="496" unicode="~"/>
<glyph glyph-name="exclamdown" d="M173 496q-12 -95 -12 -187q0 -61 6 -136t6 -90q0 -13 -1 -19q-3 -27 -21.5 -51t-53.5 -24q-30 0 -43.5 20t-13.5 45q0 2 0.5 5.5t0.5 4.5q2 21 21.5 81t43.5 154t37 197h30zM184 701q34 0 48 -18.5t14 -41.5q0 -30 -20.5 -54t-57.5 -24q-34 0 -48.5 19.5t-14.5 43.5 q1 29 22 52t57 23z" horiz-adv-x="268" unicode="¡"/>
<glyph glyph-name="cent" d="M140 253q-3 -29 -3 -54q0 -121 59 -158l55 433q-90 -33 -111 -221zM232 -11h-12l-14 -108h-30l14 112q-76 13 -117.5 71.5t-41.5 143.5q0 26 2 40q12 113 73.5 182.5t149.5 80.5l18 141h30l-18 -139h1q61 0 104 -31t43 -86q0 -31 -19 -52.5t-53 -21.5q-30 0 -45.5 16 t-15.5 42q0 30 17 49.5t42 23.5q-25 28 -71 28h-7l-57 -451q12 -3 25 -3q53 0 87.5 36t48.5 91l33 -7q-44 -158 -187 -158z" horiz-adv-x="467" unicode="¢"/>
<glyph glyph-name="sterling" d="M14 -7l-15 26q98 58 143 100.5t52 97.5q1 6 1 16q0 19 -5 37h-122l5 37h102q-4 8 -16.5 30t-19 35.5t-12.5 39t-6 53.5q0 24 2 38q11 88 65.5 143t143.5 55q68 0 113 -35t45 -92q0 -7 -2 -21q-6 -30 -24 -49.5t-46 -19.5q-61 0 -61 54v7q4 62 73 74q-22 51 -102 51 q-58 0 -90 -31.5t-38 -77.5q-1 -8 -1 -21q0 -33 12.5 -60.5t27.5 -45.5t27.5 -48.5t12.5 -67.5v-11h129l-5 -37h-128q-14 -105 -155 -202q54 26 106 26q22 0 73.5 -17t77.5 -17q31 0 47.5 21.5t23.5 80.5l33 -3q-10 -90 -36.5 -128t-103.5 -38q-48 0 -111.5 20.5t-97.5 20.5 q-56 0 -118 -41z" horiz-adv-x="546" unicode="£"/>
<glyph glyph-name="yen" d="M123 0l4 33h88l22 182h-146l5 32h144l9 67h-144l4 32h127l-126 311h-70l4 33h286l-4 -33h-101l117 -289l179 289h-87l5 33h199l-4 -33h-69l-193 -311h134l-5 -32h-144l-9 -67h144l-5 -32h-142l-23 -182h88l-4 -33h-283z" horiz-adv-x="573" unicode="¥"/>
<glyph glyph-name="section" d="M180 -260q-73 0 -118 34t-45 95q0 14 1 21q4 31 23.5 49t48.5 18q62 0 62 -56q0 -1 -0.5 -5t-0.5 -5q-8 -56 -73 -69q20 -49 99 -49q56 0 84.5 29.5t32.5 72.5q2 18 2 27q0 51 -27.5 86.5t-66 57.5t-77.5 44t-66.5 59t-27.5 89q0 8 2 28q11 85 87 136q-21 39 -21 88 q0 16 3 36q8 73 65 124t139 51q69 0 112 -34.5t43 -94.5q0 -12 -1 -19q-4 -31 -23 -49.5t-48 -18.5q-30 0 -46 15t-16 40q0 2 0.5 5.5t0.5 5.5q8 58 73 69q-21 48 -93 48q-57 0 -90.5 -32t-38.5 -76q-1 -8 -1 -23q0 -48 28 -83.5t68 -59.5t80 -48.5t68 -62.5t28 -89 q0 -15 -1 -24q-11 -92 -93 -144q18 -38 18 -82q0 -8 -2 -30q-9 -73 -59 -123.5t-133 -50.5zM340 56q34 31 40 71q1 5 1 14q0 38 -29 68t-66.5 48t-82 49.5t-67.5 68.5q-31 -28 -36 -62q-1 -5 -1 -13q0 -38 29 -69t66 -50t80.5 -52.5t65.5 -72.5z" horiz-adv-x="503" unicode="§"/>
<glyph glyph-name="dieresis" d="M345 604q-32 0 -46 18.5t-14 41.5v6q2 25 21 47t55 22q32 0 46 -18t14 -41v-8q-2 -23 -21.5 -45.5t-54.5 -22.5zM147 604q-32 0 -46 18.5t-14 41.5v6q2 25 21 47t56 22q31 0 45 -18t14 -41v-8q-1 -23 -20.5 -45.5t-55.5 -22.5z" horiz-adv-x="437" unicode="¨"/>
<glyph glyph-name="copyright" d="M380 125q-78 0 -122 58t-44 135q0 11 2 31q12 83 74.5 153.5t145.5 70.5q45 0 85 -21l27 21h15l-20 -147h-24q1 10 1 27q0 96 -81 96q-57 0 -94 -44.5t-47 -155.5q-5 -31 -5 -68q0 -131 91 -131q56 0 83.5 32.5t38.5 90.5h23l-21 -147h-15l-20 28q-48 -29 -93 -29z M366 20q143 0 234 90t111 240q4 34 4 50q0 119 -75 191.5t-191 72.5q-134 0 -232 -87t-114 -227q-4 -24 -4 -52q0 -119 75 -198.5t192 -79.5zM365 -11q-144 0 -225 85.5t-81 224.5q0 26 3 51q16 151 129 251t259 100q135 0 221 -83.5t86 -214.5q0 -29 -4 -53 q-16 -152 -122.5 -256.5t-265.5 -104.5z" horiz-adv-x="801" unicode="©"/>
<glyph glyph-name="ordfeminine" d="M192 522q32 0 48.5 28t23.5 80q4 25 4 49q0 60 -43 61q-31 0 -46 -28t-22 -82q-3 -27 -3 -47q0 -61 38 -61zM177 490q-41 0 -68 31t-27 83q0 16 1 24q6 55 45 94.5t95 39.5q50 0 69 -46l39 46h19l-26 -219v-6q0 -19 15 -19q22 0 35 57h22q-8 -42 -24 -63.5t-47 -21.5 q-26 0 -44 15.5t-18 39.5q0 1 0.5 4t0.5 4q-28 -63 -87 -63z" horiz-adv-x="382" unicode="ª"/>
<glyph glyph-name="guillemotleft" d="M421 64l-191 188l3 22l234 166l-4 -32l-125 -145l86 -172zM243 25l-216 226l4 24l267 204l-4 -32l-150 -184l102 -211z" horiz-adv-x="505" unicode="«"/>
<glyph glyph-name="logicalnot" d="M427 149l17 143h-400l6 44h447l-23 -187h-47z" horiz-adv-x="556" unicode="¬"/>
<glyph glyph-name="registered" d="M286 466h10q33 0 55 15t25 42q0 1 0.5 4t0.5 5q0 42 -61 42h-15zM394 321q-13 0 -21.5 4t-12.5 7.5t-7 15.5t-3.5 17.5t-1.5 23.5q-1 31 -13.5 44.5t-38.5 14.5h-12l-14 -101h37l-4 -19h-116l2 19h33l31 227h-36l3 19h98q108 0 108 -60q0 -1 -0.5 -5t-0.5 -5 q-4 -23 -30 -40.5t-62 -25.5q40 -13 51.5 -26.5t13.5 -39.5q2 -47 14 -47q15 0 20 41h15q-4 -32 -15 -48t-38 -16zM287 224q93 0 159.5 62.5t78.5 167.5q2 13 2 37q0 85 -48.5 135t-135.5 50q-93 0 -161 -62t-78 -160q-3 -21 -3 -42q0 -83 49.5 -135.5t136.5 -52.5zM286 199 q-96 0 -156.5 61.5t-60.5 154.5q0 19 3 39q10 105 88.5 176t182.5 71q102 0 159.5 -58t57.5 -150q0 -19 -3 -39q-14 -116 -89.5 -185.5t-181.5 -69.5z" horiz-adv-x="594" unicode="®"/>
<glyph glyph-name="macron" d="M81 675l5 42h244l-5 -42h-244z" horiz-adv-x="312" unicode="¯"/>
<glyph glyph-name="degree" d="M188 535q26 0 42.5 18.5t18.5 45.5v7q0 22 -12.5 36.5t-34.5 14.5q-24 0 -41 -17t-19 -41q0 -2 -0.5 -5.5t-0.5 -5.5q0 -24 12 -38.5t35 -14.5zM181 492q-42 0 -66 26t-24 66q0 11 1 16q5 42 38 71t78 29q44 0 68 -24t24 -63q0 -2 -0.5 -6t-0.5 -7q-5 -47 -34.5 -77.5 t-83.5 -30.5z" horiz-adv-x="317" unicode="°"/>
<glyph glyph-name="plusminus" d="M13 121l7 44h372l-7 -44h-372zM187 209l19 158h-162l7 45h162l19 159h48l-19 -159h162l-7 -45h-162l-19 -158h-48z" horiz-adv-x="443" unicode="±"/>
<glyph glyph-name="uni00B2" d="M171 843q-1 -6 -1 -16q0 -30 17.5 -45.5t46.5 -15.5q31 0 54 19.5t28 57.5q1 4 1 13q0 32 -18 48t-47 16q-31 0 -53.5 -19.5t-27.5 -57.5zM341 520h-275l2 22q22 20 58.5 54t52 48.5t39.5 37t35.5 35t24.5 26.5t22 26q-25 -32 -72 -32q-53 0 -90.5 25t-37.5 69q0 9 1 13 q6 48 54 76.5t111 28.5q54 0 87.5 -24.5t33.5 -67.5q0 -9 -1 -13q-6 -46 -54 -95q-17 -17 -74.5 -71.5t-99.5 -96.5h93q43 0 60.5 8t23.5 33l9 38h28z" horiz-adv-x="356" unicode="²"/>
<glyph glyph-name="uni00B3" d="M191 514q-65 0 -95.5 27.5t-30.5 67.5q0 2 0.5 6t0.5 6q2 18 16 31t35 13q19 0 29 -9.5t10 -23.5q0 -1 -0.5 -3t-0.5 -3q-3 -39 -52 -39q15 -42 82 -42q82 0 94 99q1 8 1 22q0 42 -19.5 61t-49.5 19q-21 0 -41 -13l-11 15l136 134h-71q-52 0 -67.5 -9.5t-19.5 -42.5 l-3 -19h-28l17 133h254l-2 -20l-145 -148q125 -20 125 -114q0 -12 -1 -18q-6 -50 -48 -90t-115 -40z" horiz-adv-x="337" unicode="³"/>
<glyph glyph-name="acute" d="M33 590l103 131q21 27 60 27h67q25 0 25 -11q0 -10 -23 -24l-202 -123h-30z" horiz-adv-x="517" unicode="´"/>
<glyph glyph-name="uni00B5" d="M454 96q-2 -18 -2 -24q0 -44 32 -44q45 0 60 124h31q-12 -88 -35.5 -125.5t-82.5 -37.5q-84 0 -84 93q0 14 1 22q1 4 1.5 11t2 21t2.5 24l1 9q-18 -85 -62.5 -132.5t-115.5 -47.5q-64 0 -97 42q-1 -21 -1 -54q0 -49 5 -85t5 -47q0 -22 -15.5 -39t-42.5 -17q-30 0 -43 16 t-13 34q0 19 13.5 47.5t33.5 97t33 173.5l39 311h-83l4 33q156 0 172 10l14 -10l-43 -349q-2 -22 -2 -31q0 -79 61 -79q50 0 83 57t45 161l25 208h-64l5 33q136 0 152 10l14 -10z" horiz-adv-x="595" unicode="µ"/>
<glyph glyph-name="paragraph" d="M266 -217h81l108 874h-84zM124 -250l4 33h94l59 488q-115 0 -171.5 53.5t-56.5 128.5q0 19 2 29q7 82 75.5 145t194.5 63h263l-5 -33h-84l-107 -874h84l-4 -33h-348z" horiz-adv-x="580" unicode="¶"/>
<glyph glyph-name="periodcentered" d="M119 227q-36 0 -50 20t-14 45q1 29 22.5 53t58.5 24q34 0 49 -19t15 -43q0 -31 -21.5 -55.5t-59.5 -24.5z" horiz-adv-x="255" unicode="·"/>
<glyph glyph-name="cedilla" d="M183 -206q-76 0 -103 42l17 18q17 -27 63 -27q50 0 56 42q0 1 0.5 4t0.5 5q0 43 -75 43l-6 9l59 77h35l-46 -56q46 0 80.5 -18.5t34.5 -56.5q0 -1 -0.5 -4.5t-0.5 -4.5q-5 -35 -37 -54t-78 -19z" horiz-adv-x="486" unicode="¸"/>
<glyph glyph-name="uni00B9" d="M284 520h-231l3 30h81l43 341h-81l3 29q110 0 144 38l18 -8q-11 -17 -16 -68l-42 -332h81z" horiz-adv-x="268" unicode="¹"/>
<glyph glyph-name="ordmasculine" d="M205 519q69 0 81 110q2 24 2 32q0 79 -55 79q-39 0 -57 -27.5t-24 -82.5q-2 -32 -2 -42q0 -37 12 -53t43 -16zM198 490q-48 0 -82 33.5t-34 91.5q0 3 0.5 8t0.5 7q9 60 53.5 96.5t96.5 36.5q49 0 85.5 -33t36.5 -87q0 -3 -0.5 -7t-0.5 -7q-9 -63 -56 -101t-100 -38z" horiz-adv-x="355" unicode="º"/>
<glyph glyph-name="guillemotright" d="M28 64l3 27l128 172l-89 145l3 32l195 -166l-4 -22zM197 25l3 27l152 211l-104 184l4 32l218 -204l-3 -24z" horiz-adv-x="506" unicode="»"/>
<glyph glyph-name="questiondown" d="M237 514q48 0 76 -28t28 -72q0 -36 -16 -67t-40.5 -51.5t-53 -42.5t-53 -41t-40.5 -46.5t-16 -58.5q0 -86 89 -86q60 0 92 37q-54 14 -54 59q0 31 18.5 53t56.5 22q57 0 57 -66q-1 -51 -53.5 -94t-133.5 -43q-72 0 -116 36t-44 99q0 48 24 86t58 63t67.5 48t57.5 52.5 t24 65.5q0 19 -11.5 30t-29.5 11q-25 0 -43 -16.5t-18 -42.5t16 -49l-20 -15q-29 22 -29 61q0 38 28.5 67t78.5 29zM275 701q35 0 49 -19.5t14 -43.5q-1 -28 -22 -51.5t-57 -23.5q-34 0 -48.5 19.5t-14.5 43.5q1 29 22 52t57 23z" horiz-adv-x="415" unicode="¿"/>
<glyph glyph-name="Agrave" d="M-57 0l4 33h64l311 667h36l146 -667h68l-4 -33h-300l4 33h118l-46 215h-195l-100 -215h118l-5 -33h-219zM164 280h173l-55 254zM366 742l-182 94q-15 9 -15 20q0 16 28 16h87q26 0 45 -29l68 -101h-31z" horiz-adv-x="583" unicode="À"/>
<glyph glyph-name="Aacute" d="M-57 0l4 33h64l311 667h36l146 -667h68l-4 -33h-300l4 33h118l-46 215h-195l-100 -215h118l-5 -33h-219zM164 280h173l-55 254zM325 740l86 103q21 27 60 27h75q26 0 26 -11q0 -10 -24 -24l-193 -95h-30z" horiz-adv-x="583" unicode="Á"/>
<glyph glyph-name="Acircumflex" d="M-57 0l4 33h64l311 667h36l146 -667h68l-4 -33h-300l4 33h118l-46 215h-195l-100 -215h118l-5 -33h-219zM164 280h173l-55 254zM198 737l157 171h28l108 -171h-24l-109 76l-130 -76h-30z" horiz-adv-x="583" unicode="Â"/>
<glyph glyph-name="Atilde" d="M-57 0l4 33h64l311 667h36l146 -667h68l-4 -33h-300l4 33h118l-46 215h-195l-100 -215h118l-5 -33h-219zM164 280h173l-55 254zM420 756q-33 0 -60 19t-49.5 38.5t-44.5 19.5q-53 0 -55 -70h-24q2 51 27.5 89t74.5 38q30 0 54 -11t37 -24.5t31 -24.5t38 -11 q27 0 37.5 16.5t17.5 47.5h23q-17 -127 -107 -127z" horiz-adv-x="583" unicode="Ã"/>
<glyph glyph-name="Adieresis" d="M-57 0l4 33h64l311 667h36l146 -667h68l-4 -33h-300l4 33h118l-46 215h-195l-100 -215h118l-5 -33h-219zM164 280h173l-55 254zM445 755q-32 0 -46 18.5t-14 41.5v6q2 25 21 47t55 22q32 0 46 -18t14 -41v-8q-2 -23 -21.5 -45.5t-54.5 -22.5zM247 755q-32 0 -46 18.5 t-14 41.5v6q2 25 21 47t56 22q31 0 45 -18t14 -41v-8q-1 -23 -20.5 -45.5t-55.5 -22.5z" horiz-adv-x="583" unicode="Ä"/>
<glyph glyph-name="Aring" d="M-57 0l4 33h64l311 667h36l146 -667h68l-4 -33h-300l4 33h118l-46 215h-195l-100 -215h118l-5 -33h-219zM164 280h173l-55 254zM356 781q40 0 46 42q1 4 1 12q0 35 -36 35q-25 0 -36.5 -15.5t-11.5 -35.5q0 -15 9 -26.5t28 -11.5zM353 743q-41 0 -59 20t-18 50q0 2 0.5 6 t0.5 6q3 29 26 56.5t70 27.5q39 0 56 -21.5t17 -50.5q0 -10 -1 -14q-5 -31 -26.5 -55.5t-65.5 -24.5z" horiz-adv-x="583" unicode="Å"/>
<glyph glyph-name="AE" d="M-81 0l4 33h66l446 624h-111l4 33h489l-27 -220h-32l4 42q3 22 3 40q0 59 -33 82t-107 23h-78l-33 -272h122l10 76h38l-24 -195h-38l11 86h-124l-39 -319h117q81 0 112 36t42 119l5 36h32l-28 -224h-510l4 33h118l24 188h-223l-136 -188h116l-4 -33h-220zM186 254h203 l43 340z" horiz-adv-x="836" unicode="Æ"/>
<glyph glyph-name="Ccedilla" d="M273 -206q-76 0 -103 42l17 18q17 -27 63 -27q50 0 56 42q0 1 0.5 4t0.5 5q0 43 -75 43l-6 9l46 60q-77 6 -131.5 54.5t-77.5 113.5t-23 140q0 24 3 48q11 84 54 163.5t119.5 135.5t166.5 56q82 0 129 -37l45 36h17l-28 -230h-32q3 24 3 46q0 151 -133 151 q-87 0 -144 -73t-79 -248q-7 -55 -7 -104q0 -219 151 -219q83 0 127.5 55.5t56.5 145.5h32l-29 -234h-17l-36 38q-64 -37 -134 -39l-31 -38q46 0 80.5 -18.5t34.5 -56.5q0 -1 -0.5 -4.5t-0.5 -4.5q-5 -35 -37 -54t-78 -19z" horiz-adv-x="588" unicode="Ç"/>
<glyph glyph-name="Egrave" d="M6 0l4 33h82l76 624h-81l4 33h468l-27 -220h-32l4 42q3 22 3 40q0 59 -33 82t-107 23h-91l-35 -290h135l10 77h38l-24 -195h-38l10 86h-136l-36 -302h128q42 0 70.5 9.5t45.5 30.5t25.5 47.5t13.5 67.5l5 36h32l-28 -224h-486zM342 742l-182 94q-15 9 -15 20q0 16 28 16 h87q26 0 45 -29l68 -101h-31z" horiz-adv-x="578" unicode="È"/>
<glyph glyph-name="Eacute" d="M6 0l4 33h82l76 624h-81l4 33h468l-27 -220h-32l4 42q3 22 3 40q0 59 -33 82t-107 23h-91l-35 -290h135l10 77h38l-24 -195h-38l10 86h-136l-36 -302h128q42 0 70.5 9.5t45.5 30.5t25.5 47.5t13.5 67.5l5 36h32l-28 -224h-486zM309 740l86 103q21 27 60 27h75 q26 0 26 -11q0 -10 -24 -24l-193 -95h-30z" horiz-adv-x="578" unicode="É"/>
<glyph glyph-name="Ecircumflex" d="M6 0l4 33h82l76 624h-81l4 33h468l-27 -220h-32l4 42q3 22 3 40q0 59 -33 82t-107 23h-91l-35 -290h135l10 77h38l-24 -195h-38l10 86h-136l-36 -302h128q42 0 70.5 9.5t45.5 30.5t25.5 47.5t13.5 67.5l5 36h32l-28 -224h-486zM199 737l157 171h28l108 -171h-24l-109 76 l-130 -76h-30z" horiz-adv-x="578" unicode="Ê"/>
<glyph glyph-name="Edieresis" d="M6 0l4 33h82l76 624h-81l4 33h468l-27 -220h-32l4 42q3 22 3 40q0 59 -33 82t-107 23h-91l-35 -290h135l10 77h38l-24 -195h-38l10 86h-136l-36 -302h128q42 0 70.5 9.5t45.5 30.5t25.5 47.5t13.5 67.5l5 36h32l-28 -224h-486zM442 755q-32 0 -46 18.5t-14 41.5v6 q2 25 21 47t55 22q32 0 46 -18t14 -41v-8q-2 -23 -21.5 -45.5t-54.5 -22.5zM244 755q-32 0 -46 18.5t-14 41.5v6q2 25 21 47t56 22q31 0 45 -18t14 -41v-8q-1 -23 -20.5 -45.5t-55.5 -22.5z" horiz-adv-x="578" unicode="Ë"/>
<glyph glyph-name="Igrave" d="M6 0l4 33h86l77 624h-86l4 33h280l-4 -33h-86l-77 -624h86l-4 -33h-280zM246 742l-182 94q-15 9 -15 20q0 16 28 16h87q26 0 45 -29l68 -101h-31z" horiz-adv-x="364" unicode="Ì"/>
<glyph glyph-name="Iacute" d="M6 0l4 33h86l77 624h-86l4 33h280l-4 -33h-86l-77 -624h86l-4 -33h-280zM218 740l86 103q21 27 60 27h75q26 0 26 -11q0 -10 -24 -24l-193 -95h-30z" horiz-adv-x="364" unicode="Í"/>
<glyph glyph-name="Icircumflex" d="M6 0l4 33h86l77 624h-86l4 33h280l-4 -33h-86l-77 -624h86l-4 -33h-280zM96 737l157 171h28l108 -171h-24l-109 76l-130 -76h-30z" horiz-adv-x="364" unicode="Î"/>
<glyph glyph-name="Idieresis" d="M6 0l4 33h86l77 624h-86l4 33h280l-4 -33h-86l-77 -624h86l-4 -33h-280zM340 755q-32 0 -46 18.5t-14 41.5v6q2 25 21 47t55 22q32 0 46 -18t14 -41v-8q-2 -23 -21.5 -45.5t-54.5 -22.5zM142 755q-32 0 -46 18.5t-14 41.5v6q2 25 21 47t56 22q31 0 45 -18t14 -41v-8 q-1 -23 -20.5 -45.5t-55.5 -22.5z" horiz-adv-x="364" unicode="Ï"/>
<glyph glyph-name="Ntilde" d="M6 0l4 33h82l76 624h-81l4 33h179l266 -495l57 462h-88l5 33h211l-4 -33h-82l-81 -666h-37l-316 590l-66 -548h87l-4 -33h-212zM499 757q-26 0 -49 12t-37 26.5t-32 26.5t-36 12q-53 0 -55 -70h-24q2 51 27.5 89t74.5 38q30 0 54 -11t37 -24.5t31 -24.5t38 -11 q27 0 37.5 16.5t17.5 47.5h23q-17 -127 -107 -127z" horiz-adv-x="706" unicode="Ñ"/>
<glyph glyph-name="Ograve" d="M293 22q83 0 136 74t74 250q8 60 8 118q0 110 -35.5 157t-103.5 47q-41 0 -72.5 -15.5t-59.5 -51.5t-48 -99.5t-31 -155.5q-8 -69 -8 -114q0 -112 36 -161t104 -49zM289 -11q-52 0 -94.5 17.5t-70.5 47t-47.5 69.5t-28 82.5t-8.5 88.5q0 26 3 52q8 63 33.5 124 t65.5 113.5t101.5 85t133.5 32.5q64 0 113.5 -25.5t78 -69t42.5 -95t14 -108.5q0 -19 -4 -57q-8 -63 -32.5 -124t-65 -114.5t-101.5 -86t-133 -32.5zM382 742l-182 94q-15 9 -15 20q0 16 28 16h87q26 0 45 -29l68 -101h-31z" horiz-adv-x="652" unicode="Ò"/>
<glyph glyph-name="Oacute" d="M293 22q83 0 136 74t74 250q8 60 8 118q0 110 -35.5 157t-103.5 47q-41 0 -72.5 -15.5t-59.5 -51.5t-48 -99.5t-31 -155.5q-8 -69 -8 -114q0 -112 36 -161t104 -49zM289 -11q-52 0 -94.5 17.5t-70.5 47t-47.5 69.5t-28 82.5t-8.5 88.5q0 26 3 52q8 63 33.5 124 t65.5 113.5t101.5 85t133.5 32.5q64 0 113.5 -25.5t78 -69t42.5 -95t14 -108.5q0 -19 -4 -57q-8 -63 -32.5 -124t-65 -114.5t-101.5 -86t-133 -32.5zM345 740l86 103q21 27 60 27h75q26 0 26 -11q0 -10 -24 -24l-193 -95h-30z" horiz-adv-x="652" unicode="Ó"/>
<glyph glyph-name="Ocircumflex" d="M293 22q83 0 136 74t74 250q8 60 8 118q0 110 -35.5 157t-103.5 47q-41 0 -72.5 -15.5t-59.5 -51.5t-48 -99.5t-31 -155.5q-8 -69 -8 -114q0 -112 36 -161t104 -49zM289 -11q-52 0 -94.5 17.5t-70.5 47t-47.5 69.5t-28 82.5t-8.5 88.5q0 26 3 52q8 63 33.5 124 t65.5 113.5t101.5 85t133.5 32.5q64 0 113.5 -25.5t78 -69t42.5 -95t14 -108.5q0 -19 -4 -57q-8 -63 -32.5 -124t-65 -114.5t-101.5 -86t-133 -32.5zM246 735l157 171h28l108 -171h-24l-109 76l-130 -76h-30z" horiz-adv-x="652" unicode="Ô"/>
<glyph glyph-name="Otilde" d="M293 22q83 0 136 74t74 250q8 60 8 118q0 110 -35.5 157t-103.5 47q-41 0 -72.5 -15.5t-59.5 -51.5t-48 -99.5t-31 -155.5q-8 -69 -8 -114q0 -112 36 -161t104 -49zM289 -11q-52 0 -94.5 17.5t-70.5 47t-47.5 69.5t-28 82.5t-8.5 88.5q0 26 3 52q8 63 33.5 124 t65.5 113.5t101.5 85t133.5 32.5q64 0 113.5 -25.5t78 -69t42.5 -95t14 -108.5q0 -19 -4 -57q-8 -63 -32.5 -124t-65 -114.5t-101.5 -86t-133 -32.5zM465 756q-33 0 -60 19t-49.5 38.5t-44.5 19.5q-53 0 -55 -70h-24q2 51 27.5 89t74.5 38q30 0 54 -11t37 -24.5t31 -24.5 t38 -11q27 0 37.5 16.5t17.5 47.5h23q-17 -127 -107 -127z" horiz-adv-x="652" unicode="Õ"/>
<glyph glyph-name="Odieresis" d="M293 22q83 0 136 74t74 250q8 60 8 118q0 110 -35.5 157t-103.5 47q-41 0 -72.5 -15.5t-59.5 -51.5t-48 -99.5t-31 -155.5q-8 -69 -8 -114q0 -112 36 -161t104 -49zM289 -11q-52 0 -94.5 17.5t-70.5 47t-47.5 69.5t-28 82.5t-8.5 88.5q0 26 3 52q8 63 33.5 124 t65.5 113.5t101.5 85t133.5 32.5q64 0 113.5 -25.5t78 -69t42.5 -95t14 -108.5q0 -19 -4 -57q-8 -63 -32.5 -124t-65 -114.5t-101.5 -86t-133 -32.5zM488 756q-32 0 -46 18.5t-14 41.5v6q2 25 21 47t55 22q32 0 46 -18t14 -41v-8q-2 -23 -21.5 -45.5t-54.5 -22.5zM290 756 q-32 0 -46 18.5t-14 41.5v6q2 25 21 47t56 22q31 0 45 -18t14 -41v-8q-1 -23 -20.5 -45.5t-55.5 -22.5z" horiz-adv-x="652" unicode="Ö"/>
<glyph glyph-name="multiply" d="M347 138l-127 152l-156 -153l-33 32l159 158l-120 144l37 34l119 -143l146 146l34 -32l-150 -150l130 -154z" horiz-adv-x="446" unicode="×"/>
<glyph glyph-name="Oslash" d="M290 -11q-85 0 -145 47l-57 -82h-48l76 109q-75 85 -75 229q0 27 3 54q8 63 33.5 124t65.5 113.5t101.5 85t133.5 32.5q87 0 149 -49l60 86h48l-80 -114q71 -84 71 -221q0 -19 -4 -57q-8 -63 -32.5 -124t-65 -114.5t-101.5 -86t-133 -32.5zM294 22q83 0 136 74t74 250 q8 61 8 120q0 51 -7 85l-324 -464q34 -65 113 -65zM162 346q-8 -69 -8 -114q0 -56 11 -100l325 466q-33 70 -117 70t-136.5 -72t-74.5 -250z" horiz-adv-x="653" unicode="Ø"/>
<glyph glyph-name="Ugrave" d="M303 -11q-110 0 -160 46.5t-50 140.5q0 17 4 57l53 424h-82l4 33h283l-4 -33h-94l-53 -432q-4 -29 -4 -62q0 -68 28 -104t95 -36q83 0 121.5 52.5t50.5 153.5l52 428h-93l5 33h217l-4 -33h-82l-53 -425q-15 -124 -68.5 -183.5t-165.5 -59.5zM414 742l-182 94 q-15 9 -15 20q0 16 28 16h87q26 0 45 -29l68 -101h-31z" horiz-adv-x="650" unicode="Ù"/>
<glyph glyph-name="Uacute" d="M303 -11q-110 0 -160 46.5t-50 140.5q0 17 4 57l53 424h-82l4 33h283l-4 -33h-94l-53 -432q-4 -29 -4 -62q0 -68 28 -104t95 -36q83 0 121.5 52.5t50.5 153.5l52 428h-93l5 33h217l-4 -33h-82l-53 -425q-15 -124 -68.5 -183.5t-165.5 -59.5zM386 740l86 103q21 27 60 27 h75q26 0 26 -11q0 -10 -24 -24l-193 -95h-30z" horiz-adv-x="650" unicode="Ú"/>
<glyph glyph-name="Ucircumflex" d="M303 -11q-110 0 -160 46.5t-50 140.5q0 17 4 57l53 424h-82l4 33h283l-4 -33h-94l-53 -432q-4 -29 -4 -62q0 -68 28 -104t95 -36q83 0 121.5 52.5t50.5 153.5l52 428h-93l5 33h217l-4 -33h-82l-53 -425q-15 -124 -68.5 -183.5t-165.5 -59.5zM253 737l157 171h28l108 -171 h-24l-109 76l-130 -76h-30z" horiz-adv-x="650" unicode="Û"/>
<glyph glyph-name="Udieresis" d="M303 -11q-110 0 -160 46.5t-50 140.5q0 17 4 57l53 424h-82l4 33h283l-4 -33h-94l-53 -432q-4 -29 -4 -62q0 -68 28 -104t95 -36q83 0 121.5 52.5t50.5 153.5l52 428h-93l5 33h217l-4 -33h-82l-53 -425q-15 -124 -68.5 -183.5t-165.5 -59.5zM503 755q-32 0 -46 18.5 t-14 41.5v6q2 25 21 47t55 22q32 0 46 -18t14 -41v-8q-2 -23 -21.5 -45.5t-54.5 -22.5zM305 755q-32 0 -46 18.5t-14 41.5v6q2 25 21 47t56 22q31 0 45 -18t14 -41v-8q-1 -23 -20.5 -45.5t-55.5 -22.5z" horiz-adv-x="650" unicode="Ü"/>
<glyph glyph-name="Yacute" d="M123 0l4 33h88l34 281l-139 343h-70l4 33h286l-4 -33h-101l117 -289l179 289h-87l5 33h199l-4 -33h-69l-207 -334l-36 -290h88l-4 -33h-283zM360 740l86 103q21 27 60 27h75q26 0 26 -11q0 -10 -24 -24l-193 -95h-30z" horiz-adv-x="573" unicode="Ý"/>
<glyph glyph-name="germandbls" d="M324 -11q-63 0 -91 17l10 27q27 -12 58 -12q51 0 82.5 34.5t39.5 97.5q1 8 1 23q0 38 -17.5 67.5t-38.5 45.5t-38.5 41.5t-17.5 55.5q0 9 1 14q2 21 13 39.5t26 35t30 35t28.5 48t19.5 66.5q3 18 3 33q0 75 -69 75q-54 0 -82 -40.5t-40 -132.5l-69 -559h-102 q42 342 58 467h-91l3 33h92q18 146 82.5 205t164.5 59q74 0 117 -36t43 -88q0 -11 -1 -16q-5 -35 -25 -65t-45 -49.5t-49.5 -36.5t-42 -35.5t-19.5 -37.5v-5q0 -20 18.5 -38t45.5 -33t54 -32.5t45.5 -46t18.5 -64.5q0 -12 -1 -19q-10 -75 -69.5 -124t-145.5 -49z" horiz-adv-x="585" unicode="ß"/>
<glyph glyph-name="agrave" d="M224 40q61 0 98.5 59.5t49.5 153.5q1 5 3 19t2 18q2 30 2 43q0 145 -96 146q-59 0 -94 -60.5t-46 -160.5q-4 -33 -4 -69q0 -149 85 -149zM196 -11q-77 0 -121 57t-44 155q0 25 3 54q12 108 78 183t170 75q94 0 131 -98l69 98h24l-52 -417q-1 -8 -1 -22q0 -46 31 -46 q23 0 37.5 28t23.5 96h31q-12 -88 -36 -125.5t-82 -37.5q-86 0 -86 93q0 8 2 28l6 51q-23 -78 -70 -125t-114 -47zM337 588l-174 125q-14 9 -14 20q0 16 28 16h87q34 0 44 -29l61 -132h-32z" horiz-adv-x="595" unicode="à"/>
<glyph glyph-name="aacute" d="M224 40q61 0 98.5 59.5t49.5 153.5q1 5 3 19t2 18q2 30 2 43q0 145 -96 146q-59 0 -94 -60.5t-46 -160.5q-4 -33 -4 -69q0 -149 85 -149zM196 -11q-77 0 -121 57t-44 155q0 25 3 54q12 108 78 183t170 75q94 0 131 -98l69 98h24l-52 -417q-1 -8 -1 -22q0 -46 31 -46 q23 0 37.5 28t23.5 96h31q-12 -88 -36 -125.5t-82 -37.5q-86 0 -86 93q0 8 2 28l6 51q-23 -78 -70 -125t-114 -47zM313 590l103 131q21 27 60 27h67q25 0 25 -11q0 -10 -23 -24l-202 -123h-30z" horiz-adv-x="595" unicode="á"/>
<glyph glyph-name="acircumflex" d="M224 40q61 0 98.5 59.5t49.5 153.5q1 5 3 19t2 18q2 30 2 43q0 145 -96 146q-59 0 -94 -60.5t-46 -160.5q-4 -33 -4 -69q0 -149 85 -149zM196 -11q-77 0 -121 57t-44 155q0 25 3 54q12 108 78 183t170 75q94 0 131 -98l69 98h24l-52 -417q-1 -8 -1 -22q0 -46 31 -46 q23 0 37.5 28t23.5 96h31q-12 -88 -36 -125.5t-82 -37.5q-86 0 -86 93q0 8 2 28l6 51q-23 -78 -70 -125t-114 -47zM168 581l157 171h28l108 -171h-24l-109 76l-130 -76h-30z" horiz-adv-x="595" unicode="â"/>
<glyph glyph-name="atilde" d="M224 40q61 0 98.5 59.5t49.5 153.5q1 5 3 19t2 18q2 30 2 43q0 145 -96 146q-59 0 -94 -60.5t-46 -160.5q-4 -33 -4 -69q0 -149 85 -149zM196 -11q-77 0 -121 57t-44 155q0 25 3 54q12 108 78 183t170 75q94 0 131 -98l69 98h24l-52 -417q-1 -8 -1 -22q0 -46 31 -46 q23 0 37.5 28t23.5 96h31q-12 -88 -36 -125.5t-82 -37.5q-86 0 -86 93q0 8 2 28l6 51q-23 -78 -70 -125t-114 -47zM398 631q-26 0 -49 12t-37 26.5t-32 26.5t-36 12q-53 0 -55 -70h-24q2 51 27.5 89t74.5 38q30 0 54 -11t37 -24.5t31 -24.5t38 -11q27 0 37.5 16.5t17.5 47.5 h23q-17 -127 -107 -127z" horiz-adv-x="595" unicode="ã"/>
<glyph glyph-name="adieresis" d="M224 40q61 0 98.5 59.5t49.5 153.5q1 5 3 19t2 18q2 30 2 43q0 145 -96 146q-59 0 -94 -60.5t-46 -160.5q-4 -33 -4 -69q0 -149 85 -149zM196 -11q-77 0 -121 57t-44 155q0 25 3 54q12 108 78 183t170 75q94 0 131 -98l69 98h24l-52 -417q-1 -8 -1 -22q0 -46 31 -46 q23 0 37.5 28t23.5 96h31q-12 -88 -36 -125.5t-82 -37.5q-86 0 -86 93q0 8 2 28l6 51q-23 -78 -70 -125t-114 -47zM427 604q-32 0 -46 18.5t-14 41.5v6q2 25 21 47t55 22q32 0 46 -18t14 -41v-8q-2 -23 -21.5 -45.5t-54.5 -22.5zM229 604q-32 0 -46 18.5t-14 41.5v6 q2 25 21 47t56 22q31 0 45 -18t14 -41v-8q-1 -23 -20.5 -45.5t-55.5 -22.5z" horiz-adv-x="595" unicode="ä"/>
<glyph glyph-name="aring" d="M224 40q61 0 98.5 59.5t49.5 153.5q1 5 3 19t2 18q2 30 2 43q0 145 -96 146q-59 0 -94 -60.5t-46 -160.5q-4 -33 -4 -69q0 -149 85 -149zM196 -11q-77 0 -121 57t-44 155q0 25 3 54q12 108 78 183t170 75q94 0 131 -98l69 98h24l-52 -417q-1 -8 -1 -22q0 -46 31 -46 q23 0 37.5 28t23.5 96h31q-12 -88 -36 -125.5t-82 -37.5q-86 0 -86 93q0 8 2 28l6 51q-23 -78 -70 -125t-114 -47zM346 638q40 0 46 42q1 4 1 12q0 35 -36 35q-25 0 -36.5 -15.5t-11.5 -35.5q0 -15 9 -26.5t28 -11.5zM343 600q-41 0 -59 20t-18 50q0 2 0.5 6t0.5 6 q3 29 26 56.5t70 27.5q39 0 56 -21.5t17 -50.5q0 -10 -1 -14q-5 -31 -26.5 -55.5t-65.5 -24.5z" horiz-adv-x="595" unicode="å"/>
<glyph glyph-name="ae" d="M224 40q61 0 98.5 59.5t49.5 153.5q3 15 3 25q3 32 3 58q0 142 -94 143q-60 0 -95 -60t-46 -161q-4 -33 -4 -69q0 -149 85 -149zM501 256q198 4 198 143q0 36 -16.5 58.5t-48.5 22.5q-52 0 -87 -59.5t-46 -164.5zM196 -11q-77 0 -121 57t-44 157q0 25 3 52q12 108 78 183 t170 75q95 0 125 -98l60 98h21l-9 -80q63 80 167 80q68 0 110.5 -34t42.5 -88v-5q-3 -78 -82 -120t-218 -43q-2 -28 -2 -42q0 -154 107 -154q58 0 89 31.5t51 95.5l32 -7q-21 -78 -66 -118t-129 -40q-85 0 -134.5 58.5t-51.5 150.5l-5 1q-18 -95 -68.5 -152.5t-125.5 -57.5z " horiz-adv-x="834" unicode="æ"/>
<glyph glyph-name="ccedilla" d="M193 -206q-76 0 -103 42l17 18q17 -27 63 -27q50 0 56 42q0 1 0.5 4t0.5 5q0 43 -75 43l-6 9l47 62q-77 12 -119.5 71t-42.5 145q0 26 2 40q14 124 84.5 194.5t169.5 70.5q61 0 104 -31t43 -86q0 -31 -19 -52.5t-53 -21.5q-30 0 -45.5 16t-15.5 42q0 30 17 49.5t42 23.5 q-25 28 -71 28q-62 0 -99.5 -60t-49.5 -168q-3 -28 -3 -54q0 -77 27.5 -124.5t85.5 -47.5q53 0 87.5 36t48.5 91l33 -7q-44 -158 -187 -158h-7l-31 -38q46 0 80.5 -18.5t34.5 -56.5q0 -1 -0.5 -4.5t-0.5 -4.5q-5 -35 -37 -54t-78 -19z" horiz-adv-x="467" unicode="ç"/>
<glyph glyph-name="egrave" d="M140 256q190 4 197 140v6q0 35 -16.5 56.5t-48.5 21.5q-51 0 -86 -60t-46 -164zM220 -11q-89 0 -139 60.5t-50 157.5q0 27 2 41q13 123 83 194t165 71q70 0 113 -34t43 -88v-5q-3 -78 -81.5 -120t-217.5 -43q-2 -30 -2 -45q0 -151 106 -151q58 0 89.5 31.5t51.5 95.5 l31 -7q-21 -78 -66 -118t-128 -40zM268 588l-174 125q-14 9 -14 20q0 16 28 16h87q34 0 44 -29l61 -132h-32z" horiz-adv-x="473" unicode="è"/>
<glyph glyph-name="eacute" d="M140 256q190 4 197 140v6q0 35 -16.5 56.5t-48.5 21.5q-51 0 -86 -60t-46 -164zM220 -11q-89 0 -139 60.5t-50 157.5q0 27 2 41q13 123 83 194t165 71q70 0 113 -34t43 -88v-5q-3 -78 -81.5 -120t-217.5 -43q-2 -30 -2 -45q0 -151 106 -151q58 0 89.5 31.5t51.5 95.5 l31 -7q-21 -78 -66 -118t-128 -40zM264 590l103 131q21 27 60 27h67q25 0 25 -11q0 -10 -23 -24l-202 -123h-30z" horiz-adv-x="473" unicode="é"/>
<glyph glyph-name="ecircumflex" d="M140 256q190 4 197 140v6q0 35 -16.5 56.5t-48.5 21.5q-51 0 -86 -60t-46 -164zM220 -11q-89 0 -139 60.5t-50 157.5q0 27 2 41q13 123 83 194t165 71q70 0 113 -34t43 -88v-5q-3 -78 -81.5 -120t-217.5 -43q-2 -30 -2 -45q0 -151 106 -151q58 0 89.5 31.5t51.5 95.5 l31 -7q-21 -78 -66 -118t-128 -40zM146 581l157 171h28l108 -171h-24l-109 76l-130 -76h-30z" horiz-adv-x="473" unicode="ê"/>
<glyph glyph-name="edieresis" d="M140 256q190 4 197 140v6q0 35 -16.5 56.5t-48.5 21.5q-51 0 -86 -60t-46 -164zM220 -11q-89 0 -139 60.5t-50 157.5q0 27 2 41q13 123 83 194t165 71q70 0 113 -34t43 -88v-5q-3 -78 -81.5 -120t-217.5 -43q-2 -30 -2 -45q0 -151 106 -151q58 0 89.5 31.5t51.5 95.5 l31 -7q-21 -78 -66 -118t-128 -40zM388 602q-32 0 -46 18.5t-14 41.5v6q2 25 21 47t55 22q32 0 46 -18t14 -41v-8q-2 -23 -21.5 -45.5t-54.5 -22.5zM190 602q-32 0 -46 18.5t-14 41.5v6q2 25 21 47t56 22q31 0 45 -18t14 -41v-8q-1 -23 -20.5 -45.5t-55.5 -22.5z" horiz-adv-x="473" unicode="ë"/>
<glyph glyph-name="igrave" d="M179 -11q-99 0 -99 100q0 9 2 29l42 351h-83l5 32q154 0 173 11l13 -10l-49 -407q-2 -20 -2 -27q0 -40 29 -40q48 0 63 123h31q-12 -84 -37 -123t-88 -39zM204 588l-174 125q-14 9 -14 20q0 16 28 16h87q34 0 44 -29l61 -132h-32z" horiz-adv-x="324" unicode="ì"/>
<glyph glyph-name="iacute" d="M179 -11q-99 0 -99 100q0 9 2 29l42 351h-83l5 32q154 0 173 11l13 -10l-49 -407q-2 -20 -2 -27q0 -40 29 -40q48 0 63 123h31q-12 -84 -37 -123t-88 -39zM153 590l103 131q21 27 60 27h67q25 0 25 -11q0 -10 -23 -24l-202 -123h-30z" horiz-adv-x="324" unicode="í"/>
<glyph glyph-name="icircumflex" d="M179 -11q-99 0 -99 100q0 9 2 29l42 351h-83l5 32q154 0 173 11l13 -10l-49 -407q-2 -20 -2 -27q0 -40 29 -40q48 0 63 123h31q-12 -84 -37 -123t-88 -39zM43 581l157 171h28l108 -171h-24l-109 76l-130 -76h-30z" horiz-adv-x="324" unicode="î"/>
<glyph glyph-name="idieresis" d="M179 -11q-99 0 -99 100q0 9 2 29l42 351h-83l5 32q154 0 173 11l13 -10l-49 -407q-2 -20 -2 -27q0 -40 29 -40q48 0 63 123h31q-12 -84 -37 -123t-88 -39zM287 604q-32 0 -46 18.5t-14 41.5v6q2 25 21 47t55 22q32 0 46 -18t14 -41v-8q-2 -23 -21.5 -45.5t-54.5 -22.5z M89 604q-32 0 -46 18.5t-14 41.5v6q2 25 21 47t56 22q31 0 45 -18t14 -41v-8q-1 -23 -20.5 -45.5t-55.5 -22.5z" horiz-adv-x="324" unicode="ï"/>
<glyph glyph-name="ntilde" d="M456 -11q-97 0 -97 99q0 8 2 30l30 237q2 22 2 31q0 73 -59 73q-43 0 -81.5 -53.5t-52.5 -164.5l-29 -241h-103l57 469h-82l4 32q139 0 155 11l14 -10l-18 -141q24 71 70.5 111.5t109.5 40.5q116 0 116 -125q0 -24 -2 -37l-30 -255q-2 -22 -2 -28q0 -40 28 -40 q48 0 64 125h31q-12 -85 -37.5 -124.5t-89.5 -39.5zM411 631q-26 0 -49 12t-37 26.5t-32 26.5t-36 12q-53 0 -55 -70h-24q2 51 27.5 89t74.5 38q30 0 54 -11t37 -24.5t31 -24.5t38 -11q27 0 37.5 16.5t17.5 47.5h23q-17 -127 -107 -127z" horiz-adv-x="600" unicode="ñ"/>
<glyph glyph-name="ograve" d="M246 22q69 0 100.5 54t44.5 170q4 36 4 75q0 78 -25 118t-82 40q-69 0 -100.5 -52t-45.5 -168q-4 -36 -4 -76q0 -161 108 -161zM243 -11q-89 0 -149.5 66.5t-60.5 167.5q0 12 2 36q13 116 85.5 185t170.5 69q89 0 149 -65.5t60 -165.5q0 -12 -2 -36 q-12 -116 -84.5 -186.5t-170.5 -70.5zM286 588l-174 125q-14 9 -14 20q0 16 28 16h87q34 0 44 -29l61 -132h-32z" horiz-adv-x="534" unicode="ò"/>
<glyph glyph-name="oacute" d="M246 22q69 0 100.5 54t44.5 170q4 36 4 75q0 78 -25 118t-82 40q-69 0 -100.5 -52t-45.5 -168q-4 -36 -4 -76q0 -161 108 -161zM243 -11q-89 0 -149.5 66.5t-60.5 167.5q0 12 2 36q13 116 85.5 185t170.5 69q89 0 149 -65.5t60 -165.5q0 -12 -2 -36 q-12 -116 -84.5 -186.5t-170.5 -70.5zM278 590l103 131q21 27 60 27h67q25 0 25 -11q0 -10 -23 -24l-202 -123h-30z" horiz-adv-x="534" unicode="ó"/>
<glyph glyph-name="ocircumflex" d="M246 22q69 0 100.5 54t44.5 170q4 36 4 75q0 78 -25 118t-82 40q-69 0 -100.5 -52t-45.5 -168q-4 -36 -4 -76q0 -161 108 -161zM243 -11q-89 0 -149.5 66.5t-60.5 167.5q0 12 2 36q13 116 85.5 185t170.5 69q89 0 149 -65.5t60 -165.5q0 -12 -2 -36 q-12 -116 -84.5 -186.5t-170.5 -70.5zM155 581l157 171h28l108 -171h-24l-109 76l-130 -76h-30z" horiz-adv-x="534" unicode="ô"/>
<glyph glyph-name="otilde" d="M246 22q69 0 100.5 54t44.5 170q4 36 4 75q0 78 -25 118t-82 40q-69 0 -100.5 -52t-45.5 -168q-4 -36 -4 -76q0 -161 108 -161zM243 -11q-89 0 -149.5 66.5t-60.5 167.5q0 12 2 36q13 116 85.5 185t170.5 69q89 0 149 -65.5t60 -165.5q0 -12 -2 -36 q-12 -116 -84.5 -186.5t-170.5 -70.5zM384 631q-26 0 -49 12t-37 26.5t-32 26.5t-36 12q-53 0 -55 -70h-24q2 51 27.5 89t74.5 38q30 0 54 -11t37 -24.5t31 -24.5t38 -11q27 0 37.5 16.5t17.5 47.5h23q-17 -127 -107 -127z" horiz-adv-x="534" unicode="õ"/>
<glyph glyph-name="odieresis" d="M246 22q69 0 100.5 54t44.5 170q4 36 4 75q0 78 -25 118t-82 40q-69 0 -100.5 -52t-45.5 -168q-4 -36 -4 -76q0 -161 108 -161zM243 -11q-89 0 -149.5 66.5t-60.5 167.5q0 12 2 36q13 116 85.5 185t170.5 69q89 0 149 -65.5t60 -165.5q0 -12 -2 -36 q-12 -116 -84.5 -186.5t-170.5 -70.5zM405 604q-32 0 -46 18.5t-14 41.5v6q2 25 21 47t55 22q32 0 46 -18t14 -41v-8q-2 -23 -21.5 -45.5t-54.5 -22.5zM207 604q-32 0 -46 18.5t-14 41.5v6q2 25 21 47t56 22q31 0 45 -18t14 -41v-8q-1 -23 -20.5 -45.5t-55.5 -22.5z" horiz-adv-x="534" unicode="ö"/>
<glyph glyph-name="divide" d="M229 80q-46 0 -46 48q0 19 15 37.5t43 18.5q46 0 46 -48q0 -19 -15 -37.5t-43 -18.5zM34 286l6 45h446l-6 -45h-446zM276 426q-46 0 -46 48q0 20 15 38.5t43 18.5q46 0 46 -49q0 -19 -15 -37.5t-43 -18.5z" horiz-adv-x="516" unicode="÷"/>
<glyph glyph-name="oslash" d="M243 -11q-62 0 -114 36l-50 -71h-44l66 94q-68 66 -68 175q0 12 2 36q13 116 85.5 185t170.5 69q62 0 115 -35l58 82h44l-75 -105q67 -67 67 -173q0 -12 -2 -36q-12 -116 -84.5 -186.5t-170.5 -70.5zM246 22q69 0 100.5 54t44.5 170q4 36 4 75t-6 71l-229 -324 q27 -46 86 -46zM142 259q-4 -36 -4 -75q0 -46 7 -75l229 324q-26 46 -86 46q-69 0 -100.5 -52t-45.5 -168z" horiz-adv-x="534" unicode="ø"/>
<glyph glyph-name="ugrave" d="M201 -11q-60 0 -92 36.5t-32 98.5q0 10 2 32l39 312h-83l4 33q156 0 172 10l14 -10l-43 -349q-2 -22 -2 -31q0 -79 61 -79q50 0 83 57t45 161l25 208h-64l5 33q136 0 152 10l14 -10l-49 -405q-2 -18 -2 -24q0 -44 31 -44q23 0 38 28.5t23 95.5h31q-12 -88 -35.5 -125.5 t-82.5 -37.5q-84 0 -84 93q0 14 1 22q1 4 1.5 11t2 21t2.5 24l1 9q-40 -180 -178 -180zM288 588l-174 125q-14 9 -14 20q0 16 28 16h87q34 0 44 -29l61 -132h-32z" unicode="ù"/>
<glyph glyph-name="uacute" d="M201 -11q-60 0 -92 36.5t-32 98.5q0 10 2 32l39 312h-83l4 33q156 0 172 10l14 -10l-43 -349q-2 -22 -2 -31q0 -79 61 -79q50 0 83 57t45 161l25 208h-64l5 33q136 0 152 10l14 -10l-49 -405q-2 -18 -2 -24q0 -44 31 -44q23 0 38 28.5t23 95.5h31q-12 -88 -35.5 -125.5 t-82.5 -37.5q-84 0 -84 93q0 14 1 22q1 4 1.5 11t2 21t2.5 24l1 9q-40 -180 -178 -180zM286 590l103 131q21 27 60 27h67q25 0 25 -11q0 -10 -23 -24l-202 -123h-30z" unicode="ú"/>
<glyph glyph-name="ucircumflex" d="M201 -11q-60 0 -92 36.5t-32 98.5q0 10 2 32l39 312h-83l4 33q156 0 172 10l14 -10l-43 -349q-2 -22 -2 -31q0 -79 61 -79q50 0 83 57t45 161l25 208h-64l5 33q136 0 152 10l14 -10l-49 -405q-2 -18 -2 -24q0 -44 31 -44q23 0 38 28.5t23 95.5h31q-12 -88 -35.5 -125.5 t-82.5 -37.5q-84 0 -84 93q0 14 1 22q1 4 1.5 11t2 21t2.5 24l1 9q-40 -180 -178 -180zM174 581l157 171h28l108 -171h-24l-109 76l-130 -76h-30z" unicode="û"/>
<glyph glyph-name="udieresis" d="M201 -11q-60 0 -92 36.5t-32 98.5q0 10 2 32l39 312h-83l4 33q156 0 172 10l14 -10l-43 -349q-2 -22 -2 -31q0 -79 61 -79q50 0 83 57t45 161l25 208h-64l5 33q136 0 152 10l14 -10l-49 -405q-2 -18 -2 -24q0 -44 31 -44q23 0 38 28.5t23 95.5h31q-12 -88 -35.5 -125.5 t-82.5 -37.5q-84 0 -84 93q0 14 1 22q1 4 1.5 11t2 21t2.5 24l1 9q-40 -180 -178 -180zM421 604q-32 0 -46 18.5t-14 41.5v6q2 25 21 47t55 22q32 0 46 -18t14 -41v-8q-2 -23 -21.5 -45.5t-54.5 -22.5zM223 604q-32 0 -46 18.5t-14 41.5v6q2 25 21 47t56 22q31 0 45 -18 t14 -41v-8q-1 -23 -20.5 -45.5t-55.5 -22.5z" unicode="ü"/>
<glyph glyph-name="yacute" d="M200 -259q-61 0 -103 31.5t-42 85.5q0 31 19 52t53 21q29 0 44 -15.5t15 -40.5q0 -29 -17 -49t-42 -24q24 -30 71 -30q72 0 106 50.5t46 147.5q0 3 10 77.5t10 75.5q-47 -123 -171 -123q-58 0 -89.5 32t-31.5 93q0 11 2 33l38 310h-83l4 33q156 0 172 10l14 -10l-42 -346 q-2 -22 -2 -31q0 -71 56 -71q115 0 139 210l25 205h-64l5 33q136 0 152 10l14 -10l-57 -465q-20 -159 -80.5 -227t-170.5 -68zM295 600l103 131q21 27 60 27h67q25 0 25 -11q0 -10 -23 -24l-202 -123h-30z" horiz-adv-x="564" unicode="ý"/>
<glyph glyph-name="ydieresis" d="M200 -259q-61 0 -103 31.5t-42 85.5q0 31 19 52t53 21q29 0 44 -15.5t15 -40.5q0 -29 -17 -49t-42 -24q24 -30 71 -30q72 0 106 50.5t46 147.5q0 3 10 77.5t10 75.5q-47 -123 -171 -123q-58 0 -89.5 32t-31.5 93q0 11 2 33l38 310h-83l4 33q156 0 172 10l14 -10l-42 -346 q-2 -22 -2 -31q0 -71 56 -71q115 0 139 210l25 205h-64l5 33q136 0 152 10l14 -10l-57 -465q-20 -159 -80.5 -227t-170.5 -68zM424 604q-32 0 -46 18.5t-14 41.5v6q2 25 21 47t55 22q32 0 46 -18t14 -41v-8q-2 -23 -21.5 -45.5t-54.5 -22.5zM226 604q-32 0 -46 18.5 t-14 41.5v6q2 25 21 47t56 22q31 0 45 -18t14 -41v-8q-1 -23 -20.5 -45.5t-55.5 -22.5z" horiz-adv-x="564" unicode="ÿ"/>
<glyph glyph-name="Amacron" d="M-57 0l4 33h64l311 667h36l146 -667h68l-4 -33h-300l4 33h118l-46 215h-195l-100 -215h118l-5 -33h-219zM164 280h173l-55 254zM232 799l5 42h244l-5 -42h-244z" horiz-adv-x="583" unicode="Ā"/>
<glyph glyph-name="amacron" d="M224 40q61 0 98.5 59.5t49.5 153.5q1 5 3 19t2 18q2 30 2 43q0 145 -96 146q-59 0 -94 -60.5t-46 -160.5q-4 -33 -4 -69q0 -149 85 -149zM196 -11q-77 0 -121 57t-44 155q0 25 3 54q12 108 78 183t170 75q94 0 131 -98l69 98h24l-52 -417q-1 -8 -1 -22q0 -46 31 -46 q23 0 37.5 28t23.5 96h31q-12 -88 -36 -125.5t-82 -37.5q-86 0 -86 93q0 8 2 28l6 51q-23 -78 -70 -125t-114 -47zM226 675l5 42h244l-5 -42h-244z" horiz-adv-x="595" unicode="ā"/>
<glyph glyph-name="Aogonek" d="M628 -101q-32 -38 -96 -38q-44 0 -70.5 18t-26.5 50q0 1 0.5 4.5t0.5 4.5q6 44 56 62h-224l4 33h118l-46 215h-195l-100 -215h118l-5 -33h-219l4 33h64l311 667h36l146 -667h68l-4 -33q-25 0 -42.5 -14.5t-20.5 -39.5v-8q0 -21 14.5 -33.5t41.5 -12.5q33 0 56 21z M164 280h173l-55 254z" horiz-adv-x="583" unicode="Ą"/>
<glyph glyph-name="aogonek" d="M224 40q52 0 87 45t52 120q6 24 10 58q6 40 6 74q0 141 -96 142q-59 0 -94 -60.5t-46 -160.5q-4 -33 -4 -69q0 -149 85 -149zM484 -139q-43 0 -68.5 15.5t-25.5 44.5q0 48 60 70q-78 12 -78 92q0 7 2 27l6 51q-23 -78 -70 -125t-114 -47q-77 0 -121 57t-44 155q0 25 3 54 q12 108 78 183t170 75q94 0 131 -98l69 98h24l-52 -417q-1 -8 -1 -22q0 -46 31 -46q23 0 37.5 28t23.5 96h31q-10 -70 -26.5 -106.5t-50.5 -50.5q-38 -14 -38 -58q0 -21 15 -33t41 -12q34 0 57 21l9 -14q-34 -38 -99 -38z" horiz-adv-x="595" unicode="ą"/>
<glyph glyph-name="Cacute" d="M296 -11q-65 0 -115.5 27t-80.5 72t-45 98.5t-15 111.5q0 24 3 48q11 84 54 163.5t119.5 135.5t166.5 56q82 0 129 -37l45 36h17l-28 -230h-32q3 24 3 46q0 151 -133 151q-87 0 -144 -73t-79 -248q-7 -55 -7 -104q0 -219 151 -219q83 0 127.5 55.5t56.5 145.5h32 l-29 -234h-17l-36 38q-68 -39 -143 -39zM349 740l86 103q21 27 60 27h75q26 0 26 -11q0 -10 -24 -24l-193 -95h-30z" horiz-adv-x="588" unicode="Ć"/>
<glyph glyph-name="cacute" d="M232 -11q-94 0 -147.5 61t-53.5 157q0 27 2 41q14 124 84.5 194.5t169.5 70.5q61 0 104 -31t43 -86q0 -31 -19 -52.5t-53 -21.5q-30 0 -45.5 16t-15.5 42q0 30 17 49.5t42 23.5q-25 28 -71 28q-62 0 -99.5 -60t-49.5 -168q-3 -28 -3 -54q0 -77 27.5 -124.5t85.5 -47.5 q53 0 87.5 36t48.5 91l33 -7q-44 -158 -187 -158zM244 590l103 131q21 27 60 27h67q25 0 25 -11q0 -10 -23 -24l-202 -123h-30z" horiz-adv-x="467" unicode="ć"/>
<glyph glyph-name="Ccaron" d="M296 -11q-65 0 -115.5 27t-80.5 72t-45 98.5t-15 111.5q0 24 3 48q11 84 54 163.5t119.5 135.5t166.5 56q82 0 129 -37l45 36h17l-28 -230h-32q3 24 3 46q0 151 -133 151q-87 0 -144 -73t-79 -248q-7 -55 -7 -104q0 -219 151 -219q83 0 127.5 55.5t56.5 145.5h32 l-29 -234h-17l-36 38q-68 -39 -143 -39zM379 754l-121 171h30l116 -76l124 76h23l-144 -171h-28z" horiz-adv-x="588" unicode="Č"/>
<glyph glyph-name="ccaron" d="M232 -11q-94 0 -147.5 61t-53.5 157q0 27 2 41q14 124 84.5 194.5t169.5 70.5q61 0 104 -31t43 -86q0 -31 -19 -52.5t-53 -21.5q-30 0 -45.5 16t-15.5 42q0 30 17 49.5t42 23.5q-25 28 -71 28q-62 0 -99.5 -60t-49.5 -168q-3 -28 -3 -54q0 -77 27.5 -124.5t85.5 -47.5 q53 0 87.5 36t48.5 91l33 -7q-44 -158 -187 -158zM275 581l-121 171h30l116 -76l124 76h23l-144 -171h-28z" horiz-adv-x="467" unicode="č"/>
<glyph glyph-name="Dcaron" d="M200 33h49q50 0 93.5 15t83.5 48.5t68 97t39 152.5q5 47 5 76q0 67 -17.5 114.5t-48.5 73t-67 36.5t-80 11h-49zM6 0l4 33h82l76 624h-81l4 33h260q95 0 166.5 -45.5t104.5 -113t33 -144.5q0 -21 -3 -41q-8 -61 -38.5 -121.5t-79 -111t-119 -82t-149.5 -31.5h-260z M376 754l-121 171h30l116 -76l124 76h23l-144 -171h-28z" horiz-adv-x="683" unicode="Ď"/>
<glyph glyph-name="dcaron" d="M247 40q52 0 88 61t48 152q2 10 5 42q1 8 1 25q0 75 -28.5 117t-76.5 42q-51 0 -86.5 -63t-44.5 -163q-3 -30 -3 -55q0 -158 97 -158zM469 -11q-85 0 -85 94q0 16 1 25q0 1 3 26t3 26q-48 -171 -185 -171q-75 0 -119.5 59t-44.5 164q0 13 2 43q10 110 76 184t165 74 q82 0 121 -74l27 278h-83l4 32q155 0 172 11l14 -10l-74 -654q-1 -9 -1 -23q0 -45 30 -45q23 0 38 28.5t23 95.5h31q-12 -88 -35.5 -125.5t-82.5 -37.5zM606 516l-18 24q25 15 50.5 42.5t32.5 58.5q-7 -6 -21 -6q-23 0 -40.5 16.5t-17.5 41.5q0 27 18 50t52 23q61 0 61 -67 q0 -58 -34 -107.5t-83 -75.5z" horiz-adv-x="685" unicode="ď"/>
<glyph glyph-name="Emacron" d="M6 0l4 33h82l76 624h-81l4 33h468l-27 -220h-32l4 42q3 22 3 40q0 59 -33 82t-107 23h-91l-35 -290h135l10 77h38l-24 -195h-38l10 86h-136l-36 -302h128q42 0 70.5 9.5t45.5 30.5t25.5 47.5t13.5 67.5l5 36h32l-28 -224h-486zM233 799l5 42h244l-5 -42h-244z" horiz-adv-x="578" unicode="Ē"/>
<glyph glyph-name="emacron" d="M140 256q190 4 197 140v6q0 35 -16.5 56.5t-48.5 21.5q-51 0 -86 -60t-46 -164zM220 -11q-89 0 -139 60.5t-50 157.5q0 27 2 41q13 123 83 194t165 71q70 0 113 -34t43 -88v-5q-3 -78 -81.5 -120t-217.5 -43q-2 -30 -2 -45q0 -151 106 -151q58 0 89.5 31.5t51.5 95.5 l31 -7q-21 -78 -66 -118t-128 -40zM179 675l5 42h244l-5 -42h-244z" horiz-adv-x="473" unicode="ē"/>
<glyph glyph-name="Edotaccent" d="M6 0l4 33h82l76 624h-81l4 33h468l-27 -220h-32l4 42q3 22 3 40q0 59 -33 82t-107 23h-91l-35 -290h135l10 77h38l-24 -195h-38l10 86h-136l-36 -302h128q42 0 70.5 9.5t45.5 30.5t25.5 47.5t13.5 67.5l5 36h32l-28 -224h-486zM353 772q-34 0 -48.5 18.5t-14.5 42.5v6 q2 25 22 47t57 22q34 0 48.5 -18.5t14.5 -42.5v-6q-2 -24 -22 -46.5t-57 -22.5z" horiz-adv-x="578" unicode="Ė"/>
<glyph glyph-name="edotaccent" d="M140 256q190 4 197 140v6q0 35 -16.5 56.5t-48.5 21.5q-51 0 -86 -60t-46 -164zM220 -11q-89 0 -139 60.5t-50 157.5q0 27 2 41q13 123 83 194t165 71q70 0 113 -34t43 -88v-5q-3 -78 -81.5 -120t-217.5 -43q-2 -30 -2 -45q0 -151 106 -151q58 0 89.5 31.5t51.5 95.5 l31 -7q-21 -78 -66 -118t-128 -40zM304 603q-34 0 -48 18.5t-14 41.5v6q2 25 22 47t56 22q34 0 48.5 -18.5t14.5 -42.5v-6q-2 -23 -22 -45.5t-57 -22.5z" horiz-adv-x="473" unicode="ė"/>
<glyph glyph-name="Eogonek" d="M544 -101q-32 -38 -96 -38q-44 0 -70.5 18t-26.5 50q0 1 0.5 4.5t0.5 4.5q6 44 56 62h-402l4 33h82l76 624h-81l4 33h468l-27 -220h-32l4 42q3 22 3 40q0 59 -33 82t-107 23h-91l-35 -290h135l10 77h38l-24 -195h-38l10 86h-136l-36 -302h128q42 0 70.5 9.5t45.5 30.5 t25.5 47.5t13.5 67.5l5 36h32l-28 -224h-8q-25 0 -42.5 -14.5t-20.5 -39.5v-8q0 -21 14.5 -33.5t41.5 -12.5q33 0 56 21z" horiz-adv-x="578" unicode="Ę"/>
<glyph glyph-name="eogonek" d="M140 256q190 4 197 140v6q0 35 -16.5 56.5t-48.5 21.5q-51 0 -86 -60t-46 -164zM297 -139q-44 0 -70 16.5t-26 49.5v8q3 38 62 57q-21 -3 -43 -3q-89 0 -139 60.5t-50 157.5q0 27 2 41q13 123 83 194t165 71q70 0 113 -34t43 -88v-5q-3 -78 -81.5 -120t-217.5 -43 q-2 -30 -2 -45q0 -151 106 -151q58 0 89.5 31.5t51.5 95.5l31 -7q-10 -43 -29 -74.5t-38.5 -46.5t-37.5 -27.5t-29 -26.5t-11 -34q0 -21 14.5 -33.5t41.5 -12.5q34 0 57 21l11 -14q-32 -38 -96 -38z" horiz-adv-x="473" unicode="ę"/>
<glyph glyph-name="Ecaron" d="M6 0l4 33h82l76 624h-81l4 33h468l-27 -220h-32l4 42q3 22 3 40q0 59 -33 82t-107 23h-91l-35 -290h135l10 77h38l-24 -195h-38l10 86h-136l-36 -302h128q42 0 70.5 9.5t45.5 30.5t25.5 47.5t13.5 67.5l5 36h32l-28 -224h-486zM324 754l-121 171h30l116 -76l124 76h23 l-144 -171h-28z" horiz-adv-x="578" unicode="Ě"/>
<glyph glyph-name="ecaron" d="M140 256q190 4 197 140v6q0 35 -16.5 56.5t-48.5 21.5q-51 0 -86 -60t-46 -164zM220 -11q-89 0 -139 60.5t-50 157.5q0 27 2 41q13 123 83 194t165 71q70 0 113 -34t43 -88v-5q-3 -78 -81.5 -120t-217.5 -43q-2 -30 -2 -45q0 -151 106 -151q58 0 89.5 31.5t51.5 95.5 l31 -7q-21 -78 -66 -118t-128 -40zM272 581l-121 171h30l116 -76l124 76h23l-144 -171h-28z" horiz-adv-x="473" unicode="ě"/>
<glyph glyph-name="uni0122" d="M242 -306l-18 24q25 15 50.5 42.5t32.5 58.5q-7 -6 -21 -6q-23 0 -40.5 16.5t-17.5 41.5q0 27 18 50t52 23q61 0 61 -67q0 -58 -34 -107.5t-83 -75.5zM296 -11q-65 0 -115.5 27t-80.5 72t-45 98.5t-15 111.5q0 24 3 48q8 62 36.5 124t71.5 114t106 84.5t132 32.5 q87 0 133 -38l45 37h17l-28 -230h-32q3 24 3 45q0 152 -137 152q-89 0 -148 -73t-81 -248q-7 -55 -7 -104q0 -219 151 -219q61 0 103 31l29 248h-94l4 33h275l-4 -33h-75l-38 -312h-20l-43 37q-66 -38 -146 -38z" horiz-adv-x="637" unicode="Ģ"/>
<glyph glyph-name="uni0123" d="M206 -224q79 0 123.5 39t44.5 96q0 28 -10 45.5t-34.5 27t-48.5 13t-69 6.5q-19 0 -35 2q-57 -9 -89.5 -39t-32.5 -81q0 -109 151 -109zM201 -259q-97 0 -165 37.5t-68 101.5q0 52 42 90.5t119 44.5q-87 19 -87 88q0 36 29 64t85 39q-44 19 -70.5 54.5t-26.5 79.5 q0 11 1 17q9 73 68.5 114.5t146.5 41.5q31 0 72 -13h154l-1 -31l-99 3q56 -44 56 -110q0 -11 -1 -17q-9 -72 -68.5 -113.5t-145.5 -41.5q-48 0 -89 -13.5t-42 -42.5q0 -14 7.5 -22.5t26.5 -13t33.5 -6t45.5 -3.5q46 -2 82 -8.5t73 -21t57 -43t20 -70.5q0 -90 -73 -147.5 t-182 -57.5zM245 219q39 0 68.5 31t39.5 101q2 20 2 29q0 50 -24.5 76.5t-59.5 26.5q-88 0 -108 -132q-2 -20 -2 -29q0 -49 25 -76t59 -27zM366 843l18 -24q-25 -15 -50.5 -42.5t-32.5 -58.5q7 6 21 6q23 0 40.5 -16.5t17.5 -41.5q0 -27 -18 -50t-52 -23q-61 0 -61 67 q0 58 34 107.5t83 75.5z" horiz-adv-x="506" unicode="ģ"/>
<glyph glyph-name="Imacron" d="M6 0l4 33h86l77 624h-86l4 33h280l-4 -33h-86l-77 -624h86l-4 -33h-280zM120 799l5 42h244l-5 -42h-244z" horiz-adv-x="364" unicode="Ī"/>
<glyph glyph-name="imacron" d="M179 -11q-99 0 -99 100q0 9 2 29l42 351h-83l5 32q154 0 173 11l13 -10l-49 -407q-2 -20 -2 -27q0 -40 29 -40q48 0 63 123h31q-12 -84 -37 -123t-88 -39zM84 675l5 42h244l-5 -42h-244z" horiz-adv-x="324" unicode="ī"/>
<glyph glyph-name="Iogonek" d="M346 -101q-32 -38 -96 -38q-44 0 -70.5 18t-26.5 50q0 1 0.5 4.5t0.5 4.5q6 44 56 62h-204l4 33h86l77 624h-86l4 33h280l-4 -33h-86l-77 -624h86l-4 -33q-25 0 -42.5 -14.5t-20.5 -39.5v-8q0 -21 14.5 -33.5t41.5 -12.5q33 0 56 21z" horiz-adv-x="364" unicode="Į"/>
<glyph glyph-name="iogonek" d="M212 -139q-45 0 -71.5 17t-26.5 49q0 1 0.5 4t0.5 5q4 36 47 54q-82 11 -82 99q0 9 2 29l42 351h-83l5 32q154 0 173 11l13 -10l-49 -407q-2 -20 -2 -27q0 -40 29 -40q48 0 63 123h31q-10 -68 -26.5 -103t-56.5 -53q-33 -16 -37 -49v-8q0 -22 15 -34t41 -12q34 0 57 21 l10 -13q-33 -39 -95 -39zM185 603q-36 0 -52.5 21.5t-16.5 45.5q0 25 17.5 47t55.5 22q36 0 52.5 -21.5t16.5 -45.5t-18 -46.5t-55 -22.5z" horiz-adv-x="324" unicode="į"/>
<glyph glyph-name="dotlessi" d="M179 -11q-99 0 -99 100q0 9 2 29l42 351h-83l5 32q154 0 173 11l13 -10l-49 -407q-2 -20 -2 -27q0 -40 29 -40q48 0 63 123h31q-12 -84 -37 -123t-88 -39z" horiz-adv-x="324" unicode="ı"/>
<glyph glyph-name="IJ" d="M462 -11q-69 0 -103 31.5t-34 86.5q0 8 2 26q4 34 25.5 56t54.5 22q28 0 43 -16t15 -40q0 -7 -1 -11q-7 -66 -88 -69q3 -20 23 -35.5t53 -15.5q61 0 87.5 42.5t40.5 151.5l54 439h-109l4 33h299l-5 -33h-81l-49 -397q-10 -81 -31.5 -136.5t-53.5 -83.5t-66.5 -39.5 t-79.5 -11.5zM6 0l4 33h86l77 624h-86l4 33h280l-4 -33h-86l-77 -624h86l-4 -33h-280z" horiz-adv-x="813" unicode="Ĳ"/>
<glyph glyph-name="ij" d="M262 -260q-48 0 -79.5 26.5t-31.5 72.5q0 33 18.5 55.5t51.5 22.5q62 0 62 -58q-2 -66 -70 -69q21 -18 48 -18q47 0 69.5 42.5t35.5 144.5l61 510h-87l5 32q157 0 176 11l14 -10l-57 -469q-20 -161 -75.5 -227t-140.5 -66zM179 -11q-99 0 -99 100q0 9 2 29l42 351h-83 l5 32q154 0 173 11l13 -10l-49 -407q-2 -20 -2 -27q0 -40 29 -40q48 0 63 123h31q-12 -84 -37 -123t-88 -39zM185 603q-36 0 -52.5 21.5t-16.5 45.5q0 25 17.5 47t55.5 22q36 0 52.5 -21.5t16.5 -45.5t-18 -46.5t-55 -22.5zM487 603q-36 0 -52.5 21.5t-16.5 45.5 q0 25 17.5 47t55.5 22q36 0 52.5 -21.5t16.5 -45.5t-18 -46.5t-55 -22.5z" horiz-adv-x="605" unicode="ĳ"/>
<glyph glyph-name="uni0136" d="M253 -306l-18 24q25 15 50.5 42.5t32.5 58.5q-8 -6 -21 -6q-23 0 -40.5 16.5t-17.5 41.5q0 27 18 50t52 23q61 0 61 -67q0 -58 -34 -107.5t-83 -75.5zM6 0l4 33h82l76 624h-81l4 33h277l-4 -33h-88l-42 -342l294 342h-90l4 33h228l-4 -33h-91l-203 -238l200 -386h51 l-4 -33h-245l4 33h67l-156 299l-61 -73l-28 -226h75l-5 -33h-264z" horiz-adv-x="655" unicode="Ķ"/>
<glyph glyph-name="uni0137" d="M177 -306l-18 24q25 15 50.5 42.5t32.5 58.5q-7 -6 -21 -6q-23 0 -40.5 16.5t-17.5 41.5q0 27 18 50t52 23q61 0 61 -67q0 -58 -34 -107.5t-83 -75.5zM178 220l-28 -220h-103l89 717h-83l4 32q154 0 173 11l14 -10q-53 -371 -54 -380q50 143 166 143q51 0 84.5 -29 t33.5 -81q0 -118 -156 -162l111 -208h58l-3 -33h-153l-115 221l3 27q78 7 115 51t37 105q0 63 -55 63q-42 0 -81 -60.5t-57 -186.5z" horiz-adv-x="534" unicode="ķ"/>
<glyph glyph-name="Lacute" d="M6 0l4 33h82l76 624h-81l4 33h298l-4 -33h-109l-76 -624h118q42 0 70.5 9.5t45.5 30.5t25.5 47.5t13.5 67.5l5 36h32l-28 -224h-476zM196 740l86 103q21 27 60 27h75q26 0 26 -11q0 -10 -24 -24l-193 -95h-30z" horiz-adv-x="541" unicode="Ĺ"/>
<glyph glyph-name="lacute" d="M165 -11q-98 0 -98 99q0 8 2 30l74 599h-83l5 32q155 0 172 11l14 -10l-81 -655q-2 -20 -2 -27q0 -40 29 -40q47 0 63 125h31q-12 -85 -37.5 -124.5t-88.5 -39.5zM183 797l86 103q21 27 60 27h75q26 0 26 -11q0 -10 -24 -24l-193 -95h-30z" horiz-adv-x="310" unicode="ĺ"/>
<glyph glyph-name="uni013B" d="M195 -306l-18 24q25 15 50.5 42.5t32.5 58.5q-8 -6 -21 -6q-23 0 -40.5 16.5t-17.5 41.5q0 27 18 50t52 23q61 0 61 -67q0 -58 -34 -107.5t-83 -75.5zM6 0l4 33h82l76 624h-81l4 33h298l-4 -33h-109l-76 -624h118q42 0 70.5 9.5t45.5 30.5t25.5 47.5t13.5 67.5l5 36h32 l-28 -224h-476z" horiz-adv-x="541" unicode="Ļ"/>
<glyph glyph-name="uni013C" d="M86 -306l-18 24q25 15 50.5 42.5t32.5 58.5q-7 -6 -21 -6q-23 0 -40.5 16.5t-17.5 41.5q0 27 18 50t52 23q61 0 61 -67q0 -58 -34 -107.5t-83 -75.5zM165 -11q-98 0 -98 99q0 8 2 30l74 599h-83l5 32q155 0 172 11l14 -10l-81 -655q-2 -20 -2 -27q0 -40 29 -40 q47 0 63 125h31q-12 -85 -37.5 -124.5t-88.5 -39.5z" horiz-adv-x="310" unicode="ļ"/>
<glyph glyph-name="Lcaron" d="M6 0l4 33h82l76 624h-81l4 33h298l-4 -33h-109l-76 -624h118q42 0 70.5 9.5t45.5 30.5t25.5 47.5t13.5 67.5l5 36h32l-28 -224h-476zM454 452l-18 24q25 15 50.5 42.5t32.5 58.5q-7 -6 -21 -6q-23 0 -40.5 16.5t-17.5 41.5q0 27 18 50t52 23q61 0 61 -67 q0 -58 -34 -107.5t-83 -75.5z" horiz-adv-x="552" unicode="Ľ"/>
<glyph glyph-name="lcaron" d="M165 -11q-98 0 -98 99q0 8 2 30l74 599h-83l5 32q155 0 172 11l14 -10l-81 -655q-2 -20 -2 -27q0 -40 29 -40q47 0 63 125h31q-12 -85 -37.5 -124.5t-88.5 -39.5zM309 513l-18 24q25 15 50.5 42.5t32.5 58.5q-8 -6 -21 -6q-23 0 -40.5 16.5t-17.5 41.5q0 27 18 50t52 23 q61 0 61 -67q0 -58 -34 -107.5t-83 -75.5z" horiz-adv-x="396" unicode="ľ"/>
<glyph glyph-name="Lslash" d="M491 0h-476l4 33h82l25 206l-99 -99l7 56l99 99l44 362h-82l5 33h298l-4 -33h-109l-31 -247l129 127l-8 -56l-127 -127l-39 -321h118q42 0 70.5 9.5t45.5 30.5t25.5 47.5t13.5 67.5l4 36h33z" horiz-adv-x="552" unicode="Ł"/>
<glyph glyph-name="lslash" d="M185 -11q-98 0 -98 99q0 8 2 30l19 152l-104 -110l6 56l105 110l48 391h-83l5 32q155 0 172 11l14 -10l-38 -304l109 115l-7 -56l-109 -115l-36 -295q-2 -20 -2 -27q0 -40 29 -40q47 0 63 125h31q-12 -85 -37.5 -124.5t-88.5 -39.5z" horiz-adv-x="347" unicode="ł"/>
<glyph glyph-name="Nacute" d="M6 0l4 33h82l76 624h-81l4 33h179l266 -495l57 462h-88l5 33h211l-4 -33h-82l-81 -666h-37l-316 590l-66 -548h87l-4 -33h-212zM376 740l86 103q21 27 60 27h75q26 0 26 -11q0 -10 -24 -24l-193 -95h-30z" horiz-adv-x="706" unicode="Ń"/>
<glyph glyph-name="nacute" d="M456 -11q-97 0 -97 99q0 8 2 30l30 237q2 22 2 31q0 73 -59 73q-43 0 -81.5 -53.5t-52.5 -164.5l-29 -241h-103l57 469h-82l4 32q139 0 155 11l14 -10l-18 -141q24 71 70.5 111.5t109.5 40.5q116 0 116 -125q0 -24 -2 -37l-30 -255q-2 -22 -2 -28q0 -40 28 -40 q48 0 64 125h31q-12 -85 -37.5 -124.5t-89.5 -39.5zM278 590l103 131q21 27 60 27h67q25 0 25 -11q0 -10 -23 -24l-202 -123h-30z" horiz-adv-x="600" unicode="ń"/>
<glyph glyph-name="uni0145" d="M268 -306l-18 24q25 15 50.5 42.5t32.5 58.5q-7 -6 -21 -6q-23 0 -40.5 16.5t-17.5 41.5q0 27 18 50t52 23q61 0 61 -67q0 -58 -34 -107.5t-83 -75.5zM6 0l4 33h82l76 624h-81l4 33h179l266 -495l57 462h-88l5 33h211l-4 -33h-82l-81 -666h-37l-316 590l-66 -548h87 l-4 -33h-212z" horiz-adv-x="706" unicode="Ņ"/>
<glyph glyph-name="uni0146" d="M216 -306l-18 24q25 15 50.5 42.5t32.5 58.5q-7 -6 -21 -6q-23 0 -40.5 16.5t-17.5 41.5q0 27 18 50t52 23q61 0 61 -67q0 -58 -34 -107.5t-83 -75.5zM456 -11q-97 0 -97 99q0 8 2 30l30 237q2 22 2 31q0 73 -59 73q-43 0 -81.5 -53.5t-52.5 -164.5l-29 -241h-103l57 469 h-82l4 32q139 0 155 11l14 -10l-18 -141q24 71 70.5 111.5t109.5 40.5q116 0 116 -125q0 -24 -2 -37l-30 -255q-2 -22 -2 -28q0 -40 28 -40q48 0 64 125h31q-12 -85 -37.5 -124.5t-89.5 -39.5z" horiz-adv-x="600" unicode="ņ"/>
<glyph glyph-name="Ncaron" d="M6 0l4 33h82l76 624h-81l4 33h179l266 -495l57 462h-88l5 33h211l-4 -33h-82l-81 -666h-37l-316 590l-66 -548h87l-4 -33h-212zM386 754l-121 171h30l116 -76l124 76h23l-144 -171h-28z" horiz-adv-x="706" unicode="Ň"/>
<glyph glyph-name="ncaron" d="M456 -11q-97 0 -97 99q0 8 2 30l30 237q2 22 2 31q0 73 -59 73q-43 0 -81.5 -53.5t-52.5 -164.5l-29 -241h-103l57 469h-82l4 32q139 0 155 11l14 -10l-18 -141q24 71 70.5 111.5t109.5 40.5q116 0 116 -125q0 -24 -2 -37l-30 -255q-2 -22 -2 -28q0 -40 28 -40 q48 0 64 125h31q-12 -85 -37.5 -124.5t-89.5 -39.5zM314 581l-121 171h30l116 -76l124 76h23l-144 -171h-28z" horiz-adv-x="600" unicode="ň"/>
<glyph glyph-name="Omacron" d="M293 22q83 0 136 74t74 250q8 60 8 118q0 110 -35.5 157t-103.5 47q-41 0 -72.5 -15.5t-59.5 -51.5t-48 -99.5t-31 -155.5q-8 -69 -8 -114q0 -112 36 -161t104 -49zM289 -11q-52 0 -94.5 17.5t-70.5 47t-47.5 69.5t-28 82.5t-8.5 88.5q0 26 3 52q8 63 33.5 124 t65.5 113.5t101.5 85t133.5 32.5q64 0 113.5 -25.5t78 -69t42.5 -95t14 -108.5q0 -19 -4 -57q-8 -63 -32.5 -124t-65 -114.5t-101.5 -86t-133 -32.5zM286 799l5 42h244l-5 -42h-244z" horiz-adv-x="652" unicode="Ō"/>
<glyph glyph-name="omacron" d="M246 22q69 0 100.5 54t44.5 170q4 36 4 75q0 78 -25 118t-82 40q-69 0 -100.5 -52t-45.5 -168q-4 -36 -4 -76q0 -161 108 -161zM243 -11q-89 0 -149.5 66.5t-60.5 167.5q0 12 2 36q13 116 85.5 185t170.5 69q89 0 149 -65.5t60 -165.5q0 -12 -2 -36 q-12 -116 -84.5 -186.5t-170.5 -70.5zM195 675l5 42h244l-5 -42h-244z" horiz-adv-x="534" unicode="ō"/>
<glyph glyph-name="Ohungarumlaut" d="M293 22q83 0 136 74t74 250q8 60 8 118q0 110 -35.5 157t-103.5 47q-41 0 -72.5 -15.5t-59.5 -51.5t-48 -99.5t-31 -155.5q-8 -69 -8 -114q0 -112 36 -161t104 -49zM289 -11q-52 0 -94.5 17.5t-70.5 47t-47.5 69.5t-28 82.5t-8.5 88.5q0 26 3 52q8 63 33.5 124 t65.5 113.5t101.5 85t133.5 32.5q64 0 113.5 -25.5t78 -69t42.5 -95t14 -108.5q0 -19 -4 -57q-8 -63 -32.5 -124t-65 -114.5t-101.5 -86t-133 -32.5zM424 740l99 104q23 26 62 26h78q25 0 25 -10t-27 -24l-197 -96h-40zM317 740l31 104q7 26 52 26h61q28 0 28 -10 q0 -9 -20 -24l-126 -96h-26z" horiz-adv-x="652" unicode="Ő"/>
<glyph glyph-name="ohungarumlaut" d="M246 22q69 0 100.5 54t44.5 170q4 36 4 75q0 78 -25 118t-82 40q-69 0 -100.5 -52t-45.5 -168q-4 -36 -4 -76q0 -161 108 -161zM243 -11q-89 0 -149.5 66.5t-60.5 167.5q0 12 2 36q13 116 85.5 185t170.5 69q89 0 149 -65.5t60 -165.5q0 -12 -2 -36 q-12 -116 -84.5 -186.5t-170.5 -70.5zM352 588l116 133q29 28 63 28h81q22 0 22 -9q0 -10 -28 -26l-218 -126h-36zM242 588l47 133q8 28 49 28h74q25 0 25 -11q0 -9 -18 -24l-148 -126h-29z" horiz-adv-x="534" unicode="ő"/>
<glyph glyph-name="OE" d="M289 -11q-52 0 -94.5 17.5t-70.5 47t-47.5 69.5t-28 82.5t-8.5 88.5q0 26 3 52q8 63 33.5 124t65.5 113.5t101.5 85t133.5 32.5q41 0 77 -11h441l-27 -220h-32l4 42q3 22 3 40q0 60 -34 82.5t-111 22.5h-180q54 -39 80.5 -107t26.5 -146q0 -13 -2 -37h89l10 77h38 l-24 -195h-38l10 86h-89q-13 -90 -59 -173.5t-119 -128.5h218q86 0 117.5 36t42.5 119l5 36h32l-28 -224h-458q-41 -11 -81 -11zM293 22q83 0 136 74t74 250q8 60 8 118q0 110 -35.5 157t-103.5 47q-41 0 -72.5 -15.5t-59.5 -51.5t-48 -99.5t-31 -155.5q-8 -69 -8 -114 q0 -112 36 -161t104 -49z" horiz-adv-x="914" unicode="Œ"/>
<glyph glyph-name="oe" d="M246 22q69 0 100.5 54t44.5 170q4 36 4 75q0 78 -25 118t-82 40q-69 0 -100.5 -52t-45.5 -168q-4 -36 -4 -76q0 -161 108 -161zM499 256q190 4 197 140v6q0 35 -16.5 56.5t-48.5 21.5q-51 0 -86 -60t-46 -164zM579 -11q-104 0 -155 82q-74 -82 -181 -82 q-89 0 -149.5 66.5t-60.5 167.5q0 12 2 36q13 116 85.5 185t170.5 69q51 0 95 -23.5t73 -65.5q71 89 181 89q70 0 113 -34t43 -88v-5q-3 -78 -81.5 -120t-217.5 -43q-2 -30 -2 -45q0 -151 106 -151q58 0 89.5 31.5t51.5 95.5l31 -7q-21 -78 -66 -118t-128 -40z" horiz-adv-x="832" unicode="œ"/>
<glyph glyph-name="Racute" d="M239 351h28q176 0 195 157q2 20 2 28q0 121 -162 121h-26zM503 -11q-31 0 -51 11.5t-30.5 35t-16 48.5t-10.5 62v3t-0.5 3t-0.5 4q-13 90 -38 126t-87 37h-34l-35 -286h111l-4 -33h-301l4 33h82l76 624h-81l4 33h212q133 0 204.5 -41.5t71.5 -118.5q0 -14 -1 -21 q-8 -68 -72 -117t-153 -59q51 -18 82 -36t46 -41.5t20 -41.5t9 -53q12 -100 19 -113q6 -11 18 -11q39 0 53 115h30q-10 -81 -38 -122t-89 -41zM328 740l86 103q21 27 60 27h75q26 0 26 -11q0 -10 -24 -24l-193 -95h-30z" horiz-adv-x="653" unicode="Ŕ"/>
<glyph glyph-name="racute" d="M68 0l57 469h-82l4 32q139 0 155 11l14 -10l-17 -141q21 72 60 112t88 40q47 0 74.5 -26.5t27.5 -69.5q0 -33 -20 -56t-54 -23q-29 0 -45.5 16t-16.5 43q0 29 16 48t45 21q-13 8 -33 8q-55 0 -92 -68t-50 -175l-28 -231h-103zM249 590l103 131q21 27 60 27h67 q25 0 25 -11q0 -10 -23 -24l-202 -123h-30z" horiz-adv-x="455" unicode="ŕ"/>
<glyph glyph-name="uni0156" d="M244 -306l-18 24q25 15 50.5 42.5t32.5 58.5q-7 -6 -21 -6q-23 0 -40.5 16.5t-17.5 41.5q0 27 18 50t52 23q61 0 61 -67q0 -58 -34 -107.5t-83 -75.5zM239 351h28q176 0 195 157q2 20 2 28q0 121 -162 121h-26zM503 -11q-31 0 -51 11.5t-30.5 35t-16 48.5t-10.5 62v3 t-0.5 3t-0.5 4q-13 90 -38 126t-87 37h-34l-35 -286h111l-4 -33h-301l4 33h82l76 624h-81l4 33h212q133 0 204.5 -41.5t71.5 -118.5q0 -14 -1 -21q-8 -68 -72 -117t-153 -59q51 -18 82 -36t46 -41.5t20 -41.5t9 -53q12 -100 19 -113q6 -11 18 -11q39 0 53 115h30 q-10 -81 -38 -122t-89 -41z" horiz-adv-x="653" unicode="Ŗ"/>
<glyph glyph-name="uni0157" d="M62 -306l-18 24q25 15 50.5 42.5t32.5 58.5q-7 -6 -21 -6q-23 0 -40.5 16.5t-17.5 41.5q0 27 18 50t52 23q61 0 61 -67q0 -58 -34 -107.5t-83 -75.5zM68 0l57 469h-82l4 32q139 0 155 11l14 -10l-17 -141q21 72 60 112t88 40q47 0 74.5 -26.5t27.5 -69.5q0 -33 -20 -56 t-54 -23q-29 0 -45.5 16t-16.5 43q0 29 16 48t45 21q-13 8 -33 8q-55 0 -92 -68t-50 -175l-28 -231h-103z" horiz-adv-x="455" unicode="ŗ"/>
<glyph glyph-name="Rcaron" d="M239 351h28q176 0 195 157q2 20 2 28q0 121 -162 121h-26zM503 -11q-31 0 -51 11.5t-30.5 35t-16 48.5t-10.5 62v3t-0.5 3t-0.5 4q-13 90 -38 126t-87 37h-34l-35 -286h111l-4 -33h-301l4 33h82l76 624h-81l4 33h212q133 0 204.5 -41.5t71.5 -118.5q0 -14 -1 -21 q-8 -68 -72 -117t-153 -59q51 -18 82 -36t46 -41.5t20 -41.5t9 -53q12 -100 19 -113q6 -11 18 -11q39 0 53 115h30q-10 -81 -38 -122t-89 -41zM338 754l-121 171h30l116 -76l124 76h23l-144 -171h-28z" horiz-adv-x="653" unicode="Ř"/>
<glyph glyph-name="rcaron" d="M68 0l57 469h-82l4 32q139 0 155 11l14 -10l-17 -141q21 72 60 112t88 40q47 0 74.5 -26.5t27.5 -69.5q0 -33 -20 -56t-54 -23q-29 0 -45.5 16t-16.5 43q0 29 16 48t45 21q-13 8 -33 8q-55 0 -92 -68t-50 -175l-28 -231h-103zM246 581l-121 171h30l116 -76l124 76h23 l-144 -171h-28z" horiz-adv-x="455" unicode="ř"/>
<glyph glyph-name="Sacute" d="M247 -11q-100 0 -162 52l-46 -51h-17l29 233h32q-2 -20 -2 -30q0 -73 43.5 -121.5t123.5 -48.5q134 0 151 125q1 7 1 19q0 16 -4 29t-9 22.5t-16.5 18.5t-19 14t-25.5 11t-26.5 9t-30.5 9t-30 8q-35 10 -58.5 20.5t-48.5 30t-37.5 51.5t-12.5 75q0 19 3 40 q11 87 66.5 141.5t148.5 54.5q44 0 84 -13t58 -38l42 50h17l-28 -230h-32q2 18 2 27q0 72 -40 120.5t-101 48.5q-65 0 -102.5 -33t-44.5 -90q-1 -7 -1 -19q0 -36 23.5 -60.5t43.5 -32.5t73 -24l18 -6q37 -11 60.5 -21.5t49 -30t38 -49t12.5 -70.5q0 -23 -2 -36 q-11 -88 -66 -146.5t-157 -58.5zM294 740l86 103q21 27 60 27h75q26 0 26 -11q0 -10 -24 -24l-193 -95h-30z" horiz-adv-x="520" unicode="Ś"/>
<glyph glyph-name="sacute" d="M19 -11l23 180h34q-1 -8 -1 -22q0 -59 33.5 -91.5t81.5 -32.5q51 0 81 22t30 63q0 18 -7.5 32.5t-14.5 23t-28.5 19.5t-28.5 14t-37 15q-54 23 -85 56t-32 90q1 70 48 112.5t122 42.5q69 0 113 -31l23 31h16l-23 -178h-33q2 24 2 33q0 58 -27.5 84.5t-71.5 26.5 q-41 0 -67 -21.5t-26 -58.5q0 -28 16 -49t33 -30.5t53 -25.5q28 -12 46.5 -22.5t38.5 -28t30.5 -42t10.5 -56.5q0 -69 -45 -112.5t-131 -43.5h-4q-77 0 -129 37l-28 -37h-16zM242 590l103 131q21 27 60 27h67q25 0 25 -11q0 -10 -23 -24l-202 -123h-30z" horiz-adv-x="434" unicode="ś"/>
<glyph glyph-name="Scaron" d="M247 -11q-100 0 -162 52l-46 -51h-17l29 233h32q-2 -20 -2 -30q0 -73 43.5 -121.5t123.5 -48.5q134 0 151 125q1 7 1 19q0 16 -4 29t-9 22.5t-16.5 18.5t-19 14t-25.5 11t-26.5 9t-30.5 9t-30 8q-35 10 -58.5 20.5t-48.5 30t-37.5 51.5t-12.5 75q0 19 3 40 q11 87 66.5 141.5t148.5 54.5q44 0 84 -13t58 -38l42 50h17l-28 -230h-32q2 18 2 27q0 72 -40 120.5t-101 48.5q-65 0 -102.5 -33t-44.5 -90q-1 -7 -1 -19q0 -36 23.5 -60.5t43.5 -32.5t73 -24l18 -6q37 -11 60.5 -21.5t49 -30t38 -49t12.5 -70.5q0 -23 -2 -36 q-11 -88 -66 -146.5t-157 -58.5zM309 754l-121 171h30l116 -76l124 76h23l-144 -171h-28z" horiz-adv-x="520" unicode="Š"/>
<glyph glyph-name="scaron" d="M19 -11l23 180h34q-1 -8 -1 -22q0 -59 33.5 -91.5t81.5 -32.5q51 0 81 22t30 63q0 18 -7.5 32.5t-14.5 23t-28.5 19.5t-28.5 14t-37 15q-54 23 -85 56t-32 90q1 70 48 112.5t122 42.5q69 0 113 -31l23 31h16l-23 -178h-33q2 24 2 33q0 58 -27.5 84.5t-71.5 26.5 q-41 0 -67 -21.5t-26 -58.5q0 -28 16 -49t33 -30.5t53 -25.5q28 -12 46.5 -22.5t38.5 -28t30.5 -42t10.5 -56.5q0 -69 -45 -112.5t-131 -43.5h-4q-77 0 -129 37l-28 -37h-16zM251 581l-121 171h30l116 -76l124 76h23l-144 -171h-28z" horiz-adv-x="434" unicode="š"/>
<glyph glyph-name="Tcaron" d="M81 0l4 33h113l76 624h-38q-79 0 -113 -30.5t-44 -114.5l-5 -42h-33l27 220h528l-27 -220h-33l5 42q3 27 3 47q0 56 -28.5 77t-96.5 21h-37l-77 -624h113l-4 -33h-333zM326 754l-121 171h30l116 -76l124 76h23l-144 -171h-28z" horiz-adv-x="566" unicode="Ť"/>
<glyph glyph-name="tcaron" d="M176 -11q-107 0 -107 109q0 9 2 31l41 340h-75l4 31q133 0 172 180h28l-22 -179h139l-4 -32h-139l-44 -359q-2 -20 -2 -28q0 -56 38 -56q33 0 52 31.5t31 109.5h32q-14 -97 -45 -137.5t-101 -40.5zM329 578l-18 24q25 15 50.5 42.5t32.5 58.5q-7 -6 -21 -6 q-23 0 -40.5 16.5t-17.5 41.5q0 27 18 50t52 23q61 0 61 -67q0 -58 -34 -107.5t-83 -75.5z" horiz-adv-x="390" unicode="ť"/>
<glyph glyph-name="Umacron" d="M303 -11q-110 0 -160 46.5t-50 140.5q0 17 4 57l53 424h-82l4 33h283l-4 -33h-94l-53 -432q-4 -29 -4 -62q0 -68 28 -104t95 -36q83 0 121.5 52.5t50.5 153.5l52 428h-93l5 33h217l-4 -33h-82l-53 -425q-15 -124 -68.5 -183.5t-165.5 -59.5zM290 799l5 42h244l-5 -42 h-244z" horiz-adv-x="650" unicode="Ū"/>
<glyph glyph-name="umacron" d="M201 -11q-60 0 -92 36.5t-32 98.5q0 10 2 32l39 312h-83l4 33q156 0 172 10l14 -10l-43 -349q-2 -22 -2 -31q0 -79 61 -79q50 0 83 57t45 161l25 208h-64l5 33q136 0 152 10l14 -10l-49 -405q-2 -18 -2 -24q0 -44 31 -44q23 0 38 28.5t23 95.5h31q-12 -88 -35.5 -125.5 t-82.5 -37.5q-84 0 -84 93q0 14 1 22q1 4 1.5 11t2 21t2.5 24l1 9q-40 -180 -178 -180zM220 675l5 42h244l-5 -42h-244z" unicode="ū"/>
<glyph glyph-name="Uring" d="M303 -11q-110 0 -160 46.5t-50 140.5q0 17 4 57l53 424h-82l4 33h283l-4 -33h-94l-53 -432q-4 -29 -4 -62q0 -68 28 -104t95 -36q83 0 121.5 52.5t50.5 153.5l52 428h-93l5 33h217l-4 -33h-82l-53 -425q-15 -124 -68.5 -183.5t-165.5 -59.5zM404 781q40 0 46 42q1 4 1 12 q0 35 -36 35q-25 0 -36.5 -15.5t-11.5 -35.5q0 -15 9 -26.5t28 -11.5zM401 743q-41 0 -59 20t-18 50q0 2 0.5 6t0.5 6q3 29 26 56.5t70 27.5q39 0 56 -21.5t17 -50.5q0 -10 -1 -14q-5 -31 -26.5 -55.5t-65.5 -24.5z" horiz-adv-x="650" unicode="Ů"/>
<glyph glyph-name="uring" d="M201 -11q-60 0 -92 36.5t-32 98.5q0 10 2 32l39 312h-83l4 33q156 0 172 10l14 -10l-43 -349q-2 -22 -2 -31q0 -79 61 -79q50 0 83 57t45 161l25 208h-64l5 33q136 0 152 10l14 -10l-49 -405q-2 -18 -2 -24q0 -44 31 -44q23 0 38 28.5t23 95.5h31q-12 -88 -35.5 -125.5 t-82.5 -37.5q-84 0 -84 93q0 14 1 22q1 4 1.5 11t2 21t2.5 24l1 9q-40 -180 -178 -180zM323 638q40 0 46 42q1 4 1 12q0 35 -36 35q-25 0 -36.5 -15.5t-11.5 -35.5q0 -15 9 -26.5t28 -11.5zM320 600q-41 0 -59 20t-18 50q0 2 0.5 6t0.5 6q3 29 26 56.5t70 27.5 q39 0 56 -21.5t17 -50.5q0 -10 -1 -14q-5 -31 -26.5 -55.5t-65.5 -24.5z" unicode="ů"/>
<glyph glyph-name="Uhungarumlaut" d="M303 -11q-110 0 -160 46.5t-50 140.5q0 17 4 57l53 424h-82l4 33h283l-4 -33h-94l-53 -432q-4 -29 -4 -62q0 -68 28 -104t95 -36q83 0 121.5 52.5t50.5 153.5l52 428h-93l5 33h217l-4 -33h-82l-53 -425q-15 -124 -68.5 -183.5t-165.5 -59.5zM436 740l99 104q23 26 62 26 h78q25 0 25 -10t-27 -24l-197 -96h-40zM329 740l31 104q7 26 52 26h61q28 0 28 -10q0 -9 -20 -24l-126 -96h-26z" horiz-adv-x="650" unicode="Ű"/>
<glyph glyph-name="uhungarumlaut" d="M201 -11q-60 0 -92 36.5t-32 98.5q0 10 2 32l39 312h-83l4 33q156 0 172 10l14 -10l-43 -349q-2 -22 -2 -31q0 -79 61 -79q50 0 83 57t45 161l25 208h-64l5 33q136 0 152 10l14 -10l-49 -405q-2 -18 -2 -24q0 -44 31 -44q23 0 38 28.5t23 95.5h31q-12 -88 -35.5 -125.5 t-82.5 -37.5q-84 0 -84 93q0 14 1 22q1 4 1.5 11t2 21t2.5 24l1 9q-40 -180 -178 -180zM357 588l116 133q29 28 63 28h81q22 0 22 -9q0 -10 -28 -26l-218 -126h-36zM247 588l47 133q8 28 49 28h74q25 0 25 -11q0 -9 -18 -24l-148 -126h-29z" unicode="ű"/>
<glyph glyph-name="Uogonek" d="M320 -148q-45 0 -73.5 16.5t-28.5 48.5v7q6 46 58 66q-96 5 -139.5 51.5t-43.5 134.5q0 17 4 57l53 424h-82l4 33h283l-4 -33h-94l-53 -432q-4 -29 -4 -62q0 -68 28 -104t95 -36q83 0 121.5 52.5t50.5 153.5l52 428h-93l5 33h217l-4 -33h-82l-53 -425 q-13 -111 -56.5 -169t-131.5 -70q-25 -4 -42.5 -19t-19.5 -38q0 -2 -0.5 -4.5t-0.5 -3.5q0 -22 17.5 -34t43.5 -12q36 0 55 21l13 -14q-25 -37 -95 -37z" horiz-adv-x="650" unicode="Ų"/>
<glyph glyph-name="uogonek" d="M486 -139q-46 0 -71.5 16t-25.5 45q0 2 0.5 5t0.5 4q4 42 58 60q-77 12 -77 90q0 15 1 23q1 4 1.5 11t2 21t2.5 24l1 9q-40 -180 -178 -180q-60 0 -92 36.5t-32 98.5q0 10 2 32l39 312h-83l4 33q156 0 172 10l14 -10l-43 -349q-2 -22 -2 -31q0 -79 61 -79q50 0 83 57 t45 161l25 208h-64l5 33q136 0 152 10l14 -10l-49 -405q-2 -18 -2 -24q0 -44 31 -44q23 0 38 28.5t23 95.5h31q-10 -72 -25.5 -108t-49.5 -48q-35 -14 -39 -50v-8q0 -21 14.5 -33.5t41.5 -12.5q33 0 56 21l10 -14q-32 -38 -95 -38z" unicode="ų"/>
<glyph glyph-name="Ydieresis" d="M123 0l4 33h88l34 281l-139 343h-70l4 33h286l-4 -33h-101l117 -289l179 289h-87l5 33h199l-4 -33h-69l-207 -334l-36 -290h88l-4 -33h-283zM492 755q-32 0 -46 18.5t-14 41.5v6q2 25 21 47t55 22q32 0 46 -18t14 -41v-8q-2 -23 -21.5 -45.5t-54.5 -22.5zM294 755 q-32 0 -46 18.5t-14 41.5v6q2 25 21 47t56 22q31 0 45 -18t14 -41v-8q-1 -23 -20.5 -45.5t-55.5 -22.5z" horiz-adv-x="573" unicode="Ÿ"/>
<glyph glyph-name="Zacute" d="M2 0l2 23l426 634h-161q-82 0 -116.5 -30t-45.5 -115l-5 -42h-32l27 220h450l-3 -23l-427 -634h192q80 0 111 36.5t42 118.5l5 36h32l-28 -224h-469zM305 740l86 103q21 27 60 27h75q26 0 26 -11q0 -10 -24 -24l-193 -95h-30z" horiz-adv-x="536" unicode="Ź"/>
<glyph glyph-name="zacute" d="M1 0l3 23l323 446h-112q-62 0 -89 -30.5t-35 -92.5l-3 -25h-32l22 180h366l-2 -22l-323 -446h128q62 0 89 31t34 93l3 24h32l-22 -181h-382zM206 590l103 131q21 27 60 27h67q25 0 25 -11q0 -10 -23 -24l-202 -123h-30z" horiz-adv-x="460" unicode="ź"/>
<glyph glyph-name="Zdotaccent" d="M2 0l2 23l426 634h-161q-82 0 -116.5 -30t-45.5 -115l-5 -42h-32l27 220h450l-3 -23l-427 -634h192q80 0 111 36.5t42 118.5l5 36h32l-28 -224h-469zM337 763q-34 0 -48.5 18.5t-14.5 42.5v6q2 25 22 47t57 22q34 0 48.5 -18.5t14.5 -42.5v-6q-2 -24 -22 -46.5t-57 -22.5 z" horiz-adv-x="536" unicode="Ż"/>
<glyph glyph-name="zdotaccent" d="M1 0l3 23l323 446h-112q-62 0 -89 -30.5t-35 -92.5l-3 -25h-32l22 180h366l-2 -22l-323 -446h128q62 0 89 31t34 93l3 24h32l-22 -181h-382zM280 603q-34 0 -48.5 18.5t-14.5 42.5v6q2 25 22 47t57 22q34 0 48.5 -18.5t14.5 -42.5v-6q-2 -24 -22 -46.5t-57 -22.5z" horiz-adv-x="460" unicode="ż"/>
<glyph glyph-name="Zcaron" d="M2 0l2 23l426 634h-161q-82 0 -116.5 -30t-45.5 -115l-5 -42h-32l27 220h450l-3 -23l-427 -634h192q80 0 111 36.5t42 118.5l5 36h32l-28 -224h-469zM312 754l-121 171h30l116 -76l124 76h23l-144 -171h-28z" horiz-adv-x="536" unicode="Ž"/>
<glyph glyph-name="zcaron" d="M1 0l3 23l323 446h-112q-62 0 -89 -30.5t-35 -92.5l-3 -25h-32l22 180h366l-2 -22l-323 -446h128q62 0 89 31t34 93l3 24h32l-22 -181h-382zM263 581l-121 171h30l116 -76l124 76h23l-144 -171h-28z" horiz-adv-x="460" unicode="ž"/>
<glyph glyph-name="uni0192" d="M-44 -259q-48 0 -82.5 23.5t-34.5 69.5q0 34 19 57.5t54 23.5q28 0 43 -15.5t15 -40.5q0 -31 -19 -50t-53 -21q15 -15 51 -15q87 0 109 160l66 536h-86l4 32h87q9 73 33 126.5t57 82t68 41.5t73 13q48 0 82.5 -23.5t34.5 -69.5q0 -34 -19 -57.5t-55 -23.5q-27 0 -42 15.5 t-15 40.5q0 31 19 50t53 20q-15 16 -51 16q-53 0 -84.5 -38t-42.5 -122l-9 -71h118l-3 -32h-119l-57 -457q-17 -140 -77 -205.5t-137 -65.5z" horiz-adv-x="343" unicode="ƒ"/>
<glyph glyph-name="circumflex" d="M83 581l157 171h28l108 -171h-24l-109 76l-130 -76h-30z" horiz-adv-x="388" unicode="ˆ"/>
<glyph glyph-name="caron" d="M225 581l-121 171h30l116 -76l124 76h23l-144 -171h-28z" horiz-adv-x="388" unicode="ˇ"/>
<glyph glyph-name="breve" d="M259 581q-70 0 -106.5 41t-36.5 106q0 17 3 35h23q-1 -6 -1 -18q0 -98 126 -98q74 0 106 31t44 85h17q-6 -79 -50.5 -130.5t-124.5 -51.5z" horiz-adv-x="438" unicode="˘"/>
<glyph glyph-name="dotaccent" d="M162 603q-34 0 -48.5 18.5t-14.5 42.5v6q2 25 22 47t57 22q34 0 48.5 -18.5t14.5 -42.5v-6q-2 -24 -22 -46.5t-57 -22.5z" horiz-adv-x="238" unicode="˙"/>
<glyph glyph-name="ring" d="M182 638q40 0 46 42q1 4 1 12q0 35 -36 35q-25 0 -36.5 -15.5t-11.5 -35.5q0 -15 9 -26.5t28 -11.5zM179 600q-41 0 -59 20t-18 50q0 2 0.5 6t0.5 6q3 29 26 56.5t70 27.5q39 0 56 -21.5t17 -50.5q0 -10 -1 -14q-5 -31 -26.5 -55.5t-65.5 -24.5z" horiz-adv-x="278" unicode="˚"/>
<glyph glyph-name="ogonek" d="M237 -139q-44 0 -70.5 18t-26.5 50q0 1 0.5 4.5t0.5 4.5q8 73 132 73v-11q-25 0 -42.5 -14.5t-20.5 -39.5v-8q0 -21 14.5 -33.5t41.5 -12.5q33 0 56 21l11 -14q-32 -38 -96 -38z" horiz-adv-x="497" unicode="˛"/>
<glyph glyph-name="tilde" d="M341 631q-26 0 -49 12t-37 26.5t-32 26.5t-36 12q-53 0 -55 -70h-24q2 51 27.5 89t74.5 38q30 0 54 -11t37 -24.5t31 -24.5t38 -11q27 0 37.5 16.5t17.5 47.5h23q-17 -127 -107 -127z" horiz-adv-x="458" unicode="˜"/>
<glyph glyph-name="hungarumlaut" d="M207 588l116 133q29 28 63 28h81q22 0 22 -9q0 -10 -28 -26l-218 -126h-36zM97 588l47 133q8 28 49 28h74q25 0 25 -11q0 -9 -18 -24l-148 -126h-29z" horiz-adv-x="500" unicode="˝"/>
<glyph glyph-name="pi" d="M118 -11q-43 0 -73.5 22t-30.5 71q0 35 19.5 61.5t55.5 26.5q25 0 39.5 -14.5t14.5 -40.5q0 -30 -23.5 -49t-60.5 -21q13 -25 60 -25q49 0 70 46t33 147l29 247h-7q-57 0 -98.5 -15.5t-81.5 -59.5l-18 16q36 48 83.5 73t136.5 25h379l-4 -39h-110l-42 -349q-5 -28 -5 -43 q0 -47 41 -47q38 0 54 34t27 118h31q-6 -49 -13 -77.5t-22 -55.5t-42 -39t-69 -12q-110 0 -110 108q0 12 1 19l41 344h-129l-32 -247q-16 -124 -47 -174t-97 -50z" horiz-adv-x="680" unicode="π"/>
<glyph glyph-name="uni0401" d="M6 0l4 33h82l76 624h-81l4 33h468l-27 -220h-32l4 42q3 22 3 40q0 59 -33 82t-107 23h-91l-35 -290h135l10 77h38l-24 -195h-38l10 86h-136l-36 -302h128q42 0 70.5 9.5t45.5 30.5t25.5 47.5t13.5 67.5l5 36h32l-28 -224h-486zM442 755q-32 0 -46 18.5t-14 41.5v6 q2 25 21 47t55 22q32 0 46 -18t14 -41v-8q-2 -23 -21.5 -45.5t-54.5 -22.5zM244 755q-32 0 -46 18.5t-14 41.5v6q2 25 21 47t56 22q31 0 45 -18t14 -41v-8q-1 -23 -20.5 -45.5t-55.5 -22.5z" horiz-adv-x="578" unicode="Ё"/>
<glyph glyph-name="uni0402" d="M424 -10l1 21q107 29 130 207q3 21 3 41q0 121 -97 121q-49 0 -83.5 -31.5t-45.5 -88.5l-27 -227h75l-5 -33h-286l4 33h104l76 624h-38q-80 0 -113 -28t-44 -110l-2 -19h-32l24 190h527l-24 -190h-32l2 16q3 26 3 45q0 56 -28 76t-97 20h-38l-37 -304q58 78 162 78 q76 0 118 -41.5t42 -123.5q0 -22 -3 -46q-8 -64 -38 -112t-69 -72t-72.5 -35t-59.5 -11z" horiz-adv-x="709" unicode="Ђ"/>
<glyph glyph-name="uni0403" d="M6 0l4 33h82l76 624h-81l4 33h480l-27 -220h-33l5 42q3 22 3 40q0 59 -33 82t-107 23h-103l-76 -624h135l-5 -33h-324zM277 740l86 103q21 27 60 27h75q26 0 26 -11q0 -10 -24 -24l-193 -95h-30z" horiz-adv-x="542" unicode="Ѓ"/>
<glyph glyph-name="uni0404" d="M296 -11q-65 0 -115.5 27t-80.5 72t-45 98.5t-15 111.5q0 24 3 48q11 84 54 163.5t119.5 135.5t166.5 56q82 0 129 -37l45 36h17l-28 -230h-32q3 24 3 46q0 151 -133 151q-85 0 -141.5 -69t-79.5 -235h277l-2 -33h-279q-5 -53 -5 -87q0 -220 151 -220q83 0 127.5 55.5 t56.5 145.5h32l-29 -234h-17l-36 38q-68 -39 -143 -39z" horiz-adv-x="588" unicode="Є"/>
<glyph glyph-name="uni0405" d="M247 -11q-100 0 -162 52l-46 -51h-17l29 233h32q-2 -20 -2 -30q0 -73 43.5 -121.5t123.5 -48.5q134 0 151 125q1 7 1 19q0 16 -4 29t-9 22.5t-16.5 18.5t-19 14t-25.5 11t-26.5 9t-30.5 9t-30 8q-35 10 -58.5 20.5t-48.5 30t-37.5 51.5t-12.5 75q0 19 3 40 q11 87 66.5 141.5t148.5 54.5q44 0 84 -13t58 -38l42 50h17l-28 -230h-32q2 18 2 27q0 72 -40 120.5t-101 48.5q-65 0 -102.5 -33t-44.5 -90q-1 -7 -1 -19q0 -36 23.5 -60.5t43.5 -32.5t73 -24l18 -6q37 -11 60.5 -21.5t49 -30t38 -49t12.5 -70.5q0 -23 -2 -36 q-11 -88 -66 -146.5t-157 -58.5z" horiz-adv-x="520" unicode="Ѕ"/>
<glyph glyph-name="uni0406" d="M6 0l4 33h86l77 624h-86l4 33h280l-4 -33h-86l-77 -624h86l-4 -33h-280z" horiz-adv-x="355" unicode="І"/>
<glyph glyph-name="uni0407" d="M6 0l4 33h86l77 624h-86l4 33h280l-4 -33h-86l-77 -624h86l-4 -33h-280zM340 755q-32 0 -46 18.5t-14 41.5v6q2 25 21 47t55 22q32 0 46 -18t14 -41v-8q-2 -23 -21.5 -45.5t-54.5 -22.5zM142 755q-32 0 -46 18.5t-14 41.5v6q2 25 21 47t56 22q31 0 45 -18t14 -41v-8 q-1 -23 -20.5 -45.5t-55.5 -22.5z" horiz-adv-x="355" unicode="Ї"/>
<glyph glyph-name="uni0408" d="M121 -11q-69 0 -103 31.5t-34 86.5q0 8 2 26q4 34 25.5 56t54.5 22q28 0 43 -16t15 -40q0 -7 -1 -11q-7 -66 -88 -69q3 -20 23 -35.5t53 -15.5q61 0 87.5 42.5t40.5 151.5l54 439h-109l4 33h299l-5 -33h-81l-49 -397q-10 -81 -31.5 -136.5t-53.5 -83.5t-66.5 -39.5 t-79.5 -11.5z" horiz-adv-x="448" unicode="Ј"/>
<glyph glyph-name="uni0409" d="M509 33h48q86 0 128 41t52 124q2 22 2 31q0 65 -37.5 98t-101.5 33h-51zM78 -11q-41 0 -69.5 23.5t-28.5 71.5q0 14 1 21q4 31 24 52.5t52 21.5q29 0 43 -16t14 -40v-8q-4 -29 -23 -45.5t-51 -16.5q10 -30 43 -30q36 0 61.5 30t49 107.5t43 192.5t43.5 304h-101l4 33h489 l-4 -33h-82l-33 -264h59q99 0 170.5 -45t71.5 -127q0 -7 -2 -23q-11 -93 -79.5 -145.5t-185.5 -52.5h-272l5 33h86l76 624h-161q-23 -168 -40.5 -273t-37.5 -188t-43.5 -125t-52.5 -62t-69 -20z" horiz-adv-x="884" unicode="Љ"/>
<glyph glyph-name="uni040A" d="M6 0l4 33h82l76 624h-81l4 33h269l-5 -33h-79l-35 -289h262l35 289h-79l4 33h269l-4 -33h-82l-35 -284h59q99 0 171 -44t72 -121q0 -12 -1 -19q-11 -90 -84 -139t-201 -50h-249l5 33h79l37 303h-262l-37 -303h79l-4 -33h-269zM570 33h48q85 0 127.5 39.5t51.5 116.5 q2 18 2 27q0 62 -38 93t-104 31h-49z" horiz-adv-x="945" unicode="Њ"/>
<glyph glyph-name="uni040B" d="M90 0l5 33h103l77 624h-39q-80 0 -113 -28t-43 -110l-2 -19h-33l24 190h528l-24 -190h-33l2 16q3 25 3 46q0 55 -28 75t-97 20h-38l-37 -305q58 78 162 78q153 0 153 -154q0 -21 -3 -45l-24 -198h77l-4 -33h-256l5 33h74l24 191q3 24 3 44q0 111 -95 111 q-49 0 -82.5 -31.5t-44.5 -88.5l-28 -226h75l-4 -33h-287z" horiz-adv-x="772" unicode="Ћ"/>
<glyph glyph-name="uni040C" d="M504 -11q-31 0 -51.5 10.5t-33 33.5t-18.5 45.5t-13 61.5q-6 36 -11.5 59.5t-15.5 52t-22 45t-30.5 28t-42.5 11.5h-34l-37 -303h88l-4 -33h-273l4 33h82l76 624h-81l4 33h256l-5 -33h-70l-36 -289h50q37 0 64 34.5t45 83t37.5 97.5t55 83.5t84.5 34.5q33 0 57 -22 t24 -58q0 -37 -22 -62t-51 -25q-28 0 -44 14.5t-16 39.5q0 27 18.5 48t51.5 23q-11 7 -25 7q-33 0 -58 -28t-41.5 -70t-33 -85.5t-42.5 -80.5t-59 -49q53 -18 82.5 -34.5t47.5 -44t25 -54t17 -82.5q15 -78 23 -90q9 -12 23 -12q34 0 49 125h30q-11 -87 -35.5 -129.5 t-88.5 -42.5zM359 740l86 103q21 27 60 27h75q26 0 26 -11q0 -10 -24 -24l-193 -95h-30z" horiz-adv-x="653" unicode="Ќ"/>
<glyph glyph-name="uni040E" d="M128 -11q-45 0 -73 26.5t-28 77.5q0 14 1 22q5 32 26.5 53.5t53.5 21.5q29 0 43.5 -16.5t14.5 -40.5q0 -1 -0.5 -5t-0.5 -5q-8 -64 -86 -67q11 -33 56 -33q37 0 64 28.5t70 109.5l-160 496h-77l5 33h306l-4 -33h-116l116 -363l188 363h-92l4 33h205l-5 -33h-69l-205 -396 q-90 -175 -131.5 -223.5t-105.5 -48.5zM392 752q-81 0 -124.5 39t-43.5 92q0 9 1 14q4 27 22 44.5t45 17.5q47 0 47 -44v-7q-3 -21 -20 -37.5t-45 -16.5q-6 0 -20 2q14 -20 53.5 -32t91.5 -12q55 0 99 12.5t61 32.5q-22 -4 -28 -4q-49 0 -49 46q0 1 0.5 4t0.5 5 q3 22 19.5 36.5t41.5 14.5q24 0 37 -14.5t13 -37.5q0 -1 -0.5 -4.5t-0.5 -5.5q-7 -56 -61 -100.5t-140 -44.5z" horiz-adv-x="565" unicode="Ў"/>
<glyph glyph-name="uni040F" d="M293 -216q-29 0 -42.5 16t-13.5 38v8q3 26 33.5 77t34.5 77h-299l4 33h82l76 624h-81l4 33h260l-4 -33h-71l-76 -624h248l76 624h-71l5 33h260l-4 -33h-82l-77 -624h82l-4 -33h-295v-8q0 -24 14 -68t14 -66q0 -2 -0.5 -6t-0.5 -6q-4 -24 -22 -43t-50 -19z" horiz-adv-x="711" unicode="Џ"/>
<glyph glyph-name="uni0410" d="M-57 0l4 33h64l311 667h36l146 -667h68l-4 -33h-300l4 33h118l-46 215h-195l-100 -215h118l-5 -33h-219zM164 280h173l-55 254z" horiz-adv-x="583" unicode="А"/>
<glyph glyph-name="uni0411" d="M200 33h57q85 0 127.5 40t51.5 121q2 20 2 28q0 64 -37.5 96t-102.5 32h-59zM6 0l4 33h82l76 624h-81l4 33h472l-26 -211h-33l4 33q3 21 3 39q0 60 -33.5 83t-107.5 23h-94l-34 -275h67q100 0 172 -44t72 -124q0 -13 -1 -20q-12 -94 -86.5 -144t-204.5 -50h-255z" horiz-adv-x="592" unicode="Б"/>
<glyph glyph-name="uni0412" d="M200 33h67q87 0 129 39.5t51 120.5q1 8 1 23q0 121 -143 121h-68zM241 367h62q67 0 106.5 40.5t47.5 112.5q1 9 1 24q0 58 -36 85.5t-115 27.5h-31zM6 0l4 33h82l76 624h-81l4 33h212q269 0 269 -151q0 -12 -1 -19q-8 -65 -56.5 -110t-121.5 -55q76 -12 123.5 -47.5 t47.5 -97.5q0 -13 -1 -19q-10 -93 -83.5 -142t-206.5 -49h-267z" horiz-adv-x="611" unicode="В"/>
<glyph glyph-name="uni0413" d="M6 0l4 33h82l76 624h-81l4 33h480l-27 -220h-33l5 42q3 22 3 40q0 59 -33 82t-107 23h-103l-76 -624h135l-5 -33h-324z" horiz-adv-x="542" unicode="Г"/>
<glyph glyph-name="uni0414" d="M-41 -180l27 213h76q62 76 100.5 213t72.5 411h-85l4 33h483l-4 -33h-82l-77 -624h111l-26 -213h-33l4 32q3 26 3 46q0 58 -29.5 80t-100.5 22h-243q-83 0 -118.5 -31t-46.5 -117l-3 -32h-33zM112 33h255l76 624h-165q-59 -468 -166 -624z" horiz-adv-x="632" unicode="Д"/>
<glyph glyph-name="uni0415" d="M6 0l4 33h82l76 624h-81l4 33h464l-27 -220h-32l4 42q3 22 3 40q0 59 -32.5 81.5t-104.5 23.5h-90l-35 -290h133l10 77h37l-24 -195h-37l10 86h-134l-36 -302h125q81 0 112 36t42 119l5 36h32l-28 -224h-482z" horiz-adv-x="574" unicode="Е"/>
<glyph glyph-name="uni0416" d="M801 -11q-31 0 -51.5 10t-33 34t-18.5 45.5t-13 61.5q-2 10 -5.5 32.5t-5.5 33t-5.5 29.5t-7 28.5t-9 23.5t-12 21t-15.5 14.5t-20 10.5t-24 3h-41l-38 -303h80l-5 -33h-262l5 33h79l37 303h-52q-23 0 -41 -9t-33.5 -33.5t-23 -39.5t-24 -57t-22.5 -57q-18 -41 -28 -61.5 t-28 -45t-41 -34.5t-54 -10q-49 0 -68.5 25.5t-19.5 75.5q0 29 5 71h30q-5 -36 -5 -68q0 -57 27 -57q17 0 30 20.5t38 81.5q7 16 16.5 40t14 34t12.5 27t14 24t16.5 19t21 18t27.5 15.5t36.5 17.5t46.5 17q-28 8 -44 35.5t-19 62t-6 73.5t-6 71.5t-18 53.5t-42 21 q-22 0 -35 -10q30 -1 45 -16.5t15 -39.5q0 -28 -19 -47.5t-47 -19.5q-63 0 -63 66q0 38 30 69.5t74 31.5q36 0 58.5 -18.5t31 -47.5t12 -65t5 -71.5t6.5 -64.5t20.5 -47.5t42.5 -18.5h68l35 289h-79l4 33h253l-4 -33h-70l-36 -289h59q35 0 60 34.5t41 83t34 97.5t51 83.5 t81 34.5q33 0 57 -22t24 -58q0 -37 -22 -62t-51 -25q-28 0 -44 14.5t-16 39.5q0 27 18.5 48t51.5 23q-11 7 -25 7q-33 0 -57 -28.5t-39 -71t-29.5 -86.5t-39.5 -81t-59 -49q97 -37 120.5 -69t39.5 -126q2 -11 3 -17q15 -78 23 -90q9 -12 23 -12q34 0 49 125h30 q-5 -42 -11.5 -69.5t-20 -53t-36.5 -37.5t-57 -12z" horiz-adv-x="956" unicode="Ж"/>
<glyph glyph-name="uni0417" d="M244 -11q-107 0 -162 38l-44 -37h-18l29 233h33q-3 -21 -3 -41q0 -72 35.5 -115.5t107.5 -43.5q71 0 114 38t52 110q2 24 2 35q0 131 -137 131h-88l4 32h84q67 0 105.5 41.5t47.5 115.5q2 24 2 34q0 107 -107 107q-73 0 -120 -52.5t-58 -144.5h-33l28 230h18l35 -37 q68 38 155 38q95 0 145.5 -38.5t50.5 -107.5q0 -7 -2 -25q-8 -69 -64.5 -113t-128.5 -59q85 -15 132 -56.5t47 -106.5q0 -8 -2 -24q-10 -87 -81 -134.5t-179 -47.5z" horiz-adv-x="559" unicode="З"/>
<glyph glyph-name="uni0418" d="M6 0l4 33h82l76 624h-81l4 33h277l-4 -33h-88l-59 -483l332 423l8 60h-88l4 33h278l-4 -33h-82l-76 -624h81l-4 -33h-278l5 33h88l61 498l-333 -423l-9 -75h88l-4 -33h-278z" horiz-adv-x="744" unicode="И"/>
<glyph glyph-name="uni0419" d="M6 0l4 33h82l76 624h-81l4 33h277l-4 -33h-88l-59 -483l332 423l8 60h-88l4 33h278l-4 -33h-82l-76 -624h81l-4 -33h-278l5 33h88l61 498l-333 -423l-9 -75h88l-4 -33h-278zM430 752q-81 0 -124.5 39t-43.5 92q0 9 1 14q4 27 22 44.5t45 17.5q47 0 47 -44v-7 q-3 -21 -20 -37.5t-45 -16.5q-6 0 -20 2q14 -20 53.5 -32t91.5 -12q55 0 99 12.5t61 32.5q-22 -4 -28 -4q-49 0 -49 46q0 1 0.5 4t0.5 5q3 22 19.5 36.5t41.5 14.5q24 0 37 -14.5t13 -37.5q0 -1 -0.5 -4.5t-0.5 -5.5q-7 -56 -61 -100.5t-140 -44.5z" horiz-adv-x="744" unicode="Й"/>
<glyph glyph-name="uni041A" d="M504 -11q-31 0 -51.5 10.5t-33 33.5t-18.5 45.5t-13 61.5q-6 36 -11.5 59.5t-15.5 52t-22 45t-30.5 28t-42.5 11.5h-34l-37 -303h88l-4 -33h-273l4 33h82l76 624h-81l4 33h256l-5 -33h-70l-36 -289h50q37 0 64 34.5t45 83t37.5 97.5t55 83.5t84.5 34.5q33 0 57 -22 t24 -58q0 -37 -22 -62t-51 -25q-28 0 -44 14.5t-16 39.5q0 27 18.5 48t51.5 23q-11 7 -25 7q-33 0 -58 -28t-41.5 -70t-33 -85.5t-42.5 -80.5t-59 -49q53 -18 82.5 -34.5t47.5 -44t25 -54t17 -82.5q15 -78 23 -90q9 -12 23 -12q34 0 49 125h30q-11 -87 -35.5 -129.5 t-88.5 -42.5z" horiz-adv-x="653" unicode="К"/>
<glyph glyph-name="uni041B" d="M78 -11q-41 0 -69.5 23.5t-28.5 71.5q0 14 1 21q4 31 24 52.5t52 21.5q29 0 43 -16t14 -40v-8q-4 -29 -23.5 -45.5t-49.5 -16.5h-2q10 -30 45 -30q69 1 109.5 134.5t86.5 499.5h-102l5 33h489l-5 -33h-81l-77 -624h82l-4 -33h-272l5 33h86l76 624h-161 q-23 -168 -40.5 -273t-37.5 -188t-43.5 -125t-52.5 -62t-69 -20z" horiz-adv-x="665" unicode="Л"/>
<glyph glyph-name="uni041C" d="M6 0l4 33h82l76 624h-81l4 33h218l98 -426l209 426h216l-4 -33h-82l-77 -624h82l-4 -33h-289l4 33h100l75 617l-276 -558h-22l-129 557l-75 -616h105l-5 -33h-229z" horiz-adv-x="825" unicode="М"/>
<glyph glyph-name="uni041D" d="M6 0l4 33h82l76 624h-81l4 33h269l-5 -33h-79l-35 -289h262l35 289h-79l4 33h269l-4 -33h-82l-76 -624h82l-5 -33h-269l5 33h79l37 303h-263l-36 -303h79l-4 -33h-269z" horiz-adv-x="725" unicode="Н"/>
<glyph glyph-name="uni041E" d="M293 22q83 0 136 74t74 250q8 60 8 118q0 110 -35.5 157t-103.5 47q-41 0 -72.5 -15.5t-59.5 -51.5t-48 -99.5t-31 -155.5q-8 -69 -8 -114q0 -112 36 -161t104 -49zM289 -11q-52 0 -94.5 17.5t-70.5 47t-47.5 69.5t-28 82.5t-8.5 88.5q0 26 3 52q8 63 33.5 124 t65.5 113.5t101.5 85t133.5 32.5q64 0 113.5 -25.5t78 -69t42.5 -95t14 -108.5q0 -19 -4 -57q-8 -63 -32.5 -124t-65 -114.5t-101.5 -86t-133 -32.5z" horiz-adv-x="652" unicode="О"/>
<glyph glyph-name="uni041F" d="M6 0l4 33h82l76 624h-81l4 33h618l-4 -33h-82l-76 -624h82l-5 -33h-269l5 33h79l76 624h-239l-76 -624h79l-4 -33h-269z" horiz-adv-x="702" unicode="П"/>
<glyph glyph-name="uni0420" d="M235 320h36q94 0 136.5 45t52.5 127q3 19 3 39q0 61 -34.5 93.5t-117.5 32.5h-35zM6 0l4 33h82l76 624h-81l4 33h220q134 0 200.5 -45.5t66.5 -125.5q0 -8 -2 -26q-11 -91 -90 -148.5t-222 -57.5h-34l-30 -254h117l-4 -33h-307z" horiz-adv-x="571" unicode="Р"/>
<glyph glyph-name="uni0421" d="M296 -11q-65 0 -115.5 27t-80.5 72t-45 98.5t-15 111.5q0 24 3 48q11 84 54 163.5t119.5 135.5t166.5 56q82 0 129 -37l45 36h17l-28 -230h-32q3 24 3 46q0 151 -133 151q-87 0 -144 -73t-79 -248q-7 -55 -7 -104q0 -219 151 -219q83 0 127.5 55.5t56.5 145.5h32 l-29 -234h-17l-36 38q-68 -39 -143 -39z" horiz-adv-x="588" unicode="С"/>
<glyph glyph-name="uni0422" d="M81 0l4 33h113l76 624h-38q-79 0 -113 -30.5t-44 -114.5l-5 -42h-33l27 220h528l-27 -220h-33l5 42q3 27 3 47q0 56 -28.5 77t-96.5 21h-37l-77 -624h113l-4 -33h-333z" horiz-adv-x="566" unicode="Т"/>
<glyph glyph-name="uni0423" d="M128 -11q-45 0 -73 26.5t-28 77.5q0 14 1 22q5 32 26.5 53.5t53.5 21.5q29 0 43.5 -16.5t14.5 -40.5q0 -1 -0.5 -5t-0.5 -5q-8 -64 -86 -67q11 -33 56 -33q37 0 64 28.5t70 109.5l-160 496h-77l5 33h306l-4 -33h-116l116 -363l188 363h-92l4 33h205l-5 -33h-69l-205 -396 q-90 -175 -131.5 -223.5t-105.5 -48.5z" horiz-adv-x="565" unicode="У"/>
<glyph glyph-name="uni0424" d="M432 166q41 2 72.5 9.5t64 26.5t54 58t28.5 96q3 21 3 39q0 45 -14.5 75t-42 45t-54.5 21t-64 8zM324 166l47 379q-33 -1 -57.5 -5t-53.5 -16t-49 -31.5t-36 -54.5t-22 -82q-2 -13 -2 -38q0 -44 14.5 -75t41 -46.5t54 -22t63.5 -8.5zM204 -1l5 32h100l11 98 q-126 7 -205.5 58.5t-79.5 142.5q0 8 2 26q8 70 57.5 120.5t120.5 75t161 29.5l9 78h-100l5 32h307l-4 -32h-100l-10 -78q128 -8 207 -58t79 -142q0 -16 -1 -25q-14 -104 -108 -161.5t-232 -65.5l-12 -98h100l-4 -32h-308z" horiz-adv-x="788" unicode="Ф"/>
<glyph glyph-name="uni0425" d="M-30 0l5 33h64l215 307l-134 317h-70l5 33h274l-5 -33h-89l100 -235l163 235h-74l4 33h189l-5 -33h-71l-189 -272l150 -352h61l-4 -33h-284l5 33h104l-113 268l-186 -268h95l-5 -33h-205z" horiz-adv-x="599" unicode="Х"/>
<glyph glyph-name="uni0426" d="M6 0l4 33h82l76 624h-81l4 33h260l-4 -33h-71l-76 -624h226l76 624h-70l4 33h260l-4 -33h-82l-76 -624h113l-27 -213h-32l3 32q3 26 3 46q0 58 -29.5 80t-100.5 22h-458z" horiz-adv-x="694" unicode="Ц"/>
<glyph glyph-name="uni0427" d="M279 0l4 33h113l36 297q-57 -28 -147 -28q-88 0 -134 31t-46 109q0 24 2 37l22 178h-82l5 33h258l-4 -33h-73l-23 -181q-2 -24 -2 -32q0 -106 107 -106q75 0 122 26l35 293h-74l4 33h260l-5 -33h-81l-77 -624h82l-4 -33h-298z" horiz-adv-x="655" unicode="Ч"/>
<glyph glyph-name="uni0428" d="M6 0l4 33h82l76 624h-81l4 33h250l-4 -33h-61l-76 -624h187l76 624h-69l4 33h238l-4 -33h-61l-76 -624h187l77 624h-61l4 33h250l-4 -33h-82l-76 -624h82l-4 -33h-862z" horiz-adv-x="945" unicode="Ш"/>
<glyph glyph-name="uni0429" d="M844 -180l4 32q3 26 3 46q0 58 -29.5 80t-100.5 22h-715l4 33h82l76 624h-81l4 33h250l-4 -33h-61l-76 -624h187l76 624h-69l4 33h238l-4 -33h-61l-76 -624h187l77 624h-61l4 33h250l-4 -33h-82l-76 -624h113l-26 -213h-33z" horiz-adv-x="950" unicode="Щ"/>
<glyph glyph-name="uni042A" d="M276 33h48q86 0 128 40t52 121q2 20 2 28q0 65 -37.5 97.5t-102.5 32.5h-51zM83 0l4 33h82l76 624h-7q-77 0 -111 -25.5t-44 -97.5l-9 -64h-33l27 220h398l-4 -33h-109l-33 -273h58q100 0 171.5 -44.5t71.5 -125.5q0 -13 -1 -20q-13 -95 -87 -144.5t-205 -49.5h-245z" horiz-adv-x="651" unicode="Ъ"/>
<glyph glyph-name="uni042B" d="M200 33h48q86 0 128 40t52 121q2 20 2 28q0 65 -38 97.5t-103 32.5h-50zM6 0l4 33h82l76 624h-81l4 33h298l-4 -33h-109l-33 -273h59q99 0 170.5 -44t71.5 -125q0 -14 -1 -21q-12 -95 -86 -144.5t-205 -49.5h-246zM523 0l4 33h86l77 624h-86l4 33h280l-4 -33h-86 l-77 -624h86l-4 -33h-280z" horiz-adv-x="872" unicode="Ы"/>
<glyph glyph-name="uni042C" d="M200 33h48q86 0 128 40t52 121q2 20 2 28q0 65 -38 97.5t-103 32.5h-50zM6 0l4 33h82l76 624h-81l4 33h298l-4 -33h-109l-33 -273h59q99 0 170.5 -44t71.5 -125q0 -14 -1 -21q-12 -95 -86 -144.5t-205 -49.5h-246z" horiz-adv-x="575" unicode="Ь"/>
<glyph glyph-name="uni042D" d="M224 -11q-98 0 -151 38l-44 -37h-17l29 234h32q-2 -13 -2 -38q0 -74 37.5 -118.5t114.5 -44.5q84 0 137 71.5t75 241.5h-271l5 32h270q5 44 5 94q0 111 -36 158t-106 47q-77 0 -129.5 -52.5t-63.5 -144.5h-32l28 230h17l35 -37q66 38 155 38q83 0 140.5 -45t81 -110 t23.5 -143q0 -29 -3 -57q-6 -50 -22.5 -99t-45 -96t-65.5 -83t-88 -57.5t-109 -21.5z" horiz-adv-x="585" unicode="Э"/>
<glyph glyph-name="uni042E" d="M589 22q82 0 130.5 73t69.5 251q9 75 9 129q0 104 -32.5 148.5t-96.5 44.5q-82 0 -130.5 -71.5t-70.5 -250.5q-8 -63 -8 -124q0 -107 32 -153.5t97 -46.5zM586 -11q-64 0 -111.5 25.5t-74.5 69.5t-40 95t-13 108q0 33 2 49h-113l-36 -303h79l-4 -33h-269l4 33h82l76 624 h-81l4 33h269l-5 -33h-79l-35 -289h113q10 61 34.5 118t62.5 106.5t95.5 79t126.5 29.5q83 0 138.5 -44t77.5 -107t22 -140q0 -36 -4 -64q-6 -50 -21.5 -99t-43 -96t-63 -82.5t-85.5 -57.5t-108 -22z" horiz-adv-x="939" unicode="Ю"/>
<glyph glyph-name="uni042F" d="M91 -11q-49 0 -68.5 25.5t-19.5 75.5q0 29 5 71h30q-5 -45 -5 -65q0 -59 28 -59q16 0 29 20.5t35 72.5q1 4 2 6l2.5 5t2.5 6q40 96 70.5 125.5t132.5 63.5q-98 1 -156 46.5t-58 112.5q0 11 1 17q9 74 92 126t203 52h243l-4 -33h-82l-76 -624h81l-4 -33h-277l4 33h92 l36 299q-25 0 -26 -1q-29 -1 -52.5 -14t-43 -40.5t-34 -55t-33.5 -73.5q-15 -34 -19.5 -44.5t-17.5 -36t-21.5 -34t-23 -22t-31.5 -18t-37 -4.5zM393 361h42l36 296h-39q-177 0 -195 -146q-2 -18 -2 -27q0 -123 158 -123z" horiz-adv-x="653" unicode="Я"/>
<glyph glyph-name="uni0430" d="M224 40q61 0 98.5 59.5t49.5 153.5q1 5 3 19t2 18q2 30 2 43q0 145 -96 146q-59 0 -94 -60.5t-46 -160.5q-4 -33 -4 -69q0 -149 85 -149zM196 -11q-77 0 -121 57t-44 155q0 25 3 54q12 108 78 183t170 75q94 0 131 -98l69 98h24l-52 -417q-1 -8 -1 -22q0 -46 31 -46 q23 0 37.5 28t23.5 96h31q-12 -88 -36 -125.5t-82 -37.5q-86 0 -86 93q0 8 2 28l6 51q-23 -78 -70 -125t-114 -47z" horiz-adv-x="595" unicode="а"/>
<glyph glyph-name="uni0431" d="M251 22q67 0 99 52t41 160q3 33 3 61q0 160 -105 160q-66 0 -101.5 -51.5t-45.5 -156.5q-3 -30 -3 -57q0 -168 112 -168zM248 -11q-98 0 -154.5 65.5t-56.5 195.5q0 31 5 76q22 189 95 282.5t221 104.5q21 1 47.5 2t40 1t29.5 2.5t23.5 7.5t14.5 14t10 24h30 q-3 -21 -8 -38.5t-9.5 -30.5t-14.5 -23t-15.5 -17t-20.5 -12.5t-21.5 -8t-27 -5.5t-28.5 -3.5t-34 -2.5q-5 0 -8 -0.5t-8 -1t-9 -0.5q-136 -9 -193.5 -69t-81.5 -234h8q17 77 72.5 124t141.5 47q88 0 146 -61.5t58 -159.5q0 -11 -2 -33q-12 -111 -82.5 -178.5t-167.5 -67.5z " horiz-adv-x="534" unicode="б"/>
<glyph glyph-name="uni0432" d="M240 25q44 0 68 33.5t23 84.5q1 45 -24 72t-76 27q-22 0 -92 -5q-4 -42 -4 -60q0 -152 102 -152h3zM142 269q23 0 32 1q85 8 123.5 40t44.5 86v10q0 73 -62 73h-2q-51 -1 -86 -56t-50 -154zM228 -12q-93 0 -145.5 57.5t-52.5 151.5q0 23 3 47q17 124 87 195.5t165 73.5h3 q70 0 112.5 -29.5t42.5 -80.5q0 -2 -0.5 -5.5t-0.5 -5.5q-4 -45 -50 -77t-118 -48q9 1 25 1q63 0 99.5 -30.5t36.5 -77.5q0 -70 -56 -121t-151 -51z" horiz-adv-x="484" unicode="в"/>
<glyph glyph-name="uni0433" d="M200 -11q-79 0 -121.5 31.5t-42.5 91.5q0 48 24 79t59 47.5t69.5 33t58.5 47t24 77.5q0 81 -72 81q-80 0 -104 -113h-34q13 77 53 113t111 36q63 0 105 -34.5t42 -90.5q0 -49 -24 -81.5t-58.5 -50t-69 -33.5t-58.5 -44.5t-24 -71.5q0 -37 21.5 -60t61.5 -23 q49 0 81.5 33.5t40.5 94.5h35q-12 -81 -54 -122t-124 -41z" horiz-adv-x="420" unicode="г"/>
<glyph glyph-name="uni0434" d="M246 22q35 0 62 20.5t43.5 55t25.5 71t14 77.5q4 31 4 66q0 167 -112 167q-63 0 -95.5 -54.5t-45.5 -165.5q-5 -43 -5 -75q0 -162 109 -162zM243 -11q-89 0 -149.5 66.5t-60.5 167.5q0 12 2 36q13 115 82.5 184.5t160.5 69.5q110 0 138 -99q1 15 1 44q0 135 -34 203 t-107 68q-71 0 -120 -49l-18 22q65 63 152 63q109 0 166 -94.5t57 -248.5q0 -57 -7 -112q-39 -321 -263 -321z" horiz-adv-x="547" unicode="д"/>
<glyph glyph-name="uni0435" d="M140 256q190 4 197 140v6q0 35 -16.5 56.5t-48.5 21.5q-51 0 -86 -60t-46 -164zM220 -11q-89 0 -139 60.5t-50 157.5q0 27 2 41q13 123 83 194t165 71q70 0 113 -34t43 -88v-5q-3 -78 -81.5 -120t-217.5 -43q-2 -30 -2 -45q0 -151 106 -151q58 0 89.5 31.5t51.5 95.5 l31 -7q-21 -78 -66 -118t-128 -40z" horiz-adv-x="473" unicode="е"/>
<glyph glyph-name="uni0436" d="M114 -11q-44 0 -69.5 24.5t-25.5 67.5q0 31 18.5 55.5t54.5 24.5q56 0 56 -56q0 -27 -19.5 -47t-51.5 -20q13 -18 36 -18q52 0 89 85.5t39 220.5v6q0 141 -66 141q-73 0 -97 -126l-33 7q16 76 48 117.5t93 41.5q67 0 107.5 -45.5t41.5 -132.5q0 -30 -5 -67h77l27 233h103 l-27 -232h78q22 105 82.5 174.5t128.5 69.5q44 0 69 -24t25 -68q0 -31 -18 -55.5t-54 -24.5q-57 0 -57 56q0 27 19.5 47t51.5 21q-12 17 -36 17q-52 0 -88.5 -85.5t-37.5 -220.5v-11q0 -136 64 -136q72 0 98 126l32 -7q-16 -76 -47.5 -117.5t-93.5 -41.5q-67 0 -107.5 45.5 t-40.5 132.5q0 43 5 73h-77l-28 -240h-103l28 239h-78q-21 -107 -81.5 -178.5t-129.5 -71.5z" horiz-adv-x="914" unicode="ж"/>
<glyph glyph-name="uni0437" d="M208 -11q-85 0 -130 34.5t-45 88.5q0 31 19 52t51 21q54 0 54 -51q0 -27 -16.5 -45t-45.5 -22q28 -46 107 -46q56 0 87.5 34t31.5 90q0 50 -27.5 72.5t-87.5 22.5h-44l4 33h45q112 0 112 122q0 38 -21.5 58.5t-58.5 20.5q-97 0 -136 -138h-31l22 170h28l21 -38 q51 45 131 45q63 0 106.5 -29t43.5 -88q0 -58 -40.5 -91.5t-94.5 -43.5q57 -6 95.5 -35.5t38.5 -77.5q0 -81 -61.5 -120t-157.5 -39z" horiz-adv-x="476" unicode="з"/>
<glyph glyph-name="uni0438" d="M201 -11q-60 0 -92 36.5t-32 98.5q0 10 2 32l39 312h-83l4 33q156 0 172 10l14 -10l-43 -349q-2 -22 -2 -31q0 -79 61 -79q50 0 83 57t45 161l25 208h-64l5 33q136 0 152 10l14 -10l-49 -405q-2 -18 -2 -24q0 -44 31 -44q23 0 38 28.5t23 95.5h31q-12 -88 -35.5 -125.5 t-82.5 -37.5q-84 0 -84 93q0 14 1 22q1 4 1.5 11t2 21t2.5 24l1 9q-40 -180 -178 -180z" unicode="и"/>
<glyph glyph-name="uni0439" d="M201 -11q-60 0 -92 36.5t-32 98.5q0 10 2 32l39 312h-83l4 33q156 0 172 10l14 -10l-43 -349q-2 -22 -2 -31q0 -79 61 -79q50 0 83 57t45 161l25 208h-64l5 33q136 0 152 10l14 -10l-49 -405q-2 -18 -2 -24q0 -44 31 -44q23 0 38 28.5t23 95.5h31q-12 -88 -35.5 -125.5 t-82.5 -37.5q-84 0 -84 93q0 14 1 22q1 4 1.5 11t2 21t2.5 24l1 9q-40 -180 -178 -180zM301 577q-66 0 -101.5 35t-35.5 81v9q3 25 18.5 41t40.5 16q21 0 32.5 -11.5t11.5 -28.5v-6q-2 -20 -17.5 -34t-40.5 -14q-14 0 -21 2q28 -39 118 -39q95 0 130 40q-15 -4 -29 -4 q-44 0 -44 42v7q2 19 16 32.5t37 13.5q46 0 46 -49v-8q-4 -48 -47.5 -86.5t-113.5 -38.5z" unicode="й"/>
<glyph glyph-name="uni043A" d="M408 -11q-52 0 -75.5 32t-32.5 101q0 3 -2 21t-3.5 24t-4.5 21t-8 21.5t-12.5 15.5t-18.5 13t-26 4h-22l-30 -242h-104l58 469h-83l5 32q154 0 173 11l13 -10l-28 -227h28q35 0 56 24.5t32 59.5t23.5 70t39.5 59.5t70 24.5q28 0 50.5 -16.5t23.5 -48.5q-1 -28 -18 -48 t-52 -20q-26 0 -41 16.5t-15 40.5q0 9 3 19q-15 -13 -27 -42.5t-19.5 -58t-25.5 -57t-44 -41.5q59 -17 85 -48.5t33 -84.5q7 -60 16 -74t27 -14q36 0 51 116h30q-11 -87 -37 -125t-88 -38z" horiz-adv-x="552" unicode="к"/>
<glyph glyph-name="uni043B" d="M74 -11q-43 0 -63.5 21t-20.5 53v9q3 26 21 43.5t47 17.5q27 0 40.5 -15t13.5 -37q0 -1 -0.5 -5t-0.5 -5q-3 -33 -29 -45q31 2 52.5 33.5t37.5 111.5q28 130 47 298h-78l3 32h342l-49 -406q-2 -20 -2 -27q0 -40 29 -40q48 0 63 123h31q-12 -84 -37.5 -123t-88.5 -39 q-98 0 -98 99q0 8 2 30l42 351h-118q-26 -182 -42 -268t-37.5 -133.5t-45.5 -63t-61 -15.5z" horiz-adv-x="577" unicode="л"/>
<glyph glyph-name="uni043C" d="M74 -11q-37 0 -56 21t-19 52v10q3 26 21 43.5t47 17.5q27 0 40.5 -15.5t13.5 -37.5q0 -2 -0.5 -5t-0.5 -4q-3 -32 -27 -44q27 7 46 40t33 106q27 129 47 296h-78l3 32h204l73 -353l189 353h118l-49 -406q-2 -20 -2 -27q0 -40 29 -40q48 0 63 123h31q-12 -84 -37 -123 t-89 -39q-98 0 -98 99q0 8 2 30l39 321l-231 -439h-40l-89 440q-24 -164 -39 -237q-23 -127 -55.5 -170.5t-88.5 -43.5z" horiz-adv-x="820" unicode="м"/>
<glyph glyph-name="uni043D" d="M458 -11q-98 0 -98 99q0 8 2 30l15 124h-174l-30 -242h-104l58 469h-83l5 32q154 0 173 11l13 -10l-28 -227h174l27 226h104l-49 -406q-2 -20 -2 -27q0 -40 29 -40q48 0 63 123h31q-12 -84 -37.5 -123t-88.5 -39z" horiz-adv-x="603" unicode="н"/>
<glyph glyph-name="uni043E" d="M246 22q69 0 100.5 54t44.5 170q4 36 4 75q0 78 -25 118t-82 40q-69 0 -100.5 -52t-45.5 -168q-4 -36 -4 -76q0 -161 108 -161zM243 -11q-89 0 -149.5 66.5t-60.5 167.5q0 12 2 36q13 116 85.5 185t170.5 69q89 0 149 -65.5t60 -165.5q0 -12 -2 -36 q-12 -116 -84.5 -186.5t-170.5 -70.5z" horiz-adv-x="534" unicode="о"/>
<glyph glyph-name="uni043F" d="M456 -11q-97 0 -97 99q0 8 2 30l30 237q2 22 2 31q0 73 -59 73q-43 0 -81.5 -53.5t-52.5 -164.5l-29 -241h-103l57 469h-82l4 32q139 0 155 11l14 -10l-18 -141q24 71 70.5 111.5t109.5 40.5q116 0 116 -125q0 -24 -2 -37l-30 -255q-2 -22 -2 -28q0 -40 28 -40 q48 0 64 125h31q-12 -85 -37.5 -124.5t-89.5 -39.5z" horiz-adv-x="600" unicode="п"/>
<glyph glyph-name="uni0440" d="M-47 -250l4 33h84l85 686h-83l4 32q139 0 156 11l14 -10l-18 -135q18 65 64 105.5t110 40.5q84 0 132.5 -59.5t48.5 -162.5q0 -11 -2 -37q-11 -115 -74.5 -190t-151.5 -75h-2q-107 1 -146 78l-34 -284h113l-4 -33h-300zM310 25q57 0 90.5 63t42.5 165q2 20 2 55 q0 159 -100 160h-1q-55 0 -93 -57.5t-49 -147.5q0 -3 -1 -13.5t-2 -13.5q-2 -19 -2 -52q0 -84 29 -121t84 -38z" horiz-adv-x="587" unicode="р"/>
<glyph glyph-name="uni0441" d="M232 -11q-94 0 -147.5 61t-53.5 157q0 27 2 41q14 124 84.5 194.5t169.5 70.5q61 0 104 -31t43 -86q0 -31 -19 -52.5t-53 -21.5q-30 0 -45.5 16t-15.5 42q0 30 17 49.5t42 23.5q-25 28 -71 28q-62 0 -99.5 -60t-49.5 -168q-3 -28 -3 -54q0 -77 27.5 -124.5t85.5 -47.5 q53 0 87.5 36t48.5 91l33 -7q-44 -158 -187 -158z" horiz-adv-x="467" unicode="с"/>
<glyph glyph-name="uni0442" d="M678 -11q-97 0 -97 99q0 8 2 30l30 236q2 24 2 33q0 72 -51 72q-77 0 -105 -161l-38 -298h-104l46 354q3 21 3 39q0 66 -50 66q-43 0 -72 -47t-43 -161l-30 -251h-103l57 469h-82l4 32q139 0 155 11l14 -10l-16 -129q43 140 158 140q46 0 73.5 -26t33.5 -72q44 98 140 98 q111 0 111 -125q0 -24 -2 -37l-30 -255q-2 -22 -2 -28q0 -40 28 -40q48 0 64 123h31q-12 -84 -37.5 -123t-89.5 -39z" horiz-adv-x="822" unicode="т"/>
<glyph glyph-name="uni0443" d="M200 -259q-61 0 -103 31.5t-42 85.5q0 31 19 52t53 21q29 0 44 -15.5t15 -40.5q0 -29 -17 -49t-42 -24q24 -30 71 -30q72 0 106 50.5t46 147.5q0 3 10 77.5t10 75.5q-47 -123 -171 -123q-58 0 -89.5 32t-31.5 93q0 11 2 33l38 310h-83l4 33q156 0 172 10l14 -10l-42 -346 q-2 -22 -2 -31q0 -71 56 -71q115 0 139 210l25 205h-64l5 33q136 0 152 10l14 -10l-57 -465q-20 -159 -80.5 -227t-170.5 -68z" horiz-adv-x="564" unicode="у"/>
<glyph glyph-name="uni0444" d="M444 -264q-6 4 -44 67t-40 72q-5 -9 -58.5 -72t-60.5 -67l-9 10q97 172 125 388h-7q-46 -145 -144 -145q-86 0 -127 62t-41 154q0 25 3 51q8 68 33.5 124t75 94.5t114.5 38.5q104 0 114 -146h7q10 76 10 144q0 122 -39 244l11 10q7 -4 45.5 -67.5t40.5 -71.5q5 9 57.5 72 t59.5 67l9 -10q-100 -182 -125 -388h8q44 146 150 146q83 0 122.5 -57.5t39.5 -146.5q0 -26 -3 -53q-6 -51 -21.5 -96t-40.5 -85t-65.5 -63t-90.5 -23q-54 0 -84 41.5t-35 103.5h-8q-10 -81 -10 -152q0 -131 39 -236zM542 27q28 0 49.5 17.5t35 51t22 71.5t14.5 89 q6 48 6 89q0 130 -75 130q-48 0 -80 -51.5t-44 -137.5l-8 -65q-2 -32 -2 -46q0 -70 21.5 -109t60.5 -39zM228 27q40 0 69.5 44t40.5 119l11 90q4 29 4 62q0 62 -18.5 97.5t-54.5 35.5q-53 0 -85.5 -60t-45.5 -159q-5 -45 -5 -78q0 -151 84 -151z" horiz-adv-x="806" unicode="ф"/>
<glyph glyph-name="uni0445" d="M114 -11q-44 0 -69.5 24.5t-25.5 67.5q0 31 18.5 55.5t54.5 24.5q56 0 56 -56q0 -27 -19.5 -46.5t-51.5 -20.5q13 -18 36 -18q53 0 86 91t35 219v7q0 136 -59 136q-73 0 -97 -126l-33 7q16 76 48 117.5t93 41.5q52 0 79.5 -40.5t30.5 -109.5q25 71 65.5 110.5t91.5 39.5 q44 0 69 -24t25 -68q0 -31 -18 -55.5t-54 -24.5q-57 0 -57 56q0 27 19.5 47t51.5 21q-12 17 -36 17q-52 0 -85 -91t-35 -218v-13q0 -131 58 -131q72 0 98 126l32 -7q-16 -76 -48 -117.5t-93 -41.5q-51 0 -78.5 40.5t-31.5 109.5q-53 -150 -156 -150z" horiz-adv-x="568" unicode="х"/>
<glyph glyph-name="uni0446" d="M162 -255q7 45 20 75t28 46.5t40.5 25t47 10.5t58.5 2q84 0 120.5 26.5t55.5 103.5q-23 -45 -77 -45q-84 0 -84 93q0 14 1 21l2 17l4 32l1 17q-40 -180 -178 -180q-60 0 -92 36.5t-32 98.5q0 10 2 32l39 312h-83l4 33q156 0 172 10l14 -10l-43 -349q-2 -22 -2 -31 q0 -79 61 -79q50 0 83 57t45 161l25 208h-64l5 33q136 0 152 10l14 -10l-49 -405q-2 -18 -2 -24q0 -44 31 -44q23 0 38 28.5t23 95.5h31q-8 -75 -16.5 -123t-24 -93.5t-38.5 -70t-58 -39t-85 -14.5q-13 0 -33.5 0.5t-28.5 0.5q-45 0 -65.5 -13t-30.5 -55h-31z" horiz-adv-x="604" unicode="ц"/>
<glyph glyph-name="uni0447" d="M428 -11q-99 0 -99 100q0 9 2 29l16 124q-46 -54 -128 -54q-58 0 -95 34t-37 98q0 10 2 30l14 118h-83l5 33q156 0 173 10l13 -10l-21 -167q-2 -16 -2 -24q0 -36 17 -58t51 -22q69 0 96 63l25 208l104 -1l-49 -406q-2 -20 -2 -26q0 -40 29 -40q48 0 63 123h31 q-12 -84 -37 -123t-88 -39z" horiz-adv-x="573" unicode="ч"/>
<glyph glyph-name="uni0448" d="M195 -11q-55 0 -86 36t-31 103q0 19 3 40l37 301h-83l4 32q155 0 172 11l14 -10l-42 -337q-3 -24 -3 -44q0 -79 53 -79q36 0 61.5 37t40.5 127l38 295h103l-43 -336q-3 -24 -3 -44q0 -79 52 -79q41 0 68.5 48.5t42.5 169.5l29 241h103l-49 -405q-2 -16 -2 -23 q0 -43 32 -43q46 0 60 122h31q-12 -87 -36 -125t-82 -38q-84 0 -84 95q0 3 0.5 9t0.5 10q0 1 3.5 29t3.5 29q-38 -172 -159 -172q-96 0 -113 102q-43 -102 -136 -102z" horiz-adv-x="817" unicode="ш"/>
<glyph glyph-name="uni0449" d="M386 -255q7 45 20 75t28 46.5t40.5 25t47 10.5t58.5 2q84 0 120.5 27t55.5 104q-23 -46 -77 -46q-84 0 -84 95q0 3 0.5 9t0.5 10q0 1 3.5 29t3.5 29q-38 -172 -159 -172q-96 0 -113 102q-43 -102 -136 -102q-55 0 -86 36t-31 103q0 19 3 40l37 301h-83l4 32q155 0 172 11 l14 -10l-42 -337q-3 -24 -3 -44q0 -79 53 -79q36 0 61.5 37t40.5 127l38 295h103l-43 -336q-3 -24 -3 -44q0 -79 52 -79q41 0 68.5 48.5t42.5 169.5l29 241h103l-49 -405q-2 -16 -2 -23q0 -43 32 -43q46 0 60 122h31q-8 -75 -16.5 -123t-24 -93.5t-38.5 -70t-58 -39 t-85 -14.5q-13 0 -33.5 0.5t-28.5 0.5q-45 0 -66 -13t-30 -55h-31z" horiz-adv-x="828" unicode="щ"/>
<glyph glyph-name="uni044A" d="M269 26q43 0 69.5 40t26.5 94q0 102 -89 104q-27 0 -68 -19q-15 -55 -15 -99v-6q0 -114 76 -114zM258 -11q-79 0 -123 41.5t-44 109.5q0 77 42.5 139.5t130.5 145.5h-134q-33 0 -47.5 -20.5t-21.5 -66.5h-33l20 163h285l22 -22q-93 -94 -133 -198q43 18 96 18 q64 0 108.5 -34.5t44.5 -97.5q0 -74 -63.5 -126t-149.5 -52z" horiz-adv-x="501" unicode="ъ"/>
<glyph glyph-name="uni044B" d="M254 26q41 0 68.5 36t33.5 92q1 8 1 22q0 98 -89 98q-41 0 -73 -22l-9 -73q-4 -29 -4 -58q0 -49 16.5 -72t55.5 -23zM598 -11q-98 0 -98 99q0 8 2 30l46 383h104l-49 -406q-2 -20 -2 -27q0 -40 29 -40q48 0 63 123h31q-12 -84 -37 -123t-89 -39zM245 -11q-165 0 -165 157 q0 20 3 42l35 280h-83l4 33q156 0 172 10l14 -10l-26 -211q54 24 111 24q64 0 108.5 -36t44.5 -102q0 -8 -2 -24q-10 -75 -69 -119t-147 -44z" horiz-adv-x="744" unicode="ы"/>
<glyph glyph-name="uni044C" d="M254 26q41 0 68.5 35.5t33.5 91.5q1 8 1 23q0 101 -89 101q-39 0 -73 -21l-9 -77q-4 -29 -4 -58q0 -49 16.5 -72t55.5 -23zM245 -11q-165 0 -165 157q0 20 3 42l35 280h-83l4 33q156 0 172 10l14 -10l-26 -211q54 24 111 24q64 0 108.5 -36t44.5 -102q0 -8 -2 -24 q-10 -75 -69 -119t-147 -44z" horiz-adv-x="493" unicode="ь"/>
<glyph glyph-name="uni044D" d="M195 -11q-78 0 -120 32.5t-42 83.5q0 10 1 15q3 29 22.5 48.5t51.5 19.5q28 0 42 -15t14 -39q0 -1 -0.5 -4.5t-0.5 -5.5q-8 -58 -70 -65q30 -38 99 -38q76 0 113 58t45 167h-194l4 33h194q1 14 1 41q0 159 -105 159q-54 0 -91.5 -41.5t-56.5 -106.5h-31l22 175h28l21 -34 q48 41 119 41q84 0 141 -64.5t57 -163.5q0 -26 -2 -39q-13 -116 -87 -186.5t-175 -70.5z" horiz-adv-x="493" unicode="э"/>
<glyph glyph-name="uni044E" d="M484 22q66 0 94 52.5t41 171.5q5 52 5 84q0 73 -22.5 111t-75.5 38q-67 0 -94.5 -51t-41.5 -169q-5 -50 -5 -84q0 -75 23 -114t76 -39zM481 -11q-86 0 -143 65.5t-57 165.5q0 15 1 22h-79l-30 -242h-104l58 469h-83l5 32q154 0 173 11l13 -10l-28 -227h78 q17 109 84.5 173.5t159.5 64.5q85 0 142 -64.5t57 -164.5q0 -25 -2 -38q-13 -117 -81.5 -187t-163.5 -70z" horiz-adv-x="762" unicode="ю"/>
<glyph glyph-name="uni044F" d="M81 -11q-43 0 -62 23t-19 75q0 23 5 65h30q-4 -28 -4 -53q0 -63 25 -63q12 0 20 12t23 46q2 6 4 10.5t4 9.5q21 51 49 72.5t107 51.5q-72 3 -115 37t-43 93q0 65 51.5 105t146.5 40q93 0 134 -65l50 65h24l-63 -513h-103l29 232q-39 0 -39 -1q-27 0 -47 -10t-36 -32.5 t-25 -41t-23 -53.5q-22 -51 -48.5 -78t-74.5 -27zM329 261h49l13 113q1 7 1 19q0 41 -23.5 63.5t-61.5 22.5q-39 0 -67 -29.5t-28 -84.5q0 -50 32 -77t85 -27z" horiz-adv-x="575" unicode="я"/>
<glyph glyph-name="uni0451" d="M140 256q190 4 197 140v6q0 35 -16.5 56.5t-48.5 21.5q-51 0 -86 -60t-46 -164zM220 -11q-89 0 -139 60.5t-50 157.5q0 27 2 41q13 123 83 194t165 71q70 0 113 -34t43 -88v-5q-3 -78 -81.5 -120t-217.5 -43q-2 -30 -2 -45q0 -151 106 -151q58 0 89.5 31.5t51.5 95.5 l31 -7q-21 -78 -66 -118t-128 -40zM388 602q-32 0 -46 18.5t-14 41.5v6q2 25 21 47t55 22q32 0 46 -18t14 -41v-8q-2 -23 -21.5 -45.5t-54.5 -22.5zM190 602q-32 0 -46 18.5t-14 41.5v6q2 25 21 47t56 22q31 0 45 -18t14 -41v-8q-1 -23 -20.5 -45.5t-55.5 -22.5z" horiz-adv-x="473" unicode="ё"/>
<glyph glyph-name="uni0452" d="M241 -11v29q84 9 114 230q10 67 10 114q0 98 -53 98q-39 0 -76.5 -51.5t-51.5 -169.5l-33 -239h-103l76 605h-80l3 33h81l9 79h-83l4 32q157 0 174 11l14 -10l-19 -112h131l-3 -33h-133l-19 -128l-22 -126q21 78 68 120t109 42q108 0 108 -164q0 -37 -6 -83 q-39 -277 -219 -277z" horiz-adv-x="507" unicode="ђ"/>
<glyph glyph-name="uni0453" d="M200 -11q-79 0 -121.5 31.5t-42.5 91.5q0 48 24 79t59 47.5t69.5 33t58.5 47t24 77.5q0 81 -72 81q-80 0 -104 -113h-34q13 77 53 113t111 36q63 0 105 -34.5t42 -90.5q0 -49 -24 -81.5t-58.5 -50t-69 -33.5t-58.5 -44.5t-24 -71.5q0 -37 21.5 -60t61.5 -23 q49 0 81.5 33.5t40.5 94.5h35q-12 -81 -54 -122t-124 -41zM231 600l103 131q21 27 60 27h67q25 0 25 -11q0 -10 -23 -24l-202 -123h-30z" horiz-adv-x="420" unicode="ѓ"/>
<glyph glyph-name="uni0454" d="M419 147q-44 -158 -187 -158q-94 0 -147.5 61t-53.5 157q0 27 2 41q14 124 84.5 194.5t169.5 70.5q61 0 104 -31t43 -86q0 -31 -19 -52.5t-53 -21.5q-30 0 -45.5 16t-15.5 42q0 30 17 49.5t42 23.5q-25 28 -71 28q-60 0 -97 -55.5t-50 -155.5h150l-3 -32h-150 q-2 -28 -2 -42q0 -77 27.5 -123t85.5 -46q53 0 87.5 36t48.5 91z" horiz-adv-x="467" unicode="є"/>
<glyph glyph-name="uni0455" d="M19 -11l23 180h34q-1 -8 -1 -22q0 -59 33.5 -91.5t81.5 -32.5q51 0 81 22t30 63q0 18 -7.5 32.5t-14.5 23t-28.5 19.5t-28.5 14t-37 15q-54 23 -85 56t-32 90q1 70 48 112.5t122 42.5q69 0 113 -31l23 31h16l-23 -178h-33q2 24 2 33q0 58 -27.5 84.5t-71.5 26.5 q-41 0 -67 -21.5t-26 -58.5q0 -28 16 -49t33 -30.5t53 -25.5q28 -12 46.5 -22.5t38.5 -28t30.5 -42t10.5 -56.5q0 -69 -45 -112.5t-131 -43.5h-4q-77 0 -129 37l-28 -37h-16z" horiz-adv-x="433" unicode="ѕ"/>
<glyph glyph-name="uni0456" d="M179 -11q-99 0 -99 100q0 9 2 29l42 351h-83l5 32q154 0 173 11l13 -10l-49 -407q-2 -20 -2 -27q0 -40 29 -40q48 0 63 123h31q-12 -84 -37 -123t-88 -39zM185 603q-36 0 -52.5 21.5t-16.5 45.5q0 25 17.5 47t55.5 22q36 0 52.5 -21.5t16.5 -45.5t-18 -46.5t-55 -22.5z " horiz-adv-x="324" unicode="і"/>
<glyph glyph-name="uni0457" d="M179 -11q-99 0 -99 100q0 9 2 29l42 351h-83l5 32q154 0 173 11l13 -10l-49 -407q-2 -20 -2 -27q0 -40 29 -40q48 0 63 123h31q-12 -84 -37 -123t-88 -39zM287 604q-32 0 -46 18.5t-14 41.5v6q2 25 21 47t55 22q32 0 46 -18t14 -41v-8q-2 -23 -21.5 -45.5t-54.5 -22.5z M89 604q-32 0 -46 18.5t-14 41.5v6q2 25 21 47t56 22q31 0 45 -18t14 -41v-8q-1 -23 -20.5 -45.5t-55.5 -22.5z" horiz-adv-x="324" unicode="ї"/>
<glyph glyph-name="uni0458" d="M-35 -260q-48 0 -79.5 26.5t-31.5 72.5q0 33 18.5 55.5t51.5 22.5q62 0 62 -58q-2 -66 -70 -69q21 -18 48 -18q47 0 69.5 42.5t35.5 144.5l61 510h-87l5 32q157 0 176 11l14 -10l-57 -469q-20 -161 -75.5 -227t-140.5 -66zM190 603q-36 0 -52.5 21.5t-16.5 45.5 q0 25 17.5 47t55.5 22q36 0 52.5 -21.5t16.5 -45.5t-18 -46.5t-55 -22.5z" horiz-adv-x="310" unicode="ј"/>
<glyph glyph-name="uni0459" d="M74 -11q-43 0 -63.5 21t-20.5 53v9q3 26 21 43.5t47 17.5q27 0 40.5 -15t13.5 -37q0 -1 -0.5 -5t-0.5 -5q-3 -33 -29 -45q31 2 53 35t38 115q25 116 46 293h-78l3 32h174q141 0 157 10l11 -10l-26 -211q54 24 111 24q64 0 108.5 -36t44.5 -102q0 -8 -2 -24 q-10 -75 -69 -119t-147 -44q-165 0 -165 157q0 20 3 42l35 281h-119q-19 -147 -41 -263q-23 -128 -56 -172.5t-89 -44.5zM515 26q41 0 69 36t33 91q1 8 1 23q0 101 -89 101q-41 0 -72 -21l-10 -77q-4 -29 -4 -58q0 -49 16.5 -72t55.5 -23z" horiz-adv-x="754" unicode="љ"/>
<glyph glyph-name="uni045A" d="M541 26q41 0 68.5 35.5t33.5 91.5q1 8 1 23q0 101 -89 101q-39 0 -73 -21l-9 -77q-4 -29 -4 -58q0 -49 16.5 -72t55.5 -23zM532 -11q-165 0 -165 157q0 20 3 42l7 54h-174l-30 -242h-104l58 469h-83l5 32q154 0 173 11l13 -10l-28 -227h174l27 226q72 0 92 10l12 -10 l-26 -211q54 24 111 24q64 0 108.5 -36t44.5 -102q0 -8 -2 -24q-10 -75 -69 -119t-147 -44z" horiz-adv-x="780" unicode="њ"/>
<glyph glyph-name="uni045B" d="M432 -11q-96 0 -96 98q0 9 2 31l30 236q2 24 2 34q0 72 -55 72q-44 0 -81.5 -48.5t-51.5 -163.5l-31 -248h-103l75 605h-80l3 33h81l10 79h-83l4 32q157 0 174 11l14 -10l-19 -112h131l-4 -33h-132l-30 -188l-9 -48q23 70 68.5 107t105.5 37q115 0 115 -119q0 -25 -2 -38 l-33 -260q-2 -20 -2 -26q0 -42 29 -42q48 0 64 125h31q-13 -85 -38 -124.5t-89 -39.5z" horiz-adv-x="576" unicode="ћ"/>
<glyph glyph-name="uni045C" d="M408 -11q-52 0 -75.5 32t-32.5 101q0 3 -2 21t-3.5 24t-4.5 21t-8 21.5t-12.5 15.5t-18.5 13t-26 4h-22l-30 -242h-104l58 469h-83l5 32q154 0 173 11l13 -10l-28 -227h28q35 0 56 24.5t32 59.5t23.5 70t39.5 59.5t70 24.5q28 0 50.5 -16.5t23.5 -48.5q-1 -28 -18 -48 t-52 -20q-26 0 -41 16.5t-15 40.5q0 9 3 19q-15 -13 -27 -42.5t-19.5 -58t-25.5 -57t-44 -41.5q59 -17 85 -48.5t33 -84.5q7 -60 16 -74t27 -14q36 0 51 116h30q-11 -87 -37 -125t-88 -38zM298 590l103 131q21 27 60 27h67q25 0 25 -11q0 -10 -23 -24l-202 -123h-30z" horiz-adv-x="552" unicode="ќ"/>
<glyph glyph-name="uni045E" d="M200 -259q-61 0 -103 31.5t-42 85.5q0 31 19 52t53 21q29 0 44 -15.5t15 -40.5q0 -29 -17 -49t-42 -24q24 -30 71 -30q72 0 106 50.5t46 147.5q0 3 10 77.5t10 75.5q-47 -123 -171 -123q-58 0 -89.5 32t-31.5 93q0 11 2 33l38 310h-83l4 33q156 0 172 10l14 -10l-42 -346 q-2 -22 -2 -31q0 -71 56 -71q115 0 139 210l25 205h-64l5 33q136 0 152 10l14 -10l-57 -465q-20 -159 -80.5 -227t-170.5 -68zM318 565q-73 0 -112.5 38.5t-39.5 89.5v11q3 27 20.5 45t44.5 18q24 0 36.5 -12t12.5 -32v-7q-3 -22 -19 -38t-44 -16q-12 0 -24 3q13 -20 49 -32 t81 -12q105 0 145 45q-16 -4 -32 -4q-26 0 -38 13t-12 32q0 1 0.5 4t0.5 5q2 22 18 36.5t41 14.5q26 0 38.5 -15.5t12.5 -39.5v-8q-5 -53 -53 -96t-126 -43z" horiz-adv-x="564" unicode="ў"/>
<glyph glyph-name="uni045F" d="M452 96q-2 -18 -2 -24q0 -44 31 -44q23 0 38 28.5t23 95.5h31q-12 -88 -35.5 -125.5t-82.5 -37.5q-83 0 -83 91q0 14 1 22q-1 1 3 34t3 33q-24 -131 -108 -165q-5 -12 -5 -23q0 -12 7 -43.5t7 -51.5q0 -72 -82 -142l-20 18q16 21 16 46q0 11 -4.5 37.5t-4.5 41.5 q0 53 49 105q-15 -3 -33 -3q-60 0 -92 36.5t-32 98.5q0 10 2 32l39 312h-83l4 33q156 0 172 10l14 -10l-43 -349q-2 -22 -2 -31q0 -79 61 -79q50 0 83 57t45 161l25 208h-64l5 33q136 0 152 10l14 -10z" unicode="џ"/>
<glyph glyph-name="uni0462" d="M290 33h40q88 0 132.5 35t53.5 113q2 18 2 27q0 120 -150 120h-41zM96 0l5 33h82l62 508h-20q-79 -1 -110 -19t-42 -85l-3 -27h-32l19 164h191l11 85h-82l5 32h271l-4 -32h-82l-11 -85h191l-19 -164h-33l1 7q3 26 3 44q0 51 -26.5 65t-99.5 15h-20l-23 -181h50 q65 0 120 -15.5t93.5 -52.5t38.5 -91q0 -13 -1 -20q-21 -181 -297 -181h-238z" horiz-adv-x="665" unicode="Ѣ"/>
<glyph glyph-name="uni0463" d="M524 26q41 0 69 36t33 91q1 8 1 23q0 98 -89 98q-44 0 -73 -22l-9 -73q-4 -29 -4 -58q0 -49 16.5 -72t55.5 -23zM515 -11q-165 0 -165 155q0 22 3 44l22 167q2 20 2 28q0 76 -56 76q-47 0 -76 -46.5t-45 -171.5l-29 -241h-103l57 469h-82l4 32q139 0 155 11l14 -10 l-17 -135q45 146 165 146q56 0 85 -34t29 -94q0 -10 -2 -34l-7 -61q51 24 111 24q64 0 108.5 -36t44.5 -102q0 -8 -2 -24q-9 -75 -68.5 -119t-147.5 -44z" horiz-adv-x="763" unicode="ѣ"/>
<glyph glyph-name="uni0472" d="M293 22q82 0 134.5 71.5t74.5 242.5h-342q-6 -59 -6 -104q0 -112 35.5 -161t103.5 -49zM164 368h341q6 54 6 97q0 110 -35.5 156.5t-103.5 46.5q-81 0 -133 -67.5t-75 -232.5zM289 -11q-52 0 -94.5 17.5t-70.5 47t-47.5 69.5t-28 82.5t-8.5 88.5q0 26 3 52q8 63 33.5 124 t65.5 113.5t101.5 85t133.5 32.5q64 0 113.5 -25.5t78 -69t42.5 -95t14 -108.5q0 -19 -4 -57q-8 -63 -32.5 -124t-65 -114.5t-101.5 -86t-133 -32.5z" horiz-adv-x="652" unicode="Ѳ"/>
<glyph glyph-name="uni0473" d="M246 22q69 0 100.5 53t44.5 167h-251q-3 -32 -3 -60q0 -160 109 -160zM144 275h249q2 34 2 48q0 156 -107 156q-68 0 -99.5 -48.5t-44.5 -155.5zM243 -11q-89 0 -149.5 66.5t-60.5 167.5q0 12 2 36q13 116 85.5 185t170.5 69q89 0 149 -65.5t60 -165.5q0 -12 -2 -36 q-12 -116 -84.5 -186.5t-170.5 -70.5z" horiz-adv-x="534" unicode="ѳ"/>
<glyph glyph-name="uni0474" d="M280 -10h-36l-142 667h-78l4 33h310l-4 -33h-119l104 -492l198 430q28 60 57 83t73 23q33 0 57 -22t24 -58q0 -37 -22 -62t-51 -25q-28 0 -44 14.5t-16 39.5q0 27 18.5 48t51.5 23q-11 7 -25 7q-26 0 -45 -18t-39 -62z" horiz-adv-x="673" unicode="Ѵ"/>
<glyph glyph-name="uni0475" d="M191 -10l-122 479h-65l3 32h261l-3 -32h-90l78 -311l114 257q22 50 48.5 74t69.5 24q40 0 63.5 -24t23.5 -63q0 -37 -20.5 -60.5t-51.5 -23.5q-26 0 -41.5 15t-15.5 39q0 29 19 48.5t55 19.5q-11 14 -35 14q-46 0 -78 -73l-185 -415h-28z" horiz-adv-x="570" unicode="ѵ"/>
<glyph glyph-name="uni0490" d="M6 0l4 33h82l76 624h-81l4 33h267q83 0 122 30.5t49 113.5l5 35h33l-27 -212h-264l-76 -624h130l-5 -33h-319z" horiz-adv-x="511" unicode="Ґ"/>
<glyph glyph-name="uni0491" d="M79 0l57 469h-77l4 32h247q113 0 129 127l3 25h33l-23 -184h-213l-57 -469h-103z" horiz-adv-x="450" unicode="ґ"/>
<glyph glyph-name="endash" d="M96 273l4 36h486l-4 -36h-486z" horiz-adv-x="683" unicode="–"/>
<glyph glyph-name="emdash" d="M96 273l4 36h636l-4 -36h-636z" horiz-adv-x="833" unicode="—"/>
<glyph glyph-name="quoteleft" d="M196 700l18 -24q-25 -15 -50.5 -42.5t-32.5 -58.5q7 6 21 6q23 0 40.5 -16.5t17.5 -41.5q0 -27 -18 -50t-52 -23q-61 0 -61 67q0 58 34 107.5t83 75.5z" horiz-adv-x="240" unicode="‘"/>
<glyph glyph-name="quoteright" d="M111 450l-18 24q25 15 50.5 42.5t32.5 58.5q-8 -6 -21 -6q-23 0 -40.5 16.5t-17.5 41.5q0 27 18 50t52 23q61 0 61 -67q0 -58 -34 -107.5t-83 -75.5z" horiz-adv-x="239" unicode="’"/>
<glyph glyph-name="quotesinglbase" d="M47 -131l-18 24q25 15 50.5 42.5t32.5 58.5q-8 -6 -21 -6q-23 0 -40.5 16.5t-17.5 41.5q0 27 18 50t52 23q61 0 61 -67q0 -58 -34 -107.5t-83 -75.5z" horiz-adv-x="249" unicode="‚"/>
<glyph glyph-name="quotedblleft" d="M372 700l18 -24q-25 -15 -50.5 -42.5t-32.5 -58.5q7 6 21 6q23 0 40.5 -16.5t17.5 -41.5q0 -27 -18 -50t-52 -23q-61 0 -61 67q0 58 34 107.5t83 75.5zM196 700l18 -24q-25 -15 -50.5 -42.5t-32.5 -58.5q7 6 21 6q23 0 40.5 -16.5t17.5 -41.5q0 -27 -18 -50t-52 -23 q-61 0 -61 67q0 58 34 107.5t83 75.5z" horiz-adv-x="420" unicode="“"/>
<glyph glyph-name="quotedblright" d="M287 450l-18 24q25 15 50.5 42.5t32.5 58.5q-8 -6 -21 -6q-23 0 -40.5 16.5t-17.5 41.5q0 27 18 50t52 23q61 0 61 -67q0 -58 -34 -107.5t-83 -75.5zM111 450l-18 24q25 15 50.5 42.5t32.5 58.5q-8 -6 -21 -6q-23 0 -40.5 16.5t-17.5 41.5q0 27 18 50t52 23q61 0 61 -67 q0 -58 -34 -107.5t-83 -75.5z" horiz-adv-x="419" unicode="”"/>
<glyph glyph-name="quotedblbase" d="M228 -131l-18 24q25 15 50.5 42.5t32.5 58.5q-7 -6 -21 -6q-23 0 -40.5 16.5t-17.5 41.5q0 27 18 50t52 23q61 0 61 -67q0 -58 -34 -107.5t-83 -75.5zM47 -131l-18 24q25 15 50.5 42.5t32.5 58.5q-8 -6 -21 -6q-23 0 -40.5 16.5t-17.5 41.5q0 27 18 50t52 23q61 0 61 -67 q0 -58 -34 -107.5t-83 -75.5z" horiz-adv-x="452" unicode="„"/>
<glyph glyph-name="dagger" d="M164 -250q11 88 15.5 225t5 241t1.5 110q3 24 33.5 69t34.5 70q-28 0 -78 -23t-78 -23q-19 0 -36 12t-17 39q0 1 0.5 4.5t0.5 5.5q5 29 26.5 45t40.5 16q29 0 73.5 -23.5t68.5 -23.5q1 5 1 13q0 22 -14 60.5t-14 61.5v10q2 21 19.5 41t50.5 20q26 0 40 -18t14 -38v-5 q-4 -28 -34 -72.5t-33 -72.5q29 0 78 23.5t73 23.5q22 0 40 -13t18 -37q0 -7 -1 -11q-6 -33 -27 -47t-46 -14q-24 0 -67.5 23t-68.5 23q0 -1 -0.5 -5t-0.5 -5q0 -21 14.5 -59t14.5 -58q0 -8 -1 -12q-1 -5 -25.5 -110t-52.5 -241.5t-39 -224.5h-30z" horiz-adv-x="494" unicode="†"/>
<glyph glyph-name="daggerdbl" d="M172 -259q-30 0 -43 16t-13 38v9q3 25 35.5 75t35.5 75q-28 0 -76 -23.5t-76 -23.5q-17 0 -34.5 13.5t-17.5 37.5q0 6 1 10q5 32 25.5 46.5t41.5 14.5q28 0 73 -23t69 -23q0 2 0.5 5.5t0.5 5.5q0 24 -18 58.5t-18 54.5q0 1 0.5 4t0.5 5q1 5 6.5 18.5t16.5 39t20 49.5 q-3 20 -7.5 46.5t-6.5 40.5t-2 20q0 26 31.5 69t34.5 66q-28 0 -77.5 -23t-76.5 -23q-19 0 -36 12t-17 39q0 1 0.5 4.5t0.5 5.5q5 29 26.5 45t40.5 16q29 0 73.5 -23.5t68.5 -23.5q1 5 1 13q0 22 -14 60.5t-14 61.5v10q2 21 19.5 41t50.5 20q26 0 40 -18t14 -38v-5 q-3 -28 -33.5 -72.5t-33.5 -72.5q29 0 78 23.5t73 23.5q22 0 40 -13t18 -38q0 -6 -1 -10q-5 -33 -26 -47t-47 -14q-24 0 -69 23t-69 23q-1 -4 -1 -11q0 -19 15 -54.5t15 -58.5v-9q0 -5 -5 -18.5t-15 -41l-18 -49.5q11 -92 11 -103q0 -25 -29 -67t-32 -70q28 0 77 23t73 23 t41.5 -12t17.5 -39q0 -1 -0.5 -4.5t-0.5 -5.5q-5 -29 -27 -45t-46 -16t-68.5 23.5t-73.5 23.5q-1 -23 12 -68.5t13 -68.5q0 -9 -1 -13q-3 -23 -21 -43t-47 -20z" horiz-adv-x="496" unicode="‡"/>
<glyph glyph-name="bullet" d="M149 202q-49 0 -70 26t-21 60q0 2 0.5 6t0.5 6q4 32 31.5 62t81.5 30q45 0 64.5 -25t19.5 -56q0 -2 -0.5 -6t-0.5 -5q-4 -36 -29.5 -67t-76.5 -31z" horiz-adv-x="289" unicode="•"/>
<glyph glyph-name="ellipsis" d="M587 -11q-36 0 -50 20t-14 45q1 29 22.5 53t58.5 24q34 0 49 -19t15 -43q0 -31 -21.5 -55.5t-59.5 -24.5zM345 -11q-36 0 -50 20t-14 45q1 29 22.5 53t58.5 24q34 0 49 -19t15 -43q0 -31 -21.5 -55.5t-59.5 -24.5zM102 -11q-36 0 -50 20t-14 45q1 29 22.5 53t58.5 24 q34 0 49 -19t15 -43q0 -31 -21.5 -55.5t-59.5 -24.5z" horiz-adv-x="758" unicode="…"/>
<glyph glyph-name="perthousand" d="M605 22q46 0 77 56t31 130q0 51 -19 80t-54 29q-48 0 -77 -57.5t-29 -130.5q0 -107 71 -107zM976 32q46 0 77 56t31 130q0 50 -19 79t-54 29q-47 0 -75.5 -55.5t-29.5 -127.5v-8q0 -103 70 -103zM579 -12q-57 0 -102.5 45t-45.5 113q0 83 63.5 144t129.5 61q61 0 96 -41 t35 -109q0 -90 -50.5 -151.5t-125.5 -61.5zM950 -3q-57 0 -102.5 45t-45.5 114q0 82 63.5 143.5t129.5 61.5q61 0 96 -41t35 -109q0 -90 -50.5 -152t-125.5 -62zM249 372q46 0 77 56t31 130q0 51 -19 80t-54 29q-48 0 -77 -57.5t-29 -130.5q0 -107 71 -107zM165 -11l-38 27 l441 558q10 12 13 19q-43 -9 -79 -9q-63 0 -111 24q8 -29 8 -60q-2 -89 -52 -149.5t-124 -60.5q-57 0 -102.5 45t-45.5 113q0 83 63.5 144t129.5 61q58 0 92 -37q56 -45 141 -45q50 0 104 15q22 46 34 56q15 11 36 11q16 0 27 -9.5t11 -23.5q0 -23 -16.5 -40.5t-40 -32.5 t-30.5 -23z" horiz-adv-x="1169" unicode="‰"/>
<glyph glyph-name="guilsinglleft" d="M207 64l-188 187v23l238 166l-7 -30l-126 -144l90 -172z" horiz-adv-x="311" unicode="‹"/>
<glyph glyph-name="guilsinglright" d="M47 64l1 30l126 172l-84 144l1 30l195 -166l-7 -23z" horiz-adv-x="313" unicode="›"/>
<glyph glyph-name="fraction" d="M-1 0l361 750h47l-360 -750h-48z" horiz-adv-x="472" unicode="⁄"/>
<glyph glyph-name="Euro" d="M395 -11q-113 0 -177.5 76t-76.5 187h-122l1 33h119q0 31 3 61q5 29 7 36h-98l1 33h105q35 117 122.5 201.5t202.5 84.5q82 0 129 -37l45 36h17l-28 -230h-33q3 26 3 48q0 149 -132 149q-165 0 -212 -252h258l-21 -33h-243q-1 -6 -2.5 -18t-2.5 -18q-3 -20 -5 -61h203 l-21 -33h-184v-8q0 -221 151 -221q83 0 127.5 55.5t55.5 145.5h33l-29 -234h-18l-35 38q-69 -39 -143 -39z" horiz-adv-x="688" unicode="€"/>
<glyph glyph-name="uni20B4" d="M29 321h499l-4 -33h-268q-58 -30 -91 -63.5t-40 -86.5q-1 -6 -1 -19q0 -45 30 -70.5t89 -25.5q87 0 138 58t61 142h33l-29 -233h-17l-35 51q-58 -52 -155 -52q-101 0 -149 41t-48 111q0 84 54 147h-72zM535 378h-498l3 32h253q65 30 101 63.5t43 89.5q1 6 1 17 q0 40 -26.5 63t-78.5 23q-77 0 -128.5 -51.5t-62.5 -144.5h-33l28 230h18l30 -50q75 51 161 51q83 0 124 -36.5t41 -100.5q0 -9 -2 -27q-10 -75 -55 -127h84z" horiz-adv-x="551" unicode="₴"/>
<glyph glyph-name="uni20B8" d="M90 0l5 33h103l67 549h-37q-80 -1 -113.5 -31t-43.5 -114l-6 -43h-33l27 220h528l-27 -220h-32l5 43q3 25 3 45q0 56 -28.5 77.5t-97.5 22.5h-37l-67 -549h104l-5 -33h-315zM65 657l4 33h528l-5 -33h-527z" horiz-adv-x="568" unicode="₸"/>
<glyph glyph-name="uni20BD" d="M237 320h37q94 0 136 45t52 127q3 21 3 40q0 60 -34.5 92.5t-116.5 32.5h-35zM8 0l5 33h81l22 172h-82l3 32h83l6 50h-83l4 33h82l42 337h-82l4 33h221q134 0 200.5 -46t66.5 -126q0 -7 -2 -25q-11 -91 -90.5 -148.5t-222.5 -57.5h-33l-6 -50h192l-4 -32h-192l-21 -172 h118l-5 -33h-307z" horiz-adv-x="581" unicode="₽"/>
<glyph glyph-name="uni2116" d="M679 0l4 33h406l-4 -33h-406zM693 110l4 33h406l-4 -33h-406zM918 245q51 0 80 42.5t42 129.5q4 24 4 51q0 55 -21.5 87t-63.5 32q-57 0 -84 -43t-38 -127q-5 -40 -5 -66q0 -53 19.5 -79.5t66.5 -26.5zM911 219q-70 0 -116.5 43.5t-46.5 123.5q0 9 2 31q11 90 72.5 143.5 t137.5 53.5q69 0 116 -43.5t47 -119.5q0 -22 -2 -34q-14 -95 -73.5 -146.5t-136.5 -51.5zM9 0l4 33h82l76 624h-81l4 33h179l266 -495l57 462h-88l5 33h212l-5 -33h-82l-81 -666h-37l-316 590l-66 -548h87l-4 -33h-212z" horiz-adv-x="1170" unicode="№"/>
<glyph glyph-name="trademark" d="M275 497l2 16h25l20 164h-24l2 16h79l40 -107l59 107h82l-2 -16h-25l-20 -164h25l-2 -16h-99l2 16h26l20 154l-81 -142h-14l-48 142l-20 -154h30l-2 -16h-75zM100 497l2 16h28l20 164h-13q-22 0 -31 -8t-13 -33l-2 -17h-16l10 74h187l-10 -74h-15l2 17q1 6 1 15 q0 15 -7.5 20.5t-25.5 5.5h-19l-21 -164h29l-2 -16h-104z" horiz-adv-x="566" unicode="™"/>
<glyph glyph-name="uni2126" d="M374 -1l5 32q74 28 132.5 105.5t73.5 206.5q5 50 5 82q0 126 -49.5 185t-125.5 59q-93 0 -164.5 -79t-87.5 -247q-3 -28 -3 -55q0 -102 37.5 -167.5t94.5 -89.5l-4 -31h-288l6 33h216q-82 41 -128 119.5t-46 170.5q0 19 1 29q5 59 33 119.5t73.5 112t114 84t146.5 32.5 q73 0 129.5 -26t90.5 -70t51 -97t17 -112q0 -27 -3 -52q-12 -92 -80.5 -179t-170.5 -131h217l-8 -33z" horiz-adv-x="735" unicode="Ω"/>
<glyph glyph-name="partialdiff" d="M246 22q35 0 62 20.5t43.5 55t25.5 71t14 77.5q4 31 4 66q0 167 -112 167q-63 0 -95.5 -54.5t-45.5 -165.5q-5 -43 -5 -75q0 -162 109 -162zM243 -11q-89 0 -149.5 66.5t-60.5 167.5q0 12 2 36q13 115 82.5 184.5t160.5 69.5q110 0 138 -99q1 15 1 44q0 135 -34 203 t-107 68q-71 0 -120 -49l-18 22q65 63 152 63q109 0 166 -94.5t57 -248.5q0 -57 -7 -112q-39 -321 -263 -321z" horiz-adv-x="561" unicode="∂"/>
<glyph glyph-name="uni2206" d="M26 31h347l-109 511zM-16 0l4 25l312 675h37l152 -675l-4 -25h-501z" horiz-adv-x="545" unicode="∆"/>
<glyph glyph-name="product" d="M61 -252l112 909h-82l3 33h609l-4 -33h-88l-111 -909h-104l112 909h-225l-112 -909h-110z" horiz-adv-x="699" unicode="∏"/>
<glyph glyph-name="summation" d="M-31 -250l4 33h78l267 374l-172 500h-66l4 33h477l-28 -221h-30l8 69q0 4 0.5 10t0.5 9q0 58 -32 79t-104 21h-118l154 -447l-312 -427h206q42 0 69.5 8.5t43.5 29.5t23.5 47t12.5 69l5 35h31l-28 -222h-494z" horiz-adv-x="582" unicode="∑"/>
<glyph glyph-name="minus" d="M34 292l6 44h406l-6 -44h-406z" horiz-adv-x="476" unicode="−"/>
<glyph glyph-name="radical" d="M202 -10l-127 479h-57l4 32h146l94 -358l289 607h157l-4 -33h-130l-348 -727h-24z" horiz-adv-x="513" unicode="√"/>
<glyph glyph-name="infinity" d="M128 207q52 0 134 69q-30 36 -55 54t-58 18q-36 0 -58.5 -19t-26.5 -52q0 -1 -0.5 -5t-0.5 -5q0 -28 18 -44t47 -16zM446 226q78 0 86 71v9q0 61 -73 61q-48 0 -124 -69q29 -35 53.5 -53.5t57.5 -18.5zM423 171q-43 0 -75 21.5t-65 60.5q-93 -82 -155 -82 q-38 0 -66.5 24.5t-28.5 69.5q0 10 1 16q7 61 48 91.5t96 30.5q42 0 72.5 -20.5t63.5 -59.5q91 80 151 80q92 0 92 -84q0 -8 -2 -26q-8 -57 -42.5 -89.5t-89.5 -32.5z" unicode="∞"/>
<glyph glyph-name="integral" d="M-48 -260q-52 0 -84.5 23.5t-32.5 70.5q0 34 19 57.5t55 23.5q27 0 42 -15.5t15 -40.5q0 -31 -19 -50t-53 -21q15 -15 51 -15q87 0 110 160l70 567q9 73 33 127t57 82.5t68 42t73 13.5q48 0 82.5 -24t34.5 -70q0 -34 -19 -57.5t-54 -23.5q-28 0 -43 15.5t-15 40.5 q0 31 19 50t53 20q-15 17 -51 17q-53 0 -84.5 -38.5t-42.5 -122.5l-69 -560q-18 -140 -78 -206t-137 -66z" horiz-adv-x="377" unicode="∫"/>
<glyph glyph-name="approxequal" d="M323 117q-36 0 -67 18.5t-48.5 40.5t-40.5 40.5t-46 18.5q-69 0 -80 -111h-36q11 79 43 120.5t97 41.5q38 0 69.5 -18.5t49 -40.5t41.5 -40.5t48 -18.5q63 0 73 110h36q-12 -83 -39.5 -122t-99.5 -39zM355 323q-36 0 -67 18.5t-48.5 40.5t-40.5 40.5t-46 18.5 q-69 0 -80 -111h-36q11 79 43 120.5t97 41.5q38 0 69.5 -18.5t49 -40.5t41.5 -40.5t48 -18.5q63 0 73 110h36q-12 -83 -39.5 -122t-99.5 -39z" horiz-adv-x="496" unicode="≈"/>
<glyph glyph-name="notequal" d="M406 212h-201l-105 -137h-51l105 137h-94l7 44h121l89 116h-198l6 44h226l87 113h51l-87 -113h69l-6 -44h-97l-88 -116h173z" horiz-adv-x="460" unicode="≠"/>
<glyph glyph-name="lessequal" d="M26 101l6 44h306l-6 -44h-306zM342 184l-280 179l4 33l323 179l-7 -59l-251 -139l219 -133z" horiz-adv-x="406" unicode="≤"/>
<glyph glyph-name="greaterequal" d="M26 101l6 44h306l-6 -44h-306zM85 575l280 -179l-4 -33l-323 -179l8 64l250 134l-218 139z" horiz-adv-x="406" unicode="≥"/>
<glyph glyph-name="lozenge" d="M257 -139l174 302l-150 414l-173 -299zM196 -259l-169 469l283 490h34l169 -469l-283 -490h-34z" horiz-adv-x="558" unicode="◊"/>
<glyph glyph-name="Acute" d="M20 740l86 103q21 27 60 27h75q26 0 26 -11q0 -10 -24 -24l-193 -95h-30z" horiz-adv-x="338" unicode=""/>
<glyph glyph-name="Grave" d="M322 742l-182 94q-15 9 -15 20q0 16 28 16h87q26 0 45 -29l68 -101h-31z" horiz-adv-x="379" unicode=""/>
<glyph glyph-name="Hungarumlaut" d="M250 740l99 104q23 26 62 26h78q25 0 25 -10t-27 -24l-197 -96h-40zM143 740l31 104q7 26 52 26h61q28 0 28 -10q0 -9 -20 -24l-126 -96h-26z" horiz-adv-x="500" unicode=""/>
<glyph glyph-name="cyrbreve" d="M256 565q-73 0 -112.5 38.5t-39.5 89.5v11q3 27 20.5 45t44.5 18q24 0 36.5 -12t12.5 -32v-7q-3 -22 -19 -38t-44 -16q-12 0 -24 3q13 -20 49 -32t81 -12q105 0 145 45q-16 -4 -32 -4q-26 0 -38 13t-12 32q0 1 0.5 4t0.5 5q2 22 18 36.5t41 14.5q26 0 38.5 -15.5 t12.5 -39.5v-8q-5 -53 -53 -96t-126 -43z" horiz-adv-x="472" unicode=""/>
<glyph glyph-name="uni00200326" d="M33 -306l-18 24q25 15 50.5 42.5t32.5 58.5q-8 -6 -21 -6q-23 0 -40.5 16.5t-17.5 41.5q0 27 18 50t52 23q61 0 61 -67q0 -58 -34 -107.5t-83 -75.5z" horiz-adv-x="263"/>
<glyph glyph-name="c_t" d="M523 129l41 340h-69l5 32q54 0 93 25.5t47 79.5q2 18 2 26q0 56 -38 83t-97 27q-28 0 -55.5 -9t-55.5 -29t-45.5 -60t-18.5 -95q0 -16 2 -42q41 -9 66 -32.5t25 -58.5q0 -29 -14.5 -45t-39.5 -16q-64 0 -73 125h-12q-60 -1 -97.5 -61t-48.5 -166q-3 -28 -3 -54 q0 -77 27.5 -124.5t85.5 -47.5q53 0 87.5 36t48.5 91l33 -7q-44 -158 -187 -158q-94 0 -147.5 61t-53.5 157q0 27 2 41q14 124 84.5 194.5t169.5 70.5l10 -1v30q1 116 63 174t151 58q86 0 130 -40t44 -110q0 -8 -2 -28l-12 -95h140l-4 -32h-139l-44 -359q-2 -20 -2 -28 q0 -56 38 -56q33 0 52 31.5t30 109.5h33q-15 -98 -45.5 -138t-101.5 -40q-107 0 -107 109q0 9 2 31z" horiz-adv-x="819"/>
<glyph glyph-name="f_f" d="M-44 -259q-48 0 -82.5 23.5t-34.5 69.5q0 34 19 57.5t54 23.5q28 0 43 -15.5t15 -40.5q0 -31 -19 -50t-53 -21q15 -15 51 -15q87 0 109 160l66 536h-86l4 32h87q20 128 85.5 183.5t152.5 55.5q76 0 117 -41q61 65 155 65q58 0 98.5 -27t40.5 -75q0 -37 -18 -59t-50 -22 q-29 0 -46 15.5t-17 40.5q0 31 19 50t53 21q-24 24 -73 24q-58 0 -89.5 -39t-42.5 -121l-9 -71h139l-5 -32h-138l-49 -402q-18 -142 -78 -207t-142 -65q-76 0 -123 35q-58 -89 -153 -89zM224 -173q52 0 78.5 39t37.5 121l59 482h-173l-56 -457q-10 -91 -42 -151 q29 -34 96 -34zM231 501h172q12 89 50 164q-13 43 -79 43q-60 0 -93.5 -37.5t-44.5 -123.5z" horiz-adv-x="645"/>
<glyph glyph-name="f_f_i" d="M-44 -259q-48 0 -82.5 23.5t-34.5 69.5q0 34 19 57.5t54 23.5q28 0 43 -15.5t15 -40.5q0 -31 -19 -50t-53 -21q15 -15 51 -15q87 0 109 160l66 536h-86l4 32h87q20 128 85.5 183.5t152.5 55.5q76 0 117 -41q62 65 162 65q60 0 103.5 -28t43.5 -76q0 -37 -17.5 -58 t-50.5 -21q-29 0 -46 15.5t-17 40.5q0 31 18.5 50t51.5 20q-23 25 -74 25q-62 0 -98 -38t-47 -130l-8 -63h82q166 0 181 11l13 -10l-50 -407q-1 -9 -1 -24q0 -43 28 -43q48 0 64 123h31q-13 -84 -38 -123t-88 -39q-98 0 -98 99q0 8 2 30l41 351h-171l-49 -402 q-18 -142 -77.5 -207t-143.5 -65q-73 0 -121 35q-60 -89 -154 -89zM224 -173q52 0 78.5 39t37.5 121l58 482h-172l-56 -457q-10 -89 -42 -151q29 -34 96 -34zM231 501h172q13 94 52 165q-14 42 -81 42q-59 0 -93 -38t-45 -123z" horiz-adv-x="873"/>
<glyph glyph-name="f_f_l" d="M-44 -259q-48 0 -82.5 23.5t-34.5 69.5q0 34 19 57.5t54 23.5q28 0 43 -15.5t15 -40.5q0 -31 -19 -50t-53 -21q15 -15 51 -15q87 0 109 160l66 536h-86l4 32h87q20 128 85.5 183.5t152.5 55.5q78 0 119 -41q61 65 159 65q42 0 73 -13q69 3 81 10l14 -10l-81 -655 q-2 -20 -2 -27q0 -40 29 -40q48 0 63 125h31q-12 -85 -37.5 -124.5t-88.5 -39.5q-98 0 -98 99q0 8 2 30l43 350h-173l-49 -402q-18 -142 -78.5 -207t-142.5 -65q-73 0 -121 35q-60 -89 -154 -89zM224 -173q52 0 78.5 39t37.5 121l59 482h-173l-56 -457q-10 -89 -42 -151 q29 -34 96 -34zM231 501h172q14 102 43 161q-16 46 -72 46q-60 0 -93.5 -37.5t-44.5 -123.5zM505 501h173l27 218q-19 13 -50 13q-61 0 -95.5 -37.5t-45.5 -122.5z" horiz-adv-x="873"/>
<glyph glyph-name="f_j" d="M234 -261q-118 0 -123 96q-59 -94 -155 -94q-48 0 -82.5 23.5t-34.5 69.5q0 34 19 57.5t54 23.5q28 0 43 -15.5t15 -40.5q0 -31 -19 -50t-53 -21q15 -15 51 -15q87 0 109 160l66 536h-86l4 32h87q9 74 32.5 127t57.5 81.5t71.5 41.5t81.5 13q61 0 104 -27.5t43 -76.5 q0 -37 -17.5 -58t-50.5 -21q-29 0 -46 15.5t-17 40.5q0 31 18.5 50t51.5 20q-25 25 -77 25q-61 0 -95.5 -38t-46.5 -130l-8 -63h88q160 0 175 11l13 -10l-57 -470q-36 -293 -216 -293zM225 -230q48 0 74 44.5t39 142.5l61 512h-172l-57 -457q-8 -64 -24 -108q16 11 39 11 q57 -3 57 -57q-2 -69 -74 -69q15 -19 57 -19z" horiz-adv-x="576"/>
<glyph glyph-name="f_t" d="M-44 -259q-48 0 -82.5 23.5t-34.5 69.5q0 34 19 57.5t54 23.5q28 0 43 -15.5t15 -40.5q0 -31 -19 -50t-53 -21q15 -15 51 -15q87 0 109 160l66 536h-86l4 32h87q9 74 32.5 127t57.5 81.5t71 41.5t81 13q73 0 111 -35.5t38 -102.5q0 -10 -2 -32l-11 -93h139l-4 -32h-139 l-44 -359q-2 -20 -2 -28q0 -56 38 -56q33 0 52 31.5t30 109.5h33q-15 -98 -45.5 -138t-100.5 -40q-108 0 -108 109q0 9 2 31l41 340h-172l-57 -457q-17 -140 -77 -205.5t-137 -65.5zM231 501h97q58 0 95.5 27t45.5 81q2 11 2 31q0 48 -24.5 69.5t-61.5 21.5 q-124 0 -146 -164z" horiz-adv-x="628"/>
<glyph glyph-name="g_j" d="M206 -224q79 0 123.5 39t44.5 96q0 28 -10 45.5t-34.5 27t-48.5 13t-69 6.5q-19 0 -35 2q-57 -9 -89.5 -39t-32.5 -81q0 -109 151 -109zM441 -228q47 0 69.5 42.5t35.5 144.5l61 510l-206 3q56 -44 56 -110q0 -11 -1 -17q-9 -72 -68.5 -113.5t-145.5 -41.5 q-48 0 -89 -13.5t-42 -42.5q0 -14 7.5 -22.5t26.5 -13t33.5 -6t45.5 -3.5q46 -2 82 -8.5t73 -21t57 -43t20 -70.5q0 -94 -80 -153q18 -21 65 -21zM245 219q39 0 68.5 31t39.5 101q2 20 2 29q0 50 -24.5 76.5t-59.5 26.5q-88 0 -108 -132q-2 -20 -2 -29q0 -49 25 -76t59 -27z M442 -260q-62 0 -97 34q-64 -33 -144 -33q-97 0 -165 37.5t-68 101.5q0 52 42 90.5t119 44.5q-87 19 -87 88q0 36 29 64t85 39q-44 19 -70.5 54.5t-26.5 79.5q0 11 1 17q9 73 68.5 114.5t146.5 41.5q31 0 72 -13h190q148 1 165 12l13 -10l-57 -469q-20 -161 -75 -227 t-141 -66zM668 603q-37 0 -53.5 21.5t-16.5 45.5q0 25 17.5 47t55.5 22q36 0 52.5 -21.5t16.5 -45.5t-17.5 -46.5t-54.5 -22.5z" horiz-adv-x="788"/>
<glyph glyph-name="s_t" d="M19 -11l23 180h33q-1 -7 -1 -21q0 -59 34.5 -92t85.5 -33q49 0 78 21t29 61q0 32 -24 54t-58.5 36.5t-68.5 31.5t-58 50.5t-24 82.5q1 67 51.5 110t126.5 43q4 0 10.5 -0.5t9.5 -0.5v9q1 133 60 193t150 60q86 0 128 -38.5t42 -107.5q0 -10 -2 -32l-12 -95h140l-4 -32 h-139l-44 -359q-2 -20 -2 -28q0 -56 38 -56q33 0 52 31.5t30 109.5h33q-15 -98 -45.5 -138t-101.5 -40q-107 0 -107 109q0 9 2 31l41 340h-69l5 32q54 0 93 25.5t47 79.5q2 20 2 28q0 55 -36.5 81.5t-95.5 26.5q-28 0 -55 -9.5t-54 -31t-43.5 -65.5t-17.5 -106q0 -14 1 -23 q41 -10 67 -33t26 -57q0 -29 -15 -45t-41 -16q-38 0 -54.5 36.5t-17.5 85.5q-3 0 -10.5 0.5t-11.5 0.5q-42 0 -71.5 -21.5t-29.5 -58.5q0 -35 23.5 -58.5t57 -38.5t67 -32.5t57 -50.5t23.5 -81q-1 -66 -45 -107.5t-131 -41.5h-4q-74 0 -129 37l-28 -37h-16z" horiz-adv-x="754"/>
<glyph glyph-name="hyphen.cap" d="M46 334l4 36h246l-4 -36h-246z" horiz-adv-x="336"/>
<glyph glyph-name="endash.cap" d="M101 333l5 36h486l-5 -36h-486z" horiz-adv-x="681"/>
<glyph glyph-name="emdash.cap" d="M109 333l4 36h636l-4 -36h-636z" horiz-adv-x="846"/>
<glyph glyph-name="parenleft.cap" d="M312 -200q-108 52 -177 168t-69 255v8q3 172 108.5 340t259.5 253l18 -28q-140 -98 -204.5 -239t-68.5 -368v-18q0 -40 3 -74.5t10.5 -62.5t13.5 -50t19 -42t20.5 -32.5t23.5 -27.5t21.5 -20.5t22.5 -18.5t20 -15z" horiz-adv-x="387"/>
<glyph glyph-name="parenright.cap" d="M-50 -200l-18 28q141 99 204.5 238t67.5 362v18q0 36 -3 69t-7 58t-13 50t-14.5 40.5t-19 34t-18.5 27t-21 23.5t-19.5 18.5t-20 16t-17.5 13.5l21 28q107 -51 176 -170.5t69 -259.5v-8q-3 -172 -107.5 -336.5t-259.5 -249.5z" horiz-adv-x="391"/>
<glyph glyph-name="bracketleft.cap" d="M15 -190l123 1000h230l-4 -33h-131l-115 -934h131l-4 -33h-230z" horiz-adv-x="336"/>
<glyph glyph-name="bracketright.cap" d="M-39 -190l4 33h131l115 934h-131l4 33h230l-123 -1000h-230z" horiz-adv-x="336"/>
<glyph glyph-name="braceleft.cap" d="M248 -200q-105 0 -147.5 37.5t-42.5 103.5q0 49 28.5 152.5t28.5 139.5q0 78 -87 78l3 24q66 0 88.5 36.5t22.5 106.5q0 18 -1.5 58.5t-1.5 60.5q0 39 4.5 68.5t18.5 61t39 51.5t69 33t104 13l-4 -24q-49 0 -75.5 -24.5t-34 -64.5t-9 -88.5t-4.5 -98.5t-15 -92.5 t-48 -72.5t-96 -36q121 -15 121 -140q0 -46 -20.5 -142.5t-20.5 -132.5q0 -87 83 -87z" horiz-adv-x="342"/>
<glyph glyph-name="braceright.cap" d="M-44 -200l3 24q47 0 72.5 25.5t33 67t8.5 92t5.5 102.5t17.5 96.5t50 76.5t98 39q-116 13 -116 129q0 43 19.5 134t19.5 126q0 88 -88 88l3 24q107 0 150 -36t43 -100q0 -47 -28 -145.5t-28 -133.5q0 -36 19.5 -55t66.5 -19l-3 -24q-36 0 -59.5 -12t-34.5 -35.5t-15 -49 t-4 -63.5q0 -16 1 -51t1 -53q0 -43 -4 -74.5t-18 -66t-39 -56t-69 -36t-105 -14.5z" horiz-adv-x="341"/>
<glyph glyph-name="guilsinglleft.cap" d="M208 124l-188 187v23l238 166l-7 -30l-126 -144l90 -172z" horiz-adv-x="311"/>
<glyph glyph-name="guilsinglright.cap" d="M48 124l1 30l126 172l-84 144l1 30l195 -166l-7 -23z" horiz-adv-x="311"/>
<glyph glyph-name="guillemotleft.cap" d="M422 124l-191 188l3 22l234 166l-4 -32l-125 -145l86 -172zM244 85l-216 226l4 24l267 204l-4 -32l-150 -184l102 -211z" horiz-adv-x="505"/>
<glyph glyph-name="guillemotright.cap" d="M29 124l3 27l128 172l-89 145l3 32l195 -166l-4 -22zM198 85l3 27l152 211l-104 184l4 32l218 -204l-3 -24z" horiz-adv-x="505"/>
<glyph glyph-name="slash.cap" d="M-19 -45l-38 21l532 854l38 -22z" horiz-adv-x="447"/>
<glyph glyph-name="backslash.cap" d="M369 -39l-322 853l39 16l323 -854z" horiz-adv-x="448"/>
<glyph glyph-name="bar.cap" d="M15 -190l140 1140h47l-140 -1140h-47z" horiz-adv-x="211"/>
<glyph glyph-name="at.cap" d="M392 87q98 0 128 188q5 35 5 57q0 62 -24 97t-65 35q-47 0 -77.5 -53t-40.5 -135q-4 -28 -4 -59q0 -130 78 -130zM440 -133q-69 0 -128 11.5t-113 38.5t-91.5 69.5t-60 107.5t-22.5 149v9q3 183 134.5 299.5t312.5 116.5q192 0 287 -97.5t95 -259.5v-11 q-1 -95 -54.5 -173t-147.5 -78q-65 0 -97.5 27.5t-32.5 78.5v9q-44 -115 -147 -115q-70 0 -115 51t-45 137q0 26 2 40q12 93 72.5 154.5t145.5 61.5q47 0 78.5 -24.5t42.5 -62.5l77 87h10l-42 -297q-4 -38 -4 -52q0 -32 14 -48t53 -16q62 0 99.5 66.5t38.5 152.5v13 q0 151 -78.5 237t-251.5 86q-163 0 -277.5 -106t-117.5 -277v-9q0 -91 29 -159t80.5 -107.5t115 -58.5t139.5 -19q165 0 242 61l14 -18q-37 -34 -106.5 -54.5t-150.5 -20.5z" horiz-adv-x="898"/>
<glyph glyph-name="i.dot" d="M179 -11q-99 0 -99 100q0 9 2 29l42 351h-83l5 32q154 0 173 11l13 -10l-49 -407q-2 -20 -2 -27q0 -40 29 -40q48 0 63 123h31q-12 -84 -37 -123t-88 -39zM185 603q-36 0 -52.5 21.5t-16.5 45.5q0 25 17.5 47t55.5 22q36 0 52.5 -21.5t16.5 -45.5t-18 -46.5t-55 -22.5z " horiz-adv-x="324"/>
<glyph glyph-name="uni0402.alt" d="M424 -10l1 21q107 29 130 207q3 21 3 41q0 121 -97 121q-49 0 -83.5 -31.5t-45.5 -88.5l-27 -227h75l-5 -33h-286l4 33h104l76 624h-38q-80 0 -113 -28t-44 -110l-2 -19h-32l24 190h527l-24 -190h-32l2 16q3 26 3 45q0 56 -28 76t-97 20h-38l-37 -304q58 78 162 78 q76 0 118 -41.5t42 -123.5q0 -22 -3 -46q-8 -64 -38 -112t-69 -72t-72.5 -35t-59.5 -11z" horiz-adv-x="709"/>
<glyph glyph-name="uni0404.alt" d="M270 -11q-77 0 -131 46.5t-76.5 113t-22.5 144.5q0 27 3 53q11 84 51.5 163.5t110.5 135.5t152 56q57 0 102 -37l45 36h18l-28 -230h-33q4 27 4 56q0 141 -107 141q-153 0 -195 -304h230l-4 -33h-230q-6 -54 -6 -96q0 -211 126 -211q133 0 157 201h33l-29 -234h-18 l-36 38q-42 -24 -63.5 -31.5t-52.5 -7.5z" horiz-adv-x="536"/>
<glyph glyph-name="uni0405.alt" d="M242 -11q-100 0 -159 52l-46 -51h-18l29 233h33q-2 -20 -2 -31q0 -73 42 -121t120 -48q60 0 90 34.5t30 92.5q0 33 -19 60t-41.5 42.5t-63.5 39.5q-11 6 -16 9q-66 40 -103.5 87t-37.5 122v7q2 79 59.5 131.5t147.5 52.5q96 0 148 -51l41 50h18l-29 -230h-32q2 20 2 28 q0 74 -36 121t-101 47q-58 0 -87 -30.5t-29 -82.5q0 -55 31.5 -87.5t118.5 -86.5q24 -14 34.5 -20.5t33 -25.5t33.5 -37t21 -47.5t10 -63.5q0 -87 -60 -141.5t-162 -54.5z" horiz-adv-x="512"/>
<glyph glyph-name="uni0406.alt" d="M-12 0l5 33h106l76 624h-106l4 33h321l-5 -33h-106l-76 -624h106l-4 -33h-321z" horiz-adv-x="369"/>
<glyph glyph-name="uni0407.alt" d="M-12 0l5 33h106l76 624h-106l4 33h321l-5 -33h-106l-76 -624h106l-4 -33h-321zM345 755q-32 0 -46 18.5t-14 41.5v6q2 25 21 47t55 22q32 0 46 -18t14 -41v-8q-2 -23 -21.5 -45.5t-54.5 -22.5zM147 755q-32 0 -46 18.5t-14 41.5v6q2 25 21 47t56 22q31 0 45 -18t14 -41 v-8q-1 -23 -20.5 -45.5t-55.5 -22.5z" horiz-adv-x="366"/>
<glyph glyph-name="uni0408.alt" d="M121 -11q-69 0 -103 31.5t-34 86.5q0 8 2 26q4 34 25.5 56t54.5 22q28 0 43 -16t15 -40q0 -7 -1 -11q-7 -66 -88 -69q3 -20 23 -35.5t53 -15.5q61 0 87.5 42.5t40.5 151.5l54 439h-109l4 33h299l-5 -33h-81l-49 -397q-10 -81 -31.5 -136.5t-53.5 -83.5t-66.5 -39.5 t-79.5 -11.5z" horiz-adv-x="448"/>
<glyph glyph-name="uni0409.alt" d="M516 33h47q86 0 128 40t52 121q2 20 2 28q0 65 -38 97.5t-103 32.5h-49zM79 -11q-41 0 -69.5 24t-28.5 73q0 14 1 22q3 31 23 52.5t53 21.5q28 0 42.5 -16.5t14.5 -38.5q0 -2 -0.5 -5t-0.5 -4q-8 -63 -75 -63h-3q10 -32 49 -32q57 0 97.5 57.5t75 195.5t67.5 381h-104 l4 33h453l-4 -33h-82l-33 -273h58q99 0 170.5 -44t71.5 -125q0 -14 -1 -21q-23 -183 -265 -194h-269l5 33h83l77 624h-124q-19 -135 -36 -232t-36.5 -174t-40 -125t-47 -80t-56.5 -44.5t-70 -12.5z" horiz-adv-x="890"/>
<glyph glyph-name="uni040A.alt" d="M6 0l4 33h82l76 624h-81l4 33h269l-5 -33h-79l-35 -289h262l35 289h-79l4 33h269l-4 -33h-82l-35 -284h59q99 0 171 -44t72 -121q0 -12 -1 -19q-11 -90 -84 -139t-201 -50h-249l5 33h79l37 303h-262l-37 -303h79l-4 -33h-269zM570 33h48q85 0 127.5 39.5t51.5 116.5 q2 18 2 27q0 62 -38 93t-104 31h-49z" horiz-adv-x="945"/>
<glyph glyph-name="uni040B.alt" d="M90 0l5 33h103l77 624h-39q-80 0 -113 -28t-43 -110l-2 -19h-33l24 190h528l-24 -190h-33l2 16q3 25 3 46q0 55 -28 75t-97 20h-38l-37 -305q58 78 162 78q153 0 153 -154q0 -21 -3 -45l-24 -198h77l-4 -33h-256l5 33h74l24 191q3 24 3 44q0 111 -95 111 q-49 0 -82.5 -31.5t-44.5 -88.5l-28 -226h75l-4 -33h-287z" horiz-adv-x="772"/>
<glyph glyph-name="uni040F.alt" d="M293 -216q-29 0 -42.5 16t-13.5 38v8q3 26 33.5 77t34.5 77h-299l4 33h82l76 624h-81l4 33h260l-4 -33h-71l-76 -624h248l76 624h-71l5 33h260l-4 -33h-82l-77 -624h82l-4 -33h-295v-8q0 -24 14 -68t14 -66q0 -2 -0.5 -6t-0.5 -6q-4 -24 -22 -43t-50 -19z" horiz-adv-x="711"/>
<glyph glyph-name="uni0410.alt" d="M-57 0l4 33h64l311 667h36l146 -667h68l-4 -33h-300l4 33h118l-52 245h-175l-114 -245h118l-5 -33h-219zM178 310h153l-48 225z" horiz-adv-x="583"/>
<glyph glyph-name="uni0411.alt" d="M200 33h73q88 0 134 53t46 143q0 67 -37.5 101.5t-101.5 34.5h-74zM6 0l4 33h82l76 624h-81l4 33h487l-26 -211h-33l4 33q3 21 3 39q0 60 -33.5 83t-107.5 23h-109l-32 -260h81q99 0 170.5 -45t71.5 -128q0 -106 -77 -165t-213 -59h-271z" horiz-adv-x="606"/>
<glyph glyph-name="uni0412.alt" d="M200 33h27q92 0 137 49.5t45 131.5q0 123 -143 123h-29zM241 367h23q71 0 112.5 47.5t41.5 114.5q0 64 -32.5 95t-104.5 33h-5zM6 0l4 33h82l76 624h-81l4 33h190q250 -5 250 -155q0 -64 -49.5 -115t-136.5 -64q79 -10 129 -46.5t50 -101.5q0 -91 -77.5 -149.5 t-213.5 -58.5h-227z" horiz-adv-x="573"/>
<glyph glyph-name="uni0413.alt" d="M6 0l4 33h82l76 624h-81l4 33h482l-27 -220h-32l5 42q3 21 3 38q0 61 -33.5 84t-107.5 23h-105l-76 -624h135l-5 -33h-324z" horiz-adv-x="545"/>
<glyph glyph-name="uni0403.alt" d="M6 0l4 33h82l76 624h-81l4 33h482l-27 -220h-32l5 42q3 21 3 38q0 61 -33.5 84t-107.5 23h-105l-76 -624h135l-5 -33h-324zM300 740l86 103q21 27 60 27h75q26 0 26 -11q0 -10 -24 -24l-193 -95h-30z" horiz-adv-x="545"/>
<glyph glyph-name="uni0414.alt" d="M-41 -180l27 213h62q94 99 147 250.5t82 373.5h-87l5 33h444l-4 -33h-82l-76 -624h110l-26 -213h-32l3 32q3 26 3 46q0 58 -29.5 80t-100.5 22h-245q-79 0 -114 -27.5t-48 -102.5l-6 -50h-33zM102 33h267l76 624h-124q-30 -222 -81 -373t-138 -251z" horiz-adv-x="635"/>
<glyph glyph-name="uni0415.alt" d="M6 0l4 33h82l76 624h-81l4 33h438l-27 -220h-32l4 42q3 22 3 40q0 59 -32.5 81.5t-104.5 23.5h-64l-35 -290h107l9 77h38l-24 -195h-38l10 86h-107l-36 -302h98q42 0 70.5 9.5t45.5 30.5t25.5 47.5t13.5 67.5l5 36h32l-28 -224h-456z" horiz-adv-x="548"/>
<glyph glyph-name="uni0401.alt" d="M6 0l4 33h82l76 624h-81l4 33h438l-27 -220h-32l4 42q3 22 3 40q0 59 -32.5 81.5t-104.5 23.5h-64l-35 -290h107l9 77h38l-24 -195h-38l10 86h-107l-36 -302h98q42 0 70.5 9.5t45.5 30.5t25.5 47.5t13.5 67.5l5 36h32l-28 -224h-456zM433 750q-32 0 -46 18.5t-14 41.5v6 q2 25 21 47t55 22q32 0 46 -18t14 -41v-8q-2 -23 -21.5 -45.5t-54.5 -22.5zM235 750q-32 0 -46 18.5t-14 41.5v6q2 25 21 47t56 22q31 0 45 -18t14 -41v-8q-1 -23 -20.5 -45.5t-55.5 -22.5z" horiz-adv-x="548"/>
<glyph glyph-name="uni0416.alt" d="M716 -11q-25 0 -43.5 8t-29.5 19.5t-20 33.5t-13 40t-10 50q-2 10 -6.5 41t-7 42t-8 34.5t-12 33t-16 22.5t-22.5 18t-30 5h-4l-38 -303h78l-4 -33h-260l5 33h78l37 303h-8q-15 0 -28.5 -5.5t-23.5 -11.5t-20.5 -20t-17.5 -23.5t-16.5 -30.5t-14.5 -32t-15 -36.5 t-15 -36.5q-17 -41 -28 -62t-29 -45t-40.5 -34t-53.5 -10q-49 0 -68.5 25.5t-19.5 75.5q0 29 5 71h30q-5 -35 -5 -67q0 -58 27 -58q18 0 30 20t38 82q41 96 55 117q29 43 99 73q24 10 58 22q-28 6 -44.5 32t-21 61t-8.5 74.5t-7.5 72.5t-18.5 55t-41 22q-22 0 -35 -10 q30 -1 45 -16.5t15 -39.5q0 -28 -19 -47.5t-47 -19.5q-63 0 -63 66q0 38 30 69.5t74 31.5q41 0 65.5 -24.5t30.5 -61.5t10.5 -80.5t7.5 -80.5t20 -61.5t48 -24.5h24l35 289h-79l4 33h253l-4 -33h-71l-35 -289h22q37 0 61.5 34.5t39.5 83t31.5 97.5t49.5 83.5t82 34.5 q33 0 57 -22t24 -58q0 -37 -22 -62t-51 -25q-28 0 -44 14.5t-16 39.5q0 27 18.5 48t51.5 23q-11 7 -25 7q-35 0 -58.5 -29t-37.5 -72t-27.5 -87.5t-38 -81t-59.5 -46.5q52 -20 79 -34.5t43 -38.5t22 -47t14 -72q0 -5 0.5 -7t1 -6t1.5 -7q14 -78 23 -90q8 -12 23 -12 q34 0 49 125h30q-11 -88 -35.5 -130t-89.5 -42z" horiz-adv-x="870"/>
<glyph glyph-name="uni0417.alt" d="M244 -11q-107 0 -162 38l-44 -37h-18l29 233h33q-3 -21 -3 -41q0 -72 35.5 -115.5t107.5 -43.5q71 0 114 38t52 110q2 24 2 35q0 131 -137 131h-88l4 32h84q67 0 105.5 41.5t47.5 115.5q2 24 2 34q0 107 -107 107q-73 0 -120 -52.5t-58 -144.5h-33l28 230h18l35 -37 q68 38 155 38q95 0 145.5 -38.5t50.5 -107.5q0 -7 -2 -25q-8 -69 -64.5 -113t-128.5 -59q85 -15 132 -56.5t47 -106.5q0 -8 -2 -24q-10 -87 -81 -134.5t-179 -47.5z" horiz-adv-x="554"/>
<glyph glyph-name="uni0418.alt" d="M6 0l4 33h82l76 624h-81l4 33h267l-4 -33h-78l-57 -466l253 400l8 66h-78l4 33h268l-5 -33h-82l-76 -624h82l-4 -33h-268l4 33h78l60 487l-253 -399l-10 -88h78l-4 -33h-268z" horiz-adv-x="666"/>
<glyph glyph-name="uni0419.alt" d="M6 0l4 33h82l76 624h-81l4 33h267l-4 -33h-78l-57 -466l253 400l8 66h-78l4 33h268l-5 -33h-82l-76 -624h82l-4 -33h-268l4 33h78l60 487l-253 -399l-10 -88h78l-4 -33h-268zM423 964q81 0 124.5 -39t43.5 -92q0 -9 -1 -14q-4 -27 -22 -44.5t-45 -17.5q-47 0 -47 44v7 q3 21 20 37.5t45 16.5q6 0 20 -2q-14 20 -53.5 32t-91.5 12q-56 0 -99.5 -12.5t-60.5 -32.5q22 4 28 4q49 0 49 -46q0 -1 -0.5 -4t-0.5 -5q-3 -22 -19.5 -36.5t-41.5 -14.5q-24 0 -37 14.5t-13 37.5q0 1 0.5 4.5t0.5 5.5q7 56 61 100.5t140 44.5z" horiz-adv-x="666"/>
<glyph glyph-name="uni041A.alt" d="M504 -11q-31 0 -51.5 10.5t-33 33.5t-18.5 45.5t-13 61.5q-6 36 -11.5 59.5t-15.5 52t-22 45t-30.5 28t-42.5 11.5h-34l-37 -303h88l-4 -33h-273l4 33h82l76 624h-81l4 33h256l-5 -33h-70l-36 -289h50q37 0 64 34.5t45 83t37.5 97.5t55 83.5t84.5 34.5q33 0 57 -22 t24 -58q0 -37 -22 -62t-51 -25q-28 0 -44 14.5t-16 39.5q0 27 18.5 48t51.5 23q-11 7 -25 7q-33 0 -58 -28t-41.5 -70t-33 -85.5t-42.5 -80.5t-59 -49q53 -18 82.5 -34.5t47.5 -44t25 -54t17 -82.5q15 -78 23 -90q9 -12 23 -12q34 0 49 125h30q-11 -87 -35.5 -129.5 t-88.5 -42.5z" horiz-adv-x="653"/>
<glyph glyph-name="uni040C.alt" d="M504 -11q-31 0 -51.5 10.5t-33 33.5t-18.5 45.5t-13 61.5q-6 36 -11.5 59.5t-15.5 52t-22 45t-30.5 28t-42.5 11.5h-34l-37 -303h88l-4 -33h-273l4 33h82l76 624h-81l4 33h256l-5 -33h-70l-36 -289h50q37 0 64 34.5t45 83t37.5 97.5t55 83.5t84.5 34.5q33 0 57 -22 t24 -58q0 -37 -22 -62t-51 -25q-28 0 -44 14.5t-16 39.5q0 27 18.5 48t51.5 23q-11 7 -25 7q-33 0 -58 -28t-41.5 -70t-33 -85.5t-42.5 -80.5t-59 -49q53 -18 82.5 -34.5t47.5 -44t25 -54t17 -82.5q15 -78 23 -90q9 -12 23 -12q34 0 49 125h30q-11 -87 -35.5 -129.5 t-88.5 -42.5zM358 740l86 103q21 27 60 27h75q26 0 26 -11q0 -10 -24 -24l-193 -95h-30z" horiz-adv-x="653"/>
<glyph glyph-name="uni041B.alt" d="M79 -11q-41 0 -69.5 24t-28.5 73q0 14 1 22q3 31 23 52.5t53 21.5q28 0 42.5 -16.5t14.5 -38.5q0 -2 -0.5 -5t-0.5 -4q-8 -63 -75 -63h-3q10 -32 49 -32q57 0 97.5 57.5t75 195.5t66.5 381h-103l4 33h453l-4 -33h-82l-76 -624h81l-4 -33h-269l5 33h83l77 624h-124 q-19 -135 -36 -232t-36.5 -174t-40 -125t-47 -80t-56.5 -44.5t-70 -12.5z" horiz-adv-x="671"/>
<glyph glyph-name="uni041C.alt" d="M6 0l4 33h82l76 624h-81l4 33h214l58 -408l171 408h215l-4 -33h-82l-76 -624h82l-5 -33h-289l5 33h99l75 607l-234 -548h-23l-88 548l-74 -607h103l-4 -33h-228z" horiz-adv-x="742"/>
<glyph glyph-name="uni041D.alt" d="M6 0l4 33h82l76 624h-81l4 33h269l-5 -33h-79l-35 -289h262l35 289h-79l4 33h269l-4 -33h-82l-76 -624h82l-5 -33h-269l5 33h79l37 303h-263l-36 -303h79l-4 -33h-269z" horiz-adv-x="725"/>
<glyph glyph-name="uni041E.alt" d="M332 22q210 0 248 324q7 53 7 102q0 118 -45.5 169t-130.5 51q-99 0 -163.5 -73t-86.5 -249q-6 -54 -6 -97q0 -121 45.5 -174t131.5 -53zM328 -11q-74 0 -131 27.5t-90.5 73t-50 99.5t-16.5 112q0 23 3 45q8 62 37 123.5t74.5 114t113.5 85t147 32.5q73 0 130 -26.5 t90 -70.5t49.5 -96.5t16.5 -110.5q0 -25 -3 -51q-8 -62 -36 -124t-73.5 -114.5t-113.5 -85.5t-147 -33z" horiz-adv-x="730"/>
<glyph glyph-name="uni041F.alt" d="M6 0l4 33h82l76 624h-81l4 33h618l-4 -33h-82l-76 -624h82l-5 -33h-269l5 33h79l76 624h-239l-76 -624h79l-4 -33h-269z" horiz-adv-x="702"/>
<glyph glyph-name="uni0420.alt" d="M235 320h36q94 0 136.5 45t52.5 127q3 19 3 39q0 61 -34.5 93.5t-117.5 32.5h-35zM6 0l4 33h82l76 624h-81l4 33h220q134 0 200.5 -45.5t66.5 -125.5q0 -8 -2 -26q-11 -91 -90 -148.5t-222 -57.5h-34l-30 -254h117l-4 -33h-307z" horiz-adv-x="571"/>
<glyph glyph-name="uni0421.alt" d="M296 -11q-65 0 -115.5 27t-80.5 72t-45 98.5t-15 111.5q0 24 3 48q11 84 54 163.5t119.5 135.5t166.5 56q82 0 129 -37l45 36h17l-28 -230h-32q3 24 3 46q0 151 -133 151q-87 0 -144 -73t-79 -248q-7 -55 -7 -104q0 -219 151 -219q83 0 127.5 55.5t56.5 145.5h32 l-29 -234h-17l-36 38q-68 -39 -143 -39z" horiz-adv-x="588"/>
<glyph glyph-name="uni0422.alt" d="M6 0l4 33h82l76 624h-81l4 33h774l-4 -33h-82l-76 -624h81l-4 -33h-241l4 33h52l76 624h-143l-77 -624h52l-4 -33h-212l5 33h51l77 624h-144l-76 -624h52l-5 -33h-241z" horiz-adv-x="858"/>
<glyph glyph-name="uni0423.alt" d="M185 -260q-60 0 -92 32t-32 83q0 42 21 69t59 27q28 0 41.5 -15t13.5 -39q0 -32 -19 -54.5t-58 -22.5h-8q16 -45 77 -45q46 0 70.5 29.5t24.5 85.5q0 42 -13 93l-168 674h-78l4 33h312l-4 -33h-121l121 -486l212 486h-113l4 33h230l-4 -33h-76l-281 -634q17 -70 17 -124 q0 -159 -140 -159z" horiz-adv-x="599"/>
<glyph glyph-name="uni040E.alt" d="M185 -260q-60 0 -92 32t-32 83q0 42 21 69t59 27q28 0 41.5 -15t13.5 -39q0 -32 -19 -54.5t-58 -22.5h-8q16 -45 77 -45q46 0 70.5 29.5t24.5 85.5q0 42 -13 93l-168 674h-78l4 33h312l-4 -33h-121l121 -486l212 486h-113l4 33h230l-4 -33h-76l-281 -634q17 -70 17 -124 q0 -159 -140 -159zM414 964q81 0 124.5 -39t43.5 -92q0 -9 -1 -14q-4 -27 -22 -44.5t-45 -17.5q-47 0 -47 44v7q3 21 20 37.5t45 16.5q6 0 20 -2q-14 20 -53.5 32t-91.5 12q-55 0 -99 -12.5t-61 -32.5q22 4 28 4q49 0 49 -46q0 -1 -0.5 -4t-0.5 -5q-3 -22 -19.5 -36.5 t-41.5 -14.5q-24 0 -37 14.5t-13 37.5q0 1 0.5 4.5t0.5 5.5q7 56 61 100.5t140 44.5z" horiz-adv-x="599"/>
<glyph glyph-name="uni0424.alt" d="M391 195q75 5 121.5 40t57.5 121q2 12 2 34q0 67 -37.5 94t-104.5 31zM283 196l39 319q-75 -3 -121 -37t-56 -122q-2 -22 -2 -31q0 -120 140 -129zM156 -10l3 33h103l16 138q-116 8 -183.5 55.5t-67.5 120.5q0 13 1 19q10 81 91.5 133t207.5 60l14 118h-102l4 33h313 l-5 -33h-102l-15 -117q117 -8 185 -54.5t68 -119.5q0 -13 -1 -20q-10 -81 -91.5 -134t-208.5 -61l-16 -138h102l-3 -33h-313z" horiz-adv-x="699"/>
<glyph glyph-name="uni0425.alt" d="M-30 0l5 33h64l215 307l-134 317h-70l5 33h274l-5 -33h-89l100 -235l163 235h-74l4 33h189l-5 -33h-71l-189 -272l150 -352h61l-4 -33h-284l5 33h104l-113 268l-186 -268h95l-5 -33h-205z" horiz-adv-x="599"/>
<glyph glyph-name="uni0426.alt" d="M6 0l4 33h82l76 624h-81l4 33h260l-4 -33h-71l-76 -624h226l76 624h-70l4 33h260l-4 -33h-82l-76 -624h113l-27 -213h-32l3 32q3 26 3 46q0 58 -29.5 80t-100.5 22h-458z" horiz-adv-x="705"/>
<glyph glyph-name="uni0427.alt" d="M279 0l4 33h113l36 297q-57 -28 -147 -28q-88 0 -134 31t-46 109q0 24 2 37l22 178h-82l5 33h258l-4 -33h-73l-23 -181q-2 -24 -2 -32q0 -106 107 -106q75 0 122 26l35 293h-74l4 33h260l-5 -33h-81l-77 -624h82l-4 -33h-298z" horiz-adv-x="655"/>
<glyph glyph-name="uni0428.alt" d="M6 0l4 33h82l76 624h-81l4 33h241l-4 -33h-52l-76 -624h143l77 624h-52l4 33h212l-5 -33h-51l-77 -624h144l76 624h-52l5 33h241l-4 -33h-82l-76 -624h81l-4 -33h-774z" horiz-adv-x="858"/>
<glyph glyph-name="uni0429.alt" d="M744 -180l4 32q3 26 3 46q0 58 -29.5 80t-100.5 22h-615l4 33h82l76 624h-81l4 33h241l-4 -33h-52l-76 -624h141l76 624h-52l5 33h206l-4 -33h-52l-76 -624h141l76 624h-52l5 33h241l-4 -33h-82l-76 -624h110l-26 -213h-33z" horiz-adv-x="864"/>
<glyph glyph-name="uni042A.alt" d="M276 33h48q86 0 128 40t52 121q2 20 2 28q0 65 -37.5 97.5t-102.5 32.5h-51zM83 0l4 33h82l76 624h-7q-77 0 -111 -25.5t-44 -97.5l-9 -64h-33l27 220h398l-4 -33h-109l-33 -273h58q100 0 171.5 -44.5t71.5 -125.5q0 -13 -1 -20q-13 -95 -87 -144.5t-205 -49.5h-245z" horiz-adv-x="651"/>
<glyph glyph-name="uni042B.alt" d="M200 33h12q85 0 126 39t51 119q2 18 2 27q0 63 -36.5 95t-101.5 33l-15 1zM6 0l4 33h82l76 624h-81l4 33h741l-4 -33h-87l-76 -624h86l-4 -33h-269l4 33h75l77 624h-358l-34 -278h21q99 0 170.5 -43.5t71.5 -123.5q0 -14 -1 -21q-12 -94 -85.5 -142.5t-202.5 -48.5h-210z " horiz-adv-x="821"/>
<glyph glyph-name="uni042C.alt" d="M200 33h48q86 0 128 40t52 121q2 20 2 28q0 65 -38 97.5t-103 32.5h-50zM6 0l4 33h82l76 624h-81l4 33h298l-4 -33h-109l-33 -273h59q99 0 170.5 -44t71.5 -125q0 -14 -1 -21q-12 -95 -86 -144.5t-205 -49.5h-246z" horiz-adv-x="575"/>
<glyph glyph-name="uni042D.alt" d="M224 -11q-98 0 -151 38l-44 -37h-17l29 234h32q-2 -13 -2 -38q0 -74 37.5 -118.5t114.5 -44.5q84 0 137 71.5t75 241.5h-271l5 32h270q5 44 5 94q0 111 -36 158t-106 47q-77 0 -129.5 -52.5t-63.5 -144.5h-32l28 230h17l35 -37q66 38 155 38q83 0 140.5 -45t81 -110 t23.5 -143q0 -29 -3 -57q-6 -50 -22.5 -99t-45 -96t-65.5 -83t-88 -57.5t-109 -21.5z" horiz-adv-x="585"/>
<glyph glyph-name="uni042E.alt" d="M636 22q70 0 111 72t63 252q10 77 10 138q0 184 -104 184q-71 0 -112 -70.5t-63 -251.5q-9 -78 -9 -133q0 -191 104 -191zM633 -11q-74 0 -124 45t-69.5 109t-19.5 141q0 35 2 52h-185l-37 -303h79l-4 -33h-269l4 33h82l76 624h-81l4 33h269l-5 -33h-79l-35 -289h185 q11 62 33.5 118.5t57.5 106t87.5 79t115.5 29.5q73 0 122.5 -43t69.5 -105.5t20 -138.5q0 -39 -4 -68q-8 -64 -29.5 -124.5t-56.5 -114t-89.5 -86t-119.5 -32.5z" horiz-adv-x="960"/>
<glyph glyph-name="uni042F.alt" d="M91 -11q-49 0 -68.5 25.5t-19.5 75.5q0 29 5 71h30q-5 -45 -5 -65q0 -59 28 -59q16 0 29 20.5t35 72.5q1 4 2 6l2.5 5t2.5 6q31 72 63.5 100.5t121.5 54.5q-82 3 -134 58t-52 122q0 86 84 147t211 61h225l-4 -33h-82l-76 -624h82l-5 -33h-277l4 33h92l33 261h-31 q-50 -1 -83 -37.5t-61 -105.5q-15 -38 -22.5 -55.5t-22 -42.5t-28 -36t-34 -19.5t-45.5 -8.5zM401 324h20l41 333h-21q-93 0 -144.5 -51.5t-51.5 -131.5q0 -68 40 -109t116 -41z" horiz-adv-x="644"/>
<glyph glyph-name="uni0462.alt" d="M262 33h21q93 0 135 38t42 115q0 66 -36.5 93.5t-103.5 28.5h-24zM68 0l5 33h81l60 491h-20q-26 -1 -43 -5t-35.5 -16t-30 -38t-16.5 -66l-1 -6h-32l20 163h163l12 103h-82l4 32h272l-4 -32h-82l-13 -103h163l-21 -163h-32l2 15q1 9 1 25q0 54 -24.5 71.5t-72.5 19.5h-20 l-22 -184h30q67 0 119 -13t88.5 -47.5t36.5 -87.5q0 -90 -76 -141t-212 -51h-218z" horiz-adv-x="609"/>
<glyph glyph-name="uni0472.alt" d="M332 22q208 0 247 314l3 27q-58 -77 -124 -77q-43 0 -114.5 28.5t-102.5 29.5h-9q-35 0 -75 -32q-2 -21 -2 -60q0 -122 45.5 -176t131.5 -54zM161 345q60 67 126 67q38 0 108 -26.5t100 -27.5h6q48 0 84 41q2 34 2 48q0 119 -45.5 170t-130.5 51q-98 0 -163 -73t-87 -250 zM328 -11q-74 0 -131 27.5t-90.5 73t-50 99.5t-16.5 112q0 23 3 45q8 62 37 123.5t74.5 114t113.5 85t147 32.5q73 0 130 -26.5t90 -70.5t49.5 -96.5t16.5 -110.5q0 -25 -3 -51q-8 -62 -36 -124t-73.5 -114.5t-113.5 -85.5t-147 -33z" horiz-adv-x="712"/>
<glyph glyph-name="uni0474.alt" d="M280 -10h-36l-142 667h-78l4 33h310l-4 -33h-119l103 -487l171 388q36 81 71.5 112t88.5 31q33 0 57 -22t24 -58q0 -37 -22 -62t-51 -25q-28 0 -44 14.5t-16 39.5q0 27 18.5 48t51.5 23q-11 7 -25 7q-35 0 -60.5 -26t-53.5 -89z" horiz-adv-x="670"/>
<glyph glyph-name="uni0490.alt" d="M6 0l4 33h82l76 624h-81l4 33h287q83 0 122 30.5t49 113.5l5 35h33l-27 -212h-284l-76 -624h135l-5 -33h-324z" horiz-adv-x="522"/>
<glyph glyph-name="A.alt" d="M-57 0l4 33h64l311 667h36l146 -667h68l-4 -33h-300l4 33h118l-52 245h-175l-114 -245h118l-5 -33h-219zM178 310h153l-48 225z" horiz-adv-x="583"/>
<glyph glyph-name="Agrave.alt" d="M-57 0l4 33h64l311 667h36l146 -667h68l-4 -33h-300l4 33h118l-52 245h-175l-114 -245h118l-5 -33h-219zM178 310h153l-48 225zM331 742l-182 94q-15 9 -15 20q0 16 28 16h87q26 0 45 -29l68 -101h-31z" horiz-adv-x="583"/>
<glyph glyph-name="Aacute.alt" d="M-57 0l4 33h64l311 667h36l146 -667h68l-4 -33h-300l4 33h118l-52 245h-175l-114 -245h118l-5 -33h-219zM178 310h153l-48 225zM307 740l86 103q21 27 60 27h75q26 0 26 -11q0 -10 -24 -24l-193 -95h-30z" horiz-adv-x="583"/>
<glyph glyph-name="Acircumflex.alt" d="M-57 0l4 33h64l311 667h36l146 -667h68l-4 -33h-300l4 33h118l-52 245h-175l-114 -245h118l-5 -33h-219zM178 310h153l-48 225zM198 737l157 171h28l108 -171h-24l-109 76l-130 -76h-30z" horiz-adv-x="583"/>
<glyph glyph-name="Atilde.alt" d="M-57 0l4 33h64l311 667h36l146 -667h68l-4 -33h-300l4 33h118l-52 245h-175l-114 -245h118l-5 -33h-219zM178 310h153l-48 225zM420 756q-33 0 -60 19t-49.5 38.5t-44.5 19.5q-53 0 -55 -70h-24q2 51 27.5 89t74.5 38q30 0 54 -11t37 -24.5t31 -24.5t38 -11 q27 0 37.5 16.5t17.5 47.5h23q-17 -127 -107 -127z" horiz-adv-x="583"/>
<glyph glyph-name="Adieresis.alt" d="M-57 0l4 33h64l311 667h36l146 -667h68l-4 -33h-300l4 33h118l-52 245h-175l-114 -245h118l-5 -33h-219zM178 310h153l-48 225zM445 755q-32 0 -46 18.5t-14 41.5v6q2 25 21 47t55 22q32 0 46 -18t14 -41v-8q-2 -23 -21.5 -45.5t-54.5 -22.5zM247 755q-32 0 -46 18.5 t-14 41.5v6q2 25 21 47t56 22q31 0 45 -18t14 -41v-8q-1 -23 -20.5 -45.5t-55.5 -22.5z" horiz-adv-x="583"/>
<glyph glyph-name="Aring.alt" d="M-57 0l4 33h64l311 667h36l146 -667h68l-4 -33h-300l4 33h118l-52 245h-175l-114 -245h118l-5 -33h-219zM178 310h153l-48 225zM355 781q40 0 46 42q1 4 1 12q0 35 -36 35q-25 0 -36.5 -15.5t-11.5 -35.5q0 -15 9 -26.5t28 -11.5zM352 743q-41 0 -59 20t-18 50q0 2 0.5 6 t0.5 6q3 29 26 56.5t70 27.5q39 0 56 -21.5t17 -50.5q0 -10 -1 -14q-5 -31 -26.5 -55.5t-65.5 -24.5z" horiz-adv-x="583"/>
<glyph glyph-name="Amacron.alt" d="M-57 0l4 33h64l311 667h36l146 -667h68l-4 -33h-300l4 33h118l-52 245h-175l-114 -245h118l-5 -33h-219zM178 310h153l-48 225zM232 799l5 42h244l-5 -42h-244z" horiz-adv-x="583"/>
<glyph glyph-name="Aogonek.alt" d="M628 -101q-32 -38 -96 -38q-44 0 -70.5 18t-26.5 50q0 1 0.5 4.5t0.5 4.5q6 44 56 62h-224l4 33h118l-52 245h-175l-114 -245h118l-5 -33h-219l4 33h64l311 667h36l146 -667h68l-4 -33q-25 0 -42.5 -14.5t-20.5 -39.5v-8q0 -21 14.5 -33.5t41.5 -12.5q33 0 56 21z M178 310h153l-48 225z" horiz-adv-x="583"/>
<glyph glyph-name="B.alt" d="M200 33h27q92 0 137 49.5t45 131.5q0 123 -143 123h-29zM241 367h23q71 0 112.5 47.5t41.5 114.5q0 64 -32.5 95t-104.5 33h-5zM6 0l4 33h82l76 624h-81l4 33h190q250 -5 250 -155q0 -64 -49.5 -115t-136.5 -64q79 -10 129 -46.5t50 -101.5q0 -91 -77.5 -149.5 t-213.5 -58.5h-227z" horiz-adv-x="573"/>
<glyph glyph-name="C.alt" d="M296 -11q-65 0 -115.5 27t-80.5 72t-45 98.5t-15 111.5q0 24 3 48q11 84 54 163.5t119.5 135.5t166.5 56q82 0 129 -37l45 36h17l-28 -230h-32q3 24 3 46q0 151 -133 151q-87 0 -144 -73t-79 -248q-7 -55 -7 -104q0 -219 151 -219q83 0 127.5 55.5t56.5 145.5h32 l-29 -234h-17l-36 38q-68 -39 -143 -39z" horiz-adv-x="588"/>
<glyph glyph-name="Ccedilla.alt" d="M43 346q11 84 54 163.5t119.5 135.5t166.5 56q82 0 129 -37l45 36h17l-28 -230h-32q3 24 3 46q0 151 -133 151q-87 0 -144 -73t-79 -248q-7 -55 -7 -104q0 -219 151 -219q83 0 127.5 55.5t56.5 145.5h32l-29 -234h-17l-36 38q-61 -35 -131 -39l-31 -38q46 0 80.5 -18.5 t34.5 -56.5q0 -1 -0.5 -4.5t-0.5 -4.5q-5 -35 -37 -54t-78 -19q-76 0 -103 42l16 18q19 -27 64 -27q50 0 56 42v8q0 44 -74 44l-6 9l45 60q-78 6 -132.5 54.5t-78 114t-23.5 140.5q0 23 3 47z" horiz-adv-x="588"/>
<glyph glyph-name="Cacute.alt" d="M296 -11q-65 0 -115.5 27t-80.5 72t-45 98.5t-15 111.5q0 24 3 48q11 84 54 163.5t119.5 135.5t166.5 56q82 0 129 -37l45 36h17l-28 -230h-32q3 24 3 46q0 151 -133 151q-87 0 -144 -73t-79 -248q-7 -55 -7 -104q0 -219 151 -219q83 0 127.5 55.5t56.5 145.5h32 l-29 -234h-17l-36 38q-68 -39 -143 -39zM348 740l86 103q21 27 60 27h75q26 0 26 -11q0 -10 -24 -24l-193 -95h-30z" horiz-adv-x="588"/>
<glyph glyph-name="Ccaron.alt" d="M43 346q11 84 54 163.5t119.5 135.5t166.5 56q82 0 129 -37l45 36h17l-28 -230h-32q3 24 3 46q0 151 -133 151q-87 0 -144 -73t-79 -248q-7 -55 -7 -104q0 -219 151 -219q83 0 127.5 55.5t56.5 145.5h32l-29 -234h-17l-36 38q-68 -39 -143 -39q-65 0 -115.5 27t-80.5 72 t-45 98.5t-15 111.5q0 24 3 48zM379 754l-121 171h31l116 -76l123 76h24l-145 -171h-28z" horiz-adv-x="588"/>
<glyph glyph-name="D.alt" d="M200 33h68q56 0 103.5 15t92 48.5t75 97t41.5 152.5q5 42 5 70q0 241 -241 241h-68zM6 0l4 33h82l76 624h-81l4 33h276q81 0 146 -26.5t105.5 -70t62 -97.5t21.5 -111q0 -19 -3 -39q-7 -61 -40 -121.5t-85.5 -111t-129 -82t-162.5 -31.5h-276z" horiz-adv-x="731"/>
<glyph glyph-name="Dcaron.alt" d="M200 33h68q56 0 103.5 15t92 48.5t75 97t41.5 152.5q5 42 5 70q0 241 -241 241h-68zM6 0l4 33h82l76 624h-81l4 33h276q81 0 146 -26.5t105.5 -70t62 -97.5t21.5 -111q0 -19 -3 -39q-7 -61 -40 -121.5t-85.5 -111t-129 -82t-162.5 -31.5h-276zM395 754l-121 171h30 l116 -76l124 76h23l-144 -171h-28z" horiz-adv-x="731"/>
<glyph glyph-name="E.alt" d="M6 0l4 33h82l76 624h-81l4 33h438l-27 -220h-32l4 42q3 22 3 40q0 59 -32.5 81.5t-104.5 23.5h-64l-35 -290h107l9 77h38l-24 -195h-38l10 86h-107l-36 -302h98q42 0 70.5 9.5t45.5 30.5t25.5 47.5t13.5 67.5l5 36h32l-28 -224h-456z" horiz-adv-x="548"/>
<glyph glyph-name="Egrave.alt" d="M6 0l4 33h82l76 624h-81l4 33h438l-27 -220h-32l4 42q3 22 3 40q0 59 -32.5 81.5t-104.5 23.5h-64l-35 -290h107l9 77h38l-24 -195h-38l10 86h-107l-36 -302h98q42 0 70.5 9.5t45.5 30.5t25.5 47.5t13.5 67.5l5 36h32l-28 -224h-456zM339 742l-182 94q-15 9 -15 20 q0 16 28 16h87q26 0 45 -29l68 -101h-31z" horiz-adv-x="548"/>
<glyph glyph-name="Eacute.alt" d="M6 0l4 33h82l76 624h-81l4 33h438l-27 -220h-32l4 42q3 22 3 40q0 59 -32.5 81.5t-104.5 23.5h-64l-35 -290h107l9 77h38l-24 -195h-38l10 86h-107l-36 -302h98q42 0 70.5 9.5t45.5 30.5t25.5 47.5t13.5 67.5l5 36h32l-28 -224h-456zM290 740l86 103q21 27 60 27h75 q26 0 26 -11q0 -10 -24 -24l-193 -95h-30z" horiz-adv-x="548"/>
<glyph glyph-name="Ecircumflex.alt" d="M6 0l4 33h82l76 624h-81l4 33h438l-27 -220h-32l4 42q3 22 3 40q0 59 -32.5 81.5t-104.5 23.5h-64l-35 -290h107l9 77h38l-24 -195h-38l10 86h-107l-36 -302h98q42 0 70.5 9.5t45.5 30.5t25.5 47.5t13.5 67.5l5 36h32l-28 -224h-456zM189 737l157 171h28l108 -171h-24 l-109 76l-130 -76h-30z" horiz-adv-x="548"/>
<glyph glyph-name="Edieresis.alt" d="M6 0l4 33h82l76 624h-81l4 33h438l-27 -220h-32l4 42q3 22 3 40q0 59 -32.5 81.5t-104.5 23.5h-64l-35 -290h107l9 77h38l-24 -195h-38l10 86h-107l-36 -302h98q42 0 70.5 9.5t45.5 30.5t25.5 47.5t13.5 67.5l5 36h32l-28 -224h-456zM433 750q-32 0 -46 18.5t-14 41.5v6 q2 25 21 47t55 22q32 0 46 -18t14 -41v-8q-2 -23 -21.5 -45.5t-54.5 -22.5zM235 750q-32 0 -46 18.5t-14 41.5v6q2 25 21 47t56 22q31 0 45 -18t14 -41v-8q-1 -23 -20.5 -45.5t-55.5 -22.5z" horiz-adv-x="548"/>
<glyph glyph-name="Emacron.alt" d="M6 0l4 33h82l76 624h-81l4 33h438l-27 -220h-32l4 42q3 22 3 40q0 59 -32.5 81.5t-104.5 23.5h-64l-35 -290h107l9 77h38l-24 -195h-38l10 86h-107l-36 -302h98q42 0 70.5 9.5t45.5 30.5t25.5 47.5t13.5 67.5l5 36h32l-28 -224h-456zM221 799l5 42h244l-5 -42h-244z" horiz-adv-x="548"/>
<glyph glyph-name="Edotaccent.alt" d="M6 0l4 33h82l76 624h-81l4 33h438l-27 -220h-32l4 42q3 22 3 40q0 59 -32.5 81.5t-104.5 23.5h-64l-35 -290h107l9 77h38l-24 -195h-38l10 86h-107l-36 -302h98q42 0 70.5 9.5t45.5 30.5t25.5 47.5t13.5 67.5l5 36h32l-28 -224h-456zM343 772q-35 0 -49 20t-14 44 q0 26 21 49t59 23q33 0 47.5 -18t14.5 -41v-8q-2 -24 -22 -46.5t-57 -22.5z" horiz-adv-x="548"/>
<glyph glyph-name="Eogonek.alt" d="M514 -101q-32 -38 -96 -38q-44 0 -70.5 18t-26.5 50q0 1 0.5 4.5t0.5 4.5q6 44 56 62h-372l4 33h82l76 624h-81l4 33h438l-27 -220h-32l4 42q3 22 3 40q0 59 -32.5 81.5t-104.5 23.5h-64l-35 -290h107l9 77h38l-24 -195h-38l10 86h-107l-36 -302h98q42 0 70.5 9.5 t45.5 30.5t25.5 47.5t13.5 67.5l5 36h32l-28 -224h-8q-25 0 -42.5 -14.5t-20.5 -39.5v-8q0 -21 14.5 -33.5t41.5 -12.5q33 0 56 21z" horiz-adv-x="548"/>
<glyph glyph-name="Ecaron.alt" d="M6 0l4 33h82l76 624h-81l4 33h438l-27 -220h-32l4 42q3 22 3 40q0 59 -32.5 81.5t-104.5 23.5h-64l-35 -290h107l9 77h38l-24 -195h-38l10 86h-107l-36 -302h98q42 0 70.5 9.5t45.5 30.5t25.5 47.5t13.5 67.5l5 36h32l-28 -224h-456zM320 754l-121 171h30l116 -76l124 76 h23l-144 -171h-28z" horiz-adv-x="548"/>
<glyph glyph-name="F.alt" d="M6 0l4 33h82l76 624h-81l4 33h484l-27 -220h-33l5 42q3 21 3 39q0 60 -33.5 83t-107.5 23h-106l-35 -290h138l10 77h37l-25 -199h-37l11 90h-139l-36 -302h120l-4 -33h-310z" horiz-adv-x="554"/>
<glyph glyph-name="G.alt" d="M266 -11q-58 0 -103 26t-71 70t-39 96t-13 109q0 29 3 56q8 62 33 123.5t64 114t96.5 85t122.5 32.5q66 0 112 -37l45 36h17l-28 -230h-33q4 27 4 58q0 139 -116 139q-79 0 -128 -72t-71 -249q-8 -61 -8 -121q0 -202 122 -202q50 0 82 22l30 257h-92l4 33h273l-4 -33h-75 l-38 -312h-20l-42 36q-67 -37 -127 -37z" horiz-adv-x="592"/>
<glyph glyph-name="uni0122.alt" d="M212 -306l-18 24q25 15 50.5 42.5t32.5 58.5q-7 -6 -21 -6q-23 0 -40.5 16.5t-17.5 41.5q0 27 18 50t52 23q61 0 61 -67q0 -58 -34 -107.5t-83 -75.5zM266 -11q-58 0 -103 26t-71 70t-39 96t-13 109q0 29 3 56q8 62 33 123.5t64 114t96.5 85t122.5 32.5q66 0 112 -37 l45 36h17l-28 -230h-33q4 27 4 58q0 139 -116 139q-79 0 -128 -72t-71 -249q-8 -61 -8 -121q0 -202 122 -202q50 0 82 22l30 257h-92l4 33h273l-4 -33h-75l-38 -312h-20l-42 36q-67 -37 -127 -37z" horiz-adv-x="592"/>
<glyph glyph-name="H.alt" d="M6 0l4 33h82l76 624h-81l4 33h269l-5 -33h-79l-35 -289h262l35 289h-79l4 33h269l-4 -33h-82l-76 -624h82l-5 -33h-269l5 33h79l37 303h-263l-36 -303h79l-4 -33h-269z" horiz-adv-x="725"/>
<glyph glyph-name="I.alt" d="M-12 0l5 33h106l76 624h-106l4 33h321l-5 -33h-106l-76 -624h106l-4 -33h-321z" horiz-adv-x="369"/>
<glyph glyph-name="Igrave.alt" d="M-12 0l5 33h106l76 624h-106l4 33h321l-5 -33h-106l-76 -624h106l-4 -33h-321zM237 742l-182 94q-15 9 -15 20q0 16 28 16h87q26 0 45 -29l68 -101h-31z" horiz-adv-x="369"/>
<glyph glyph-name="Iacute.alt" d="M-12 0l5 33h106l76 624h-106l4 33h321l-5 -33h-106l-76 -624h106l-4 -33h-321zM230 740l86 103q21 27 60 27h75q26 0 26 -11q0 -10 -24 -24l-193 -95h-30z" horiz-adv-x="369"/>
<glyph glyph-name="Icircumflex.alt" d="M-12 0l5 33h106l76 624h-106l4 33h321l-5 -33h-106l-76 -624h106l-4 -33h-321zM93 737l157 171h28l108 -171h-24l-109 76l-130 -76h-30z" horiz-adv-x="369"/>
<glyph glyph-name="Idieresis.alt" d="M-12 0l5 33h106l76 624h-106l4 33h321l-5 -33h-106l-76 -624h106l-4 -33h-321zM345 755q-32 0 -46 18.5t-14 41.5v6q2 25 21 47t55 22q32 0 46 -18t14 -41v-8q-2 -23 -21.5 -45.5t-54.5 -22.5zM147 755q-32 0 -46 18.5t-14 41.5v6q2 25 21 47t56 22q31 0 45 -18t14 -41 v-8q-1 -23 -20.5 -45.5t-55.5 -22.5z" horiz-adv-x="369"/>
<glyph glyph-name="Imacron.alt" d="M-12 0l5 33h106l76 624h-106l4 33h321l-5 -33h-106l-76 -624h106l-4 -33h-321zM127 799l5 42h244l-5 -42h-244z" horiz-adv-x="369"/>
<glyph glyph-name="Iogonek.alt" d="M369 -101q-32 -38 -96 -38q-44 0 -70.5 18t-26.5 50q0 1 0.5 4.5t0.5 4.5q6 44 56 62h-245l5 33h106l76 624h-106l4 33h321l-5 -33h-106l-76 -624h106l-4 -33q-25 0 -42.5 -14.5t-20.5 -39.5v-8q0 -21 14.5 -33.5t41.5 -12.5q33 0 56 21z" horiz-adv-x="369"/>
<glyph glyph-name="J.alt" d="M121 -11q-69 0 -103 31.5t-34 86.5q0 8 2 26q4 34 25.5 56t54.5 22q28 0 43 -16t15 -40q0 -7 -1 -11q-7 -66 -88 -69q3 -20 23 -35.5t53 -15.5q61 0 87.5 42.5t40.5 151.5l54 439h-109l4 33h299l-5 -33h-81l-49 -397q-10 -81 -31.5 -136.5t-53.5 -83.5t-66.5 -39.5 t-79.5 -11.5z" horiz-adv-x="448"/>
<glyph glyph-name="K.alt" d="M6 0l4 33h82l76 624h-81l4 33h278l-4 -33h-89l-41 -335l261 335h-59l5 33h195l-4 -33h-89l-176 -226l171 -398h53l-4 -33h-216l4 33h40l-131 306l-57 -74l-28 -232h73l-4 -33h-263z" horiz-adv-x="632"/>
<glyph glyph-name="uni0136.alt" d="M233 -306l-18 24q25 15 50.5 42.5t32.5 58.5q-8 -6 -21 -6q-23 0 -40.5 16.5t-17.5 41.5q0 27 18 50t52 23q61 0 61 -67q0 -58 -34 -107.5t-83 -75.5zM6 0l4 33h82l76 624h-81l4 33h278l-4 -33h-89l-41 -335l261 335h-59l5 33h195l-4 -33h-89l-176 -226l171 -398h53 l-4 -33h-216l4 33h40l-131 306l-57 -74l-28 -232h73l-4 -33h-263z" horiz-adv-x="630"/>
<glyph glyph-name="L.alt" d="M6 0l4 33h82l76 624h-81l4 33h298l-4 -33h-109l-76 -624h148q42 0 70.5 9.5t45.5 30.5t25.5 47.5t13.5 67.5l5 36h32l-28 -224h-506z" horiz-adv-x="573"/>
<glyph glyph-name="Lacute.alt" d="M6 0l4 33h82l76 624h-81l4 33h298l-4 -33h-109l-76 -624h148q42 0 70.5 9.5t45.5 30.5t25.5 47.5t13.5 67.5l5 36h32l-28 -224h-506zM203 740l86 103q21 27 60 27h75q26 0 26 -11q0 -10 -24 -24l-193 -95h-30z" horiz-adv-x="573"/>
<glyph glyph-name="uni013B.alt" d="M213 -306l-18 24q25 15 50.5 42.5t32.5 58.5q-8 -6 -21 -6q-23 0 -40.5 16.5t-17.5 41.5q0 27 18 50t52 23q61 0 61 -67q0 -58 -34 -107.5t-83 -75.5zM6 0l4 33h82l76 624h-81l4 33h298l-4 -33h-109l-76 -624h148q42 0 70.5 9.5t45.5 30.5t25.5 47.5t13.5 67.5l5 36h32 l-28 -224h-506z" horiz-adv-x="573"/>
<glyph glyph-name="Lcaron.alt" d="M6 0l4 33h82l76 624h-81l4 33h298l-4 -33h-109l-76 -624h148q42 0 70.5 9.5t45.5 30.5t25.5 47.5t13.5 67.5l5 36h32l-28 -224h-506zM454 452l-18 24q25 15 50.5 42.5t32.5 58.5q-7 -6 -21 -6q-23 0 -40.5 16.5t-17.5 41.5q0 27 18 50t52 23q61 0 61 -67 q0 -58 -34 -107.5t-83 -75.5z" horiz-adv-x="581"/>
<glyph glyph-name="M.alt" d="M6 0l4 33h82l76 624h-81l4 33h214l58 -408l171 408h215l-4 -33h-82l-76 -624h82l-5 -33h-289l5 33h99l75 607l-234 -548h-23l-88 548l-74 -607h103l-4 -33h-228z" horiz-adv-x="742"/>
<glyph glyph-name="N.alt" d="M6 0l4 33h82l76 624h-81l4 33h179l266 -495l57 462h-88l5 33h211l-4 -33h-82l-81 -666h-37l-316 590l-66 -548h87l-4 -33h-212z" horiz-adv-x="706"/>
<glyph glyph-name="Ntilde.alt" d="M6 0l4 33h82l76 624h-81l4 33h179l266 -495l57 462h-88l5 33h211l-4 -33h-82l-81 -666h-37l-316 590l-66 -548h87l-4 -33h-212zM498 757q-26 0 -49 12t-37 26.5t-32 26.5t-36 12q-53 0 -55 -70h-24q2 51 27.5 89t74.5 38q30 0 54 -11t37 -24.5t31.5 -24.5t37.5 -11 q27 0 37.5 16.5t17.5 47.5h24q-19 -127 -108 -127z" horiz-adv-x="706"/>
<glyph glyph-name="Nacute.alt" d="M6 0l4 33h82l76 624h-81l4 33h179l266 -495l57 462h-88l5 33h211l-4 -33h-82l-81 -666h-37l-316 590l-66 -548h87l-4 -33h-212zM375 740l86 103q21 27 60 27h75q26 0 26 -11q0 -10 -24 -24l-193 -95h-30z" horiz-adv-x="706"/>
<glyph glyph-name="uni0145.alt" d="M268 -306l-18 24q25 15 50.5 42.5t32.5 58.5q-7 -6 -21 -6q-23 0 -40.5 16.5t-17.5 41.5q0 27 18 50t52 23q61 0 61 -67q0 -58 -34 -107.5t-83 -75.5zM6 0l4 33h82l76 624h-81l4 33h179l266 -495l57 462h-88l5 33h211l-4 -33h-82l-81 -666h-37l-316 590l-66 -548h87 l-4 -33h-212z" horiz-adv-x="706"/>
<glyph glyph-name="Ncaron.alt" d="M6 0l4 33h82l76 624h-81l4 33h179l266 -495l57 462h-88l5 33h211l-4 -33h-82l-81 -666h-37l-316 590l-66 -548h87l-4 -33h-212zM384 754l-120 171h30l116 -76l124 76h23l-144 -171h-29z" horiz-adv-x="706"/>
<glyph glyph-name="O.alt" d="M332 22q210 0 248 324q7 53 7 102q0 118 -45.5 169t-130.5 51q-99 0 -163.5 -73t-86.5 -249q-6 -54 -6 -97q0 -121 45.5 -174t131.5 -53zM328 -11q-74 0 -131 27.5t-90.5 73t-50 99.5t-16.5 112q0 23 3 45q8 62 37 123.5t74.5 114t113.5 85t147 32.5q73 0 130 -26.5 t90 -70.5t49.5 -96.5t16.5 -110.5q0 -25 -3 -51q-8 -62 -36 -124t-73.5 -114.5t-113.5 -85.5t-147 -33z" horiz-adv-x="730"/>
<glyph glyph-name="Ograve.alt" d="M332 22q210 0 248 324q7 53 7 102q0 118 -45.5 169t-130.5 51q-99 0 -163.5 -73t-86.5 -249q-6 -54 -6 -97q0 -121 45.5 -174t131.5 -53zM328 -11q-74 0 -131 27.5t-90.5 73t-50 99.5t-16.5 112q0 23 3 45q8 62 37 123.5t74.5 114t113.5 85t147 32.5q73 0 130 -26.5 t90 -70.5t49.5 -96.5t16.5 -110.5q0 -25 -3 -51q-8 -62 -36 -124t-73.5 -114.5t-113.5 -85.5t-147 -33zM417 742l-182 94q-15 9 -15 20q0 16 28 16h87q26 0 45 -29l68 -101h-31z" horiz-adv-x="730"/>
<glyph glyph-name="Oacute.alt" d="M332 22q210 0 248 324q7 53 7 102q0 118 -45.5 169t-130.5 51q-99 0 -163.5 -73t-86.5 -249q-6 -54 -6 -97q0 -121 45.5 -174t131.5 -53zM328 -11q-74 0 -131 27.5t-90.5 73t-50 99.5t-16.5 112q0 23 3 45q8 62 37 123.5t74.5 114t113.5 85t147 32.5q73 0 130 -26.5 t90 -70.5t49.5 -96.5t16.5 -110.5q0 -25 -3 -51q-8 -62 -36 -124t-73.5 -114.5t-113.5 -85.5t-147 -33zM409 740l86 103q21 27 60 27h75q26 0 26 -11q0 -10 -24 -24l-193 -95h-30z" horiz-adv-x="730"/>
<glyph glyph-name="Ocircumflex.alt" d="M332 22q210 0 248 324q7 53 7 102q0 118 -45.5 169t-130.5 51q-99 0 -163.5 -73t-86.5 -249q-6 -54 -6 -97q0 -121 45.5 -174t131.5 -53zM328 -11q-74 0 -131 27.5t-90.5 73t-50 99.5t-16.5 112q0 23 3 45q8 62 37 123.5t74.5 114t113.5 85t147 32.5q73 0 130 -26.5 t90 -70.5t49.5 -96.5t16.5 -110.5q0 -25 -3 -51q-8 -62 -36 -124t-73.5 -114.5t-113.5 -85.5t-147 -33zM293 737l157 171h28l108 -171h-24l-109 76l-130 -76h-30z" horiz-adv-x="730"/>
<glyph glyph-name="Otilde.alt" d="M332 22q210 0 248 324q7 53 7 102q0 118 -45.5 169t-130.5 51q-99 0 -163.5 -73t-86.5 -249q-6 -54 -6 -97q0 -121 45.5 -174t131.5 -53zM328 -11q-74 0 -131 27.5t-90.5 73t-50 99.5t-16.5 112q0 23 3 45q8 62 37 123.5t74.5 114t113.5 85t147 32.5q73 0 130 -26.5 t90 -70.5t49.5 -96.5t16.5 -110.5q0 -25 -3 -51q-8 -62 -36 -124t-73.5 -114.5t-113.5 -85.5t-147 -33zM503 756q-33 0 -60 19t-49.5 38.5t-44.5 19.5q-53 0 -55 -70h-24q2 51 27.5 89t74.5 38q30 0 54 -11t37 -24.5t31 -24.5t38 -11q27 0 37.5 16.5t17.5 47.5h23 q-17 -127 -107 -127z" horiz-adv-x="730"/>
<glyph glyph-name="Odieresis.alt" d="M332 22q210 0 248 324q7 53 7 102q0 118 -45.5 169t-130.5 51q-99 0 -163.5 -73t-86.5 -249q-6 -54 -6 -97q0 -121 45.5 -174t131.5 -53zM328 -11q-74 0 -131 27.5t-90.5 73t-50 99.5t-16.5 112q0 23 3 45q8 62 37 123.5t74.5 114t113.5 85t147 32.5q73 0 130 -26.5 t90 -70.5t49.5 -96.5t16.5 -110.5q0 -25 -3 -51q-8 -62 -36 -124t-73.5 -114.5t-113.5 -85.5t-147 -33zM529 756q-32 0 -46 18.5t-14 41.5v6q2 25 21 47t55 22q32 0 46 -18t14 -41v-8q-2 -23 -21.5 -45.5t-54.5 -22.5zM331 756q-32 0 -46 18.5t-14 41.5v6q2 25 21 47t56 22 q31 0 45 -18t14 -41v-8q-1 -23 -20.5 -45.5t-55.5 -22.5z" horiz-adv-x="730"/>
<glyph glyph-name="Omacron.alt" d="M332 22q210 0 248 324q7 53 7 102q0 118 -45.5 169t-130.5 51q-99 0 -163.5 -73t-86.5 -249q-6 -54 -6 -97q0 -121 45.5 -174t131.5 -53zM328 -11q-74 0 -131 27.5t-90.5 73t-50 99.5t-16.5 112q0 23 3 45q8 62 37 123.5t74.5 114t113.5 85t147 32.5q73 0 130 -26.5 t90 -70.5t49.5 -96.5t16.5 -110.5q0 -25 -3 -51q-8 -62 -36 -124t-73.5 -114.5t-113.5 -85.5t-147 -33zM316 799l5 42h244l-5 -42h-244z" horiz-adv-x="730"/>
<glyph glyph-name="Ohungarumlaut.alt" d="M332 22q210 0 248 324q7 53 7 102q0 118 -45.5 169t-130.5 51q-99 0 -163.5 -73t-86.5 -249q-6 -54 -6 -97q0 -121 45.5 -174t131.5 -53zM328 -11q-74 0 -131 27.5t-90.5 73t-50 99.5t-16.5 112q0 23 3 45q8 62 37 123.5t74.5 114t113.5 85t147 32.5q73 0 130 -26.5 t90 -70.5t49.5 -96.5t16.5 -110.5q0 -25 -3 -51q-8 -62 -36 -124t-73.5 -114.5t-113.5 -85.5t-147 -33zM471 740l99 104q23 26 62 26h78q25 0 25 -10t-27 -24l-197 -96h-40zM364 740l31 104q7 26 52 26h61q28 0 28 -10q0 -9 -20 -24l-126 -96h-26z" horiz-adv-x="730"/>
<glyph glyph-name="P.alt" d="M235 320h36q94 0 136.5 45t52.5 127q3 19 3 39q0 61 -34.5 93.5t-117.5 32.5h-35zM6 0l4 33h82l76 624h-81l4 33h220q134 0 200.5 -45.5t66.5 -125.5q0 -8 -2 -26q-11 -91 -90 -148.5t-222 -57.5h-34l-30 -254h117l-4 -33h-307z" horiz-adv-x="571"/>
<glyph glyph-name="Q.alt" d="M268 124v-9q0 -38 21 -63.5t57 -29.5q4 1 10 1q1 9 6.5 47.5t6.5 55.5q0 4 0.5 11t0.5 10q0 59 -38 59q-30 0 -46 -23.5t-18 -58.5zM161 346q-6 -52 -6 -96q0 -183 110 -218q-31 31 -31 84v9q3 56 36.5 89t85.5 33q96 0 96 -107v-14q-4 -40 -9 -75q111 68 137 295 q7 53 7 102q0 118 -45.5 169t-130.5 51q-99 0 -163.5 -73t-86.5 -249zM454 -141q-101 0 -101 113q0 3 0.5 9t0.5 9q-9 -1 -26 -1q-74 0 -131 27.5t-90.5 73t-50 99.5t-16.5 112q0 23 3 45q8 62 37 123.5t74.5 114t113.5 85t147 32.5q73 0 130 -26.5t90 -70.5t49.5 -96.5 t16.5 -110.5q0 -25 -3 -51q-13 -107 -82.5 -204.5t-177.5 -134.5q-2 -16 -2 -22v-13q0 -67 40 -67q22 0 37 16.5t24 67.5h30q-11 -65 -36 -97.5t-77 -32.5z" horiz-adv-x="729"/>
<glyph glyph-name="R.alt" d="M243 385h24q143 0 161 135q2 18 2 27q0 110 -128 110h-26zM485 -11q-26 0 -44.5 10t-28.5 21t-18 38.5t-11 43.5t-8 54q-18 117 -26 140q-17 48 -63 55q-8 1 -17 1h-30l-39 -319h111l-4 -33h-301l4 33h82l76 624h-81l4 33h212q116 0 178.5 -38t62.5 -110q0 -14 -1 -21 q-7 -60 -62 -103.5t-133 -51.5q26 -10 46.5 -21.5t34 -21t24 -24t16 -23.5t9.5 -27.5t5.5 -28t4 -32.5t3.5 -33q9 -76 15 -97t23 -21q38 0 53 115h30q-10 -81 -38 -122t-89 -41z" horiz-adv-x="634"/>
<glyph glyph-name="Racute.alt" d="M243 385h24q143 0 161 135q2 18 2 27q0 110 -128 110h-26zM485 -11q-26 0 -44.5 10t-28.5 21t-18 38.5t-11 43.5t-8 54q-18 117 -26 140q-17 48 -63 55q-8 1 -17 1h-30l-39 -319h111l-4 -33h-301l4 33h82l76 624h-81l4 33h212q116 0 178.5 -38t62.5 -110q0 -14 -1 -21 q-7 -60 -62 -103.5t-133 -51.5q26 -10 46.5 -21.5t34 -21t24 -24t16 -23.5t9.5 -27.5t5.5 -28t4 -32.5t3.5 -33q9 -76 15 -97t23 -21q38 0 53 115h30q-10 -81 -38 -122t-89 -41zM308 740l86 103q21 27 60 27h75q26 0 26 -11q0 -10 -24 -24l-193 -95h-30z" horiz-adv-x="634"/>
</font>
</defs>
</svg>
